<svg xmlns="http://www.w3.org/2000/svg" xmlns:xlink="http://www.w3.org/1999/xlink" version="1.1" data-diagram-type="SEQUENCE" style="width:1143px;height:875px;background:#FFFFFF;" width="1143px" height="875px" viewBox="0 0 1143 875" zoomAndPan="magnify" preserveAspectRatio="none" contentStyleType="text/css"><?plantuml 1.2026.8?><defs/><g font-family="sans-serif" lengthAdjust="spacing"><rect x="25.34" y="175.793" width="1097.741" height="621.977" fill="none" style="stroke:#000;stroke-width:1.5;"/><rect x="486.85" y="473.781" width="611.231" height="53.598" fill="none" style="stroke:#000;stroke-width:1.5;"/><rect x="486.85" y="545.379" width="611.231" height="114.195" fill="none" style="stroke:#000;stroke-width:1.5;"/><g><title>program</title><rect x="37.84" y="52.598" width="8" height="769.172" fill="#000" fill-opacity="0"/><line x1="41.34" y1="52.598" x2="41.34" y2="821.77" style="stroke:#181818;stroke-width:0.5;stroke-dasharray:5,5;"/></g><g><title>MemManage</title><rect x="301.938" y="52.598" width="8" height="769.172" fill="#000" fill-opacity="0"/><line x1="305.438" y1="52.598" x2="305.438" y2="821.77" style="stroke:#181818;stroke-width:0.5;stroke-dasharray:5,5;"/></g><g><title>vmem.cpp</title><rect x="499.35" y="52.598" width="8" height="769.172" fill="#000" fill-opacity="0"/><line x1="502.85" y1="52.598" x2="502.85" y2="821.77" style="stroke:#181818;stroke-width:0.5;stroke-dasharray:5,5;"/></g><g><title>emulate.cpp</title><rect x="736.121" y="52.598" width="8" height="769.172" fill="#000" fill-opacity="0"/><line x1="739.621" y1="52.598" x2="739.621" y2="821.77" style="stroke:#181818;stroke-width:0.5;stroke-dasharray:5,5;"/></g><g><title>w.tek programu</title><rect x="979.883" y="52.598" width="8" height="769.172" fill="#000" fill-opacity="0"/><line x1="983.383" y1="52.598" x2="983.383" y2="821.77" style="stroke:#181818;stroke-width:0.5;stroke-dasharray:5,5;"/></g><g><title>karta SD</title><rect x="1078.581" y="52.598" width="8" height="769.172" fill="#000" fill-opacity="0"/><line x1="1082.081" y1="52.598" x2="1082.081" y2="821.77" style="stroke:#181818;stroke-width:0.5;stroke-dasharray:5,5;"/></g><rect x="10" y="10" width="62.68" height="41.598" fill="#E2E2F0" style="stroke:#181818;stroke-width:0.5;" rx="2.5" ry="2.5"/><text x="18.998" y="28.256" fill="#000" font-size="12" textLength="44.684" font-family="Arial">program</text><text x="17" y="42.055" fill="#000" font-size="12" textLength="48.68" font-family="Arial">(cc1plus)</text><rect x="263.422" y="10" width="84.031" height="41.598" fill="#E2E2F0" style="stroke:#181818;stroke-width:0.5;" rx="2.5" ry="2.5"/><text x="270.422" y="28.256" fill="#000" font-size="12" textLength="70.031" font-family="Arial">MemManage</text><text x="278.76" y="42.055" fill="#000" font-size="12" textLength="53.355" font-family="Arial">(fault.cpp)</text><rect x="468.176" y="23.799" width="69.348" height="27.799" fill="#E2E2F0" style="stroke:#181818;stroke-width:0.5;" rx="2.5" ry="2.5"/><text x="475.176" y="42.055" fill="#000" font-size="12" textLength="55.348" font-family="Arial">vmem.cpp</text><rect x="699.935" y="23.799" width="79.373" height="27.799" fill="#E2E2F0" style="stroke:#181818;stroke-width:0.5;" rx="2.5" ry="2.5"/><text x="706.935" y="42.055" fill="#000" font-size="12" textLength="65.373" font-family="Arial">emulate.cpp</text><rect x="933.363" y="10" width="100.039" height="41.598" fill="#E2E2F0" style="stroke:#181818;stroke-width:0.5;" rx="2.5" ry="2.5"/><text x="940.363" y="28.256" fill="#000" font-size="12" textLength="86.039" font-family="Arial">wątek programu</text><text x="961.041" y="42.055" fill="#000" font-size="12" textLength="44.684" font-family="Arial">w jądrze</text><rect x="1043.402" y="10" width="77.357" height="41.598" fill="#E2E2F0" style="stroke:#181818;stroke-width:0.5;" rx="2.5" ry="2.5"/><text x="1058.74" y="28.256" fill="#000" font-size="12" textLength="46.682" font-family="Arial">karta SD</text><text x="1050.402" y="42.055" fill="#000" font-size="12" textLength="63.357" font-family="Arial">(fat_raw_io)</text><rect x="10" y="821.77" width="62.68" height="41.598" fill="#E2E2F0" style="stroke:#181818;stroke-width:0.5;" rx="2.5" ry="2.5"/><text x="18.998" y="840.025" fill="#000" font-size="12" textLength="44.684" font-family="Arial">program</text><text x="17" y="853.824" fill="#000" font-size="12" textLength="48.68" font-family="Arial">(cc1plus)</text><rect x="263.422" y="821.77" width="84.031" height="41.598" fill="#E2E2F0" style="stroke:#181818;stroke-width:0.5;" rx="2.5" ry="2.5"/><text x="270.422" y="840.025" fill="#000" font-size="12" textLength="70.031" font-family="Arial">MemManage</text><text x="278.76" y="853.824" fill="#000" font-size="12" textLength="53.355" font-family="Arial">(fault.cpp)</text><rect x="468.176" y="821.77" width="69.348" height="27.799" fill="#E2E2F0" style="stroke:#181818;stroke-width:0.5;" rx="2.5" ry="2.5"/><text x="475.176" y="840.025" fill="#000" font-size="12" textLength="55.348" font-family="Arial">vmem.cpp</text><rect x="699.935" y="821.77" width="79.373" height="27.799" fill="#E2E2F0" style="stroke:#181818;stroke-width:0.5;" rx="2.5" ry="2.5"/><text x="706.935" y="840.025" fill="#000" font-size="12" textLength="65.373" font-family="Arial">emulate.cpp</text><rect x="933.363" y="821.77" width="100.039" height="41.598" fill="#E2E2F0" style="stroke:#181818;stroke-width:0.5;" rx="2.5" ry="2.5"/><text x="940.363" y="840.025" fill="#000" font-size="12" textLength="86.039" font-family="Arial">wątek programu</text><text x="961.041" y="853.824" fill="#000" font-size="12" textLength="44.684" font-family="Arial">w jądrze</text><rect x="1043.402" y="821.77" width="77.357" height="41.598" fill="#E2E2F0" style="stroke:#181818;stroke-width:0.5;" rx="2.5" ry="2.5"/><text x="1058.74" y="840.025" fill="#000" font-size="12" textLength="46.682" font-family="Arial">karta SD</text><text x="1050.402" y="853.824" fill="#000" font-size="12" textLength="63.357" font-family="Arial">(fat_raw_io)</text><polygon points="293.438,76.396,303.438,80.396,293.438,84.396,297.438,80.396" fill="#181818" style="stroke:#181818;stroke-width:1;stroke-linejoin:miter;stroke-miterlimit:10;"/><line x1="41.34" y1="80.396" x2="299.438" y2="80.396" style="stroke:#181818;stroke-width:1;"/><text x="48.34" y="75.854" fill="#000" font-size="12" font-weight="700" font-family="Arial">1</text><text x="59.014" y="75.854" fill="#000" font-size="12" textLength="13.336" font-family="Arial">ldr</text><text x="72.35" y="75.854" fill="#000" font-size="12" font-family="Arial"> </text><text x="75.684" y="75.854" fill="#000" font-size="12" textLength="14.004" font-family="Arial">r0,</text><text x="89.688" y="75.854" fill="#000" font-size="12" font-family="Arial"> </text><text x="93.021" y="75.854" fill="#000" font-size="12" textLength="17.338" font-family="Arial">[r5,</text><text x="110.359" y="75.854" fill="#000" font-size="12" font-family="Arial"> </text><text x="113.693" y="75.854" fill="#000" font-size="12" textLength="16.682" font-family="Arial">#8]</text><text x="130.375" y="75.854" fill="#000" font-size="12" textLength="6.668" font-family="Arial">  </text><text x="137.043" y="75.854" fill="#000" font-size="12" textLength="70.699" font-family="Arial">(0x9000xxxx:</text><text x="207.742" y="75.854" fill="#000" font-size="12" font-family="Arial"> </text><text x="211.076" y="75.854" fill="#000" font-size="12" textLength="33.357" font-family="Arial">region</text><text x="244.434" y="75.854" fill="#000" font-size="12" font-family="Arial"> </text><text x="247.768" y="75.854" fill="#000" font-size="12" font-family="Arial">0</text><text x="254.441" y="75.854" fill="#000" font-size="12" font-family="Arial"> </text><text x="257.775" y="75.854" fill="#000" font-size="12" textLength="30.662" font-family="Arial">MPU)</text><polygon points="490.85,104.195,500.85,108.195,490.85,112.195,494.85,108.195" fill="#181818" style="stroke:#181818;stroke-width:1;stroke-linejoin:miter;stroke-miterlimit:10;"/><line x1="305.438" y1="108.195" x2="496.85" y2="108.195" style="stroke:#181818;stroke-width:1;"/><text x="312.438" y="103.652" fill="#000" font-size="12" font-weight="700" font-family="Arial">2</text><text x="323.111" y="103.652" fill="#000" font-size="12" textLength="73.348" font-family="Arial">vmem_fault():</text><text x="396.459" y="103.652" fill="#000" font-size="12" font-family="Arial"> </text><text x="399.793" y="103.652" fill="#000" font-size="12" textLength="33.357" font-family="Arial">region</text><text x="433.15" y="103.652" fill="#000" font-size="12" font-family="Arial"> </text><text x="436.484" y="103.652" fill="#000" font-size="12" textLength="49.365" font-family="Arial">procesu?</text><polygon points="727.621,131.994,737.621,135.994,727.621,139.994,731.621,135.994" fill="#181818" style="stroke:#181818;stroke-width:1;stroke-linejoin:miter;stroke-miterlimit:10;"/><line x1="502.85" y1="135.994" x2="733.621" y2="135.994" style="stroke:#181818;stroke-width:1;"/><text x="509.85" y="131.451" fill="#000" font-size="12" font-weight="700" font-family="Arial">3</text><text x="520.523" y="131.451" fill="#000" font-size="12" textLength="94.705" font-family="Arial">emulate_access()</text><polygon points="513.85,159.793,503.85,163.793,513.85,167.793,509.85,163.793" fill="#181818" style="stroke:#181818;stroke-width:1;stroke-linejoin:miter;stroke-miterlimit:10;"/><line x1="507.85" y1="163.793" x2="738.621" y2="163.793" style="stroke:#181818;stroke-width:1;"/><text x="519.85" y="159.25" fill="#000" font-size="12" font-weight="700" font-family="Arial">4</text><text x="530.523" y="159.25" fill="#000" font-size="12" textLength="38.021" font-family="Arial">page():</text><text x="568.545" y="159.25" fill="#000" font-size="12" font-family="Arial"> </text><text x="571.879" y="159.25" fill="#000" font-size="12" textLength="33.352" font-family="Arial">strona</text><text x="605.23" y="159.25" fill="#000" font-size="12" font-family="Arial"> </text><text x="608.564" y="159.25" fill="#000" font-size="12" font-family="Arial">w</text><text x="617.23" y="159.25" fill="#000" font-size="12" font-family="Arial"> </text><text x="620.564" y="159.25" fill="#000" font-size="12" textLength="41.35" font-family="Arial">pamięci</text><text x="661.914" y="159.25" fill="#000" font-size="12" font-family="Arial"> </text><text x="665.248" y="159.25" fill="#000" font-size="12" textLength="65.379" font-family="Arial">podręcznej?</text><path d="M25.34,175.793 L84.344,175.793 L84.344,181.592 L74.344,191.592 L25.34,191.592 L25.34,175.793" style="stroke:#000;stroke-width:1.5;" fill="#EEE"/><rect x="25.34" y="175.793" width="1097.741" height="621.977" fill="none" style="stroke:#000;stroke-width:1.5;"/><text x="40.34" y="188.049" fill="#000" font-size="12" textLength="14.004" font-weight="700" font-family="Arial">alt</text><text x="99.344" y="189.049" fill="#000" font-size="12" textLength="86.678" font-weight="700" font-family="Arial">[jest (trafienie)]</text><polygon points="727.621,217.391,737.621,221.391,727.621,225.391,731.621,221.391" fill="#181818" style="stroke:#181818;stroke-width:1;stroke-linejoin:miter;stroke-miterlimit:10;"/><line x1="502.85" y1="221.391" x2="733.621" y2="221.391" style="stroke:#181818;stroke-width:1;stroke-dasharray:2,2;"/><text x="509.85" y="216.848" fill="#000" font-size="12" font-weight="700" font-family="Arial">5</text><text x="520.523" y="216.848" fill="#000" font-size="12" textLength="48.68" font-family="Arial">wskaźnik</text><text x="569.203" y="216.848" fill="#000" font-size="12" font-family="Arial"> </text><text x="572.537" y="216.848" fill="#000" font-size="12" font-family="Arial">w</text><text x="581.203" y="216.848" fill="#000" font-size="12" font-family="Arial"> </text><text x="584.537" y="216.848" fill="#000" font-size="12" textLength="36.674" font-family="Arial">ramce,</text><text x="621.211" y="216.848" fill="#000" font-size="12" font-family="Arial"> </text><text x="624.545" y="216.848" fill="#000" font-size="12" textLength="12.674" font-family="Arial">bit</text><text x="637.219" y="216.848" fill="#000" font-size="12" font-family="Arial"> </text><text x="640.553" y="216.848" fill="#000" font-size="12" textLength="34.014" font-family="Arial">użycia</text><line x1="739.621" y1="249.189" x2="781.621" y2="249.189" style="stroke:#181818;stroke-width:1;"/><line x1="781.621" y1="249.189" x2="781.621" y2="262.189" style="stroke:#181818;stroke-width:1;"/><line x1="740.621" y1="262.189" x2="781.621" y2="262.189" style="stroke:#181818;stroke-width:1;"/><polygon points="750.621,258.189,740.621,262.189,750.621,266.189,746.621,262.189" fill="#181818" style="stroke:#181818;stroke-width:1;stroke-linejoin:miter;stroke-miterlimit:10;"/><text x="746.621" y="244.646" fill="#000" font-size="12" font-weight="700" font-family="Arial">6</text><text x="757.295" y="244.646" fill="#000" font-size="12" textLength="10.67" font-family="Arial">r0</text><text x="767.965" y="244.646" fill="#000" font-size="12" font-family="Arial"> </text><text x="771.299" y="244.646" fill="#000" font-size="12" font-family="Arial">=</text><text x="778.307" y="244.646" fill="#000" font-size="12" font-family="Arial"> </text><text x="781.641" y="244.646" fill="#000" font-size="12" textLength="30.68" font-family="Arial">słowo</text><text x="812.32" y="244.646" fill="#000" font-size="12" font-family="Arial"> </text><text x="815.654" y="244.646" fill="#000" font-size="12" font-family="Arial">z</text><text x="821.654" y="244.646" fill="#000" font-size="12" font-family="Arial"> </text><text x="824.988" y="244.646" fill="#000" font-size="12" textLength="32.666" font-family="Arial">ramki,</text><text x="857.654" y="244.646" fill="#000" font-size="12" font-family="Arial"> </text><text x="860.988" y="244.646" fill="#000" font-size="12" textLength="16.67" font-family="Arial">PC</text><text x="877.658" y="244.646" fill="#000" font-size="12" font-family="Arial"> </text><text x="880.992" y="244.646" fill="#000" font-size="12" textLength="14.016" font-family="Arial">+=</text><text x="895.008" y="244.646" fill="#000" font-size="12" font-family="Arial"> </text><text x="898.342" y="244.646" fill="#000" font-size="12" textLength="10.008" font-family="Arial">4,</text><text x="908.35" y="244.646" fill="#000" font-size="12" font-family="Arial"> </text><text x="911.684" y="244.646" fill="#000" font-size="12" textLength="22.014" font-family="Arial">blok</text><text x="933.697" y="244.646" fill="#000" font-size="12" font-family="Arial"> </text><text x="937.031" y="244.646" fill="#000" font-size="12" textLength="10.664" font-family="Arial">IT</text><text x="947.695" y="244.646" fill="#000" font-size="12" font-family="Arial"> </text><text x="951.029" y="244.646" fill="#000" font-size="12" textLength="25.354" font-family="Arial">dalej</text><polygon points="52.34,285.988,42.34,289.988,52.34,293.988,48.34,289.988" fill="#181818" style="stroke:#181818;stroke-width:1;stroke-linejoin:miter;stroke-miterlimit:10;"/><line x1="46.34" y1="289.988" x2="304.438" y2="289.988" style="stroke:#181818;stroke-width:1;stroke-dasharray:2,2;"/><text x="58.34" y="285.445" fill="#000" font-size="12" font-weight="700" font-family="Arial">7</text><text x="69.014" y="285.445" fill="#000" font-size="12" textLength="36.018" font-family="Arial">powrót</text><text x="105.031" y="285.445" fill="#000" font-size="12" font-family="Arial"> </text><text x="108.365" y="285.445" fill="#000" font-size="12" textLength="12.674" font-family="Arial">za</text><text x="121.039" y="285.445" fill="#000" font-size="12" font-family="Arial"> </text><text x="124.373" y="285.445" fill="#000" font-size="12" textLength="50.684" font-family="Arial">instrukcję</text><text x="175.057" y="285.445" fill="#000" font-size="12" font-family="Arial"> </text><text x="178.391" y="285.445" fill="#000" font-size="12" textLength="20.004" font-family="Arial">(ok.</text><text x="198.395" y="285.445" fill="#000" font-size="12" font-family="Arial"> </text><text x="201.729" y="285.445" fill="#000" font-size="12" font-family="Arial">1</text><text x="208.402" y="285.445" fill="#000" font-size="12" font-family="Arial"> </text><text x="211.736" y="285.445" fill="#000" font-size="12" textLength="16.91" font-family="Arial">µs)</text><line x1="25.34" y1="298.988" x2="1123.081" y2="298.988" style="stroke:#000;stroke-width:1;stroke-dasharray:2,2;"/><text x="30.34" y="312.244" fill="#000" font-size="12" textLength="33.34" font-weight="700" font-family="Arial">[brak]</text><polygon points="727.621,333.586,737.621,337.586,727.621,341.586,731.621,337.586" fill="#181818" style="stroke:#181818;stroke-width:1;stroke-linejoin:miter;stroke-miterlimit:10;"/><line x1="502.85" y1="337.586" x2="733.621" y2="337.586" style="stroke:#181818;stroke-width:1;stroke-dasharray:2,2;"/><text x="509.85" y="333.043" fill="#000" font-size="12" font-weight="700" font-family="Arial">8</text><text x="520.523" y="333.043" fill="#000" font-size="12" textLength="62.678" font-family="Arial">EMU_MISS</text><text x="583.201" y="333.043" fill="#000" font-size="12" font-family="Arial"> </text><text x="586.535" y="333.043" fill="#000" font-size="12" textLength="19.336" font-family="Arial">(nic</text><text x="605.871" y="333.043" fill="#000" font-size="12" font-family="Arial"> </text><text x="609.205" y="333.043" fill="#000" font-size="12" textLength="16.014" font-family="Arial">nie</text><text x="625.219" y="333.043" fill="#000" font-size="12" font-family="Arial"> </text><text x="628.553" y="333.043" fill="#000" font-size="12" textLength="58.693" font-family="Arial">zmienione)</text><polygon points="971.383,361.385,981.383,365.385,971.383,369.385,975.383,365.385" fill="#181818" style="stroke:#181818;stroke-width:1;stroke-linejoin:miter;stroke-miterlimit:10;"/><line x1="502.85" y1="365.385" x2="977.383" y2="365.385" style="stroke:#181818;stroke-width:1;"/><text x="509.85" y="360.842" fill="#000" font-size="12" font-weight="700" font-family="Arial">9</text><text x="520.523" y="360.842" fill="#000" font-size="12" textLength="174.059" font-family="Arial">syscall_enter_fault(TF_PAGEIN)</text><polygon points="971.383,389.184,981.383,393.184,971.383,397.184,975.383,393.184" fill="#181818" style="stroke:#181818;stroke-width:1;stroke-linejoin:miter;stroke-miterlimit:10;"/><line x1="305.438" y1="393.184" x2="977.383" y2="393.184" style="stroke:#181818;stroke-width:1;stroke-dasharray:2,2;"/><text x="312.438" y="388.641" fill="#000" font-size="12" textLength="13.348" font-weight="700" font-family="Arial">10</text><text x="329.785" y="388.641" fill="#000" font-size="12" textLength="36.018" font-family="Arial">powrót</text><text x="365.803" y="388.641" fill="#000" font-size="12" font-family="Arial"> </text><text x="369.137" y="388.641" fill="#000" font-size="12" textLength="13.348" font-family="Arial">do</text><text x="382.484" y="388.641" fill="#000" font-size="12" font-family="Arial"> </text><text x="385.818" y="388.641" fill="#000" font-size="12" textLength="31.348" font-family="Arial">wątku</text><text x="417.166" y="388.641" fill="#000" font-size="12" font-family="Arial"> </text><text x="420.5" y="388.641" fill="#000" font-size="12" font-family="Arial">w</text><text x="429.166" y="388.641" fill="#000" font-size="12" font-family="Arial"> </text><text x="432.5" y="388.641" fill="#000" font-size="12" textLength="29.344" font-family="Arial">trybie</text><text x="461.844" y="388.641" fill="#000" font-size="12" font-family="Arial"> </text><text x="465.178" y="388.641" fill="#000" font-size="12" textLength="97.365" font-family="Arial">uprzywilejowanym</text><polygon points="513.85,416.982,503.85,420.982,513.85,424.982,509.85,420.982" fill="#181818" style="stroke:#181818;stroke-width:1;stroke-linejoin:miter;stroke-miterlimit:10;"/><line x1="507.85" y1="420.982" x2="982.383" y2="420.982" style="stroke:#181818;stroke-width:1;"/><text x="519.85" y="416.439" fill="#000" font-size="12" textLength="13.348" font-weight="700" font-family="Arial">11</text><text x="537.197" y="416.439" fill="#000" font-size="12" textLength="141.398" font-family="Arial">vmem_pagein_call(adres):</text><text x="678.596" y="416.439" fill="#000" font-size="12" font-family="Arial"> </text><text x="681.93" y="416.439" fill="#000" font-size="12" textLength="38.678" font-family="Arial">muteks</text><line x1="502.85" y1="448.781" x2="544.85" y2="448.781" style="stroke:#181818;stroke-width:1;"/><line x1="544.85" y1="448.781" x2="544.85" y2="461.781" style="stroke:#181818;stroke-width:1;"/><line x1="503.85" y1="461.781" x2="544.85" y2="461.781" style="stroke:#181818;stroke-width:1;"/><polygon points="513.85,457.781,503.85,461.781,513.85,465.781,509.85,461.781" fill="#181818" style="stroke:#181818;stroke-width:1;stroke-linejoin:miter;stroke-miterlimit:10;"/><text x="509.85" y="444.238" fill="#000" font-size="12" textLength="13.348" font-weight="700" font-family="Arial">12</text><text x="527.197" y="444.238" fill="#000" font-size="12" textLength="65.355" font-family="Arial">frame_get():</text><text x="592.553" y="444.238" fill="#000" font-size="12" font-family="Arial"> </text><text x="595.887" y="444.238" fill="#000" font-size="12" textLength="33.352" font-family="Arial">zegar,</text><text x="629.238" y="444.238" fill="#000" font-size="12" font-family="Arial"> </text><text x="632.572" y="444.238" fill="#000" font-size="12" textLength="33.34" font-family="Arial">ramka</text><text x="665.912" y="444.238" fill="#000" font-size="12" font-family="Arial"> </text><text x="669.246" y="444.238" fill="#000" font-size="12" textLength="63.375" font-family="Arial">nieużywana</text><path d="M486.85,473.781 L550.506,473.781 L550.506,479.58 L540.506,489.58 L486.85,489.58 L486.85,473.781" style="stroke:#000;stroke-width:1.5;" fill="#EEE"/><rect x="486.85" y="473.781" width="611.231" height="53.598" fill="none" style="stroke:#000;stroke-width:1.5;"/><text x="501.85" y="486.037" fill="#000" font-size="12" textLength="18.656" font-weight="700" font-family="Arial">opt</text><text x="565.506" y="487.037" fill="#000" font-size="12" textLength="105.363" font-weight="700" font-family="Arial">[ramka zmieniona]</text><polygon points="1070.081,515.379,1080.081,519.379,1070.081,523.379,1074.081,519.379" fill="#181818" style="stroke:#181818;stroke-width:1;stroke-linejoin:miter;stroke-miterlimit:10;"/><line x1="502.85" y1="519.379" x2="1076.081" y2="519.379" style="stroke:#181818;stroke-width:1;"/><text x="509.85" y="514.836" fill="#000" font-size="12" textLength="13.348" font-weight="700" font-family="Arial">13</text><text x="527.197" y="514.836" fill="#000" font-size="12" textLength="28.014" font-family="Arial">zapis</text><text x="555.211" y="514.836" fill="#000" font-size="12" font-family="Arial"> </text><text x="558.545" y="514.836" fill="#000" font-size="12" textLength="32.678" font-family="Arial">strony</text><text x="591.223" y="514.836" fill="#000" font-size="12" font-family="Arial"> </text><text x="594.557" y="514.836" fill="#000" font-size="12" textLength="10.67" font-family="Arial">(8</text><text x="605.227" y="514.836" fill="#000" font-size="12" font-family="Arial"> </text><text x="608.561" y="514.836" fill="#000" font-size="12" textLength="41.35" font-family="Arial">bloków)</text><text x="649.91" y="514.836" fill="#000" font-size="12" font-family="Arial"> </text><text x="653.244" y="514.836" fill="#000" font-size="12" textLength="13.348" font-family="Arial">do</text><text x="666.592" y="514.836" fill="#000" font-size="12" font-family="Arial"> </text><text x="669.926" y="514.836" fill="#000" font-size="12" textLength="24.68" font-family="Arial">pliku</text><text x="694.605" y="514.836" fill="#000" font-size="12" font-family="Arial"> </text><text x="697.939" y="514.836" fill="#000" font-size="12" textLength="28.014" font-family="Arial">swap</text><path d="M486.85,545.379 L545.854,545.379 L545.854,551.178 L535.854,561.178 L486.85,561.178 L486.85,545.379" style="stroke:#000;stroke-width:1.5;" fill="#EEE"/><rect x="486.85" y="545.379" width="611.231" height="114.195" fill="none" style="stroke:#000;stroke-width:1.5;"/><text x="501.85" y="557.635" fill="#000" font-size="12" textLength="14.004" font-weight="700" font-family="Arial">alt</text><text x="560.854" y="558.635" fill="#000" font-size="12" textLength="88.67" font-weight="700" font-family="Arial">[strona w pliku]</text><polygon points="1070.081,586.977,1080.081,590.977,1070.081,594.977,1074.081,590.977" fill="#181818" style="stroke:#181818;stroke-width:1;stroke-linejoin:miter;stroke-miterlimit:10;"/><line x1="502.85" y1="590.977" x2="1076.081" y2="590.977" style="stroke:#181818;stroke-width:1;"/><text x="509.85" y="586.434" fill="#000" font-size="12" textLength="13.348" font-weight="700" font-family="Arial">14</text><text x="527.197" y="586.434" fill="#000" font-size="12" textLength="34.682" font-family="Arial">odczyt</text><text x="561.879" y="586.434" fill="#000" font-size="12" font-family="Arial"> </text><text x="565.213" y="586.434" fill="#000" font-size="12" textLength="32.678" font-family="Arial">strony</text><text x="597.891" y="586.434" fill="#000" font-size="12" font-family="Arial"> </text><text x="601.225" y="586.434" fill="#000" font-size="12" textLength="13.348" font-family="Arial">do</text><text x="614.572" y="586.434" fill="#000" font-size="12" font-family="Arial"> </text><text x="617.906" y="586.434" fill="#000" font-size="12" textLength="29.332" font-family="Arial">ramki</text><line x1="486.85" y1="599.977" x2="1098.081" y2="599.977" style="stroke:#000;stroke-width:1;stroke-dasharray:2,2;"/><text x="491.85" y="613.232" fill="#000" font-size="12" textLength="111.352" font-weight="700" font-family="Arial">[nigdy niezapisana]</text><line x1="502.85" y1="638.574" x2="544.85" y2="638.574" style="stroke:#181818;stroke-width:1;"/><line x1="544.85" y1="638.574" x2="544.85" y2="651.574" style="stroke:#181818;stroke-width:1;"/><line x1="503.85" y1="651.574" x2="544.85" y2="651.574" style="stroke:#181818;stroke-width:1;"/><polygon points="513.85,647.574,503.85,651.574,513.85,655.574,509.85,651.574" fill="#181818" style="stroke:#181818;stroke-width:1;stroke-linejoin:miter;stroke-miterlimit:10;"/><text x="509.85" y="634.031" fill="#000" font-size="12" textLength="13.348" font-weight="700" font-family="Arial">15</text><text x="527.197" y="634.031" fill="#000" font-size="12" textLength="33.34" font-family="Arial">ramka</text><text x="560.537" y="634.031" fill="#000" font-size="12" font-family="Arial"> </text><text x="563.871" y="634.031" fill="#000" font-size="12" textLength="66.697" font-family="Arial">wyzerowana</text><line x1="502.85" y1="693.373" x2="544.85" y2="693.373" style="stroke:#181818;stroke-width:1;"/><line x1="544.85" y1="693.373" x2="544.85" y2="706.373" style="stroke:#181818;stroke-width:1;"/><line x1="503.85" y1="706.373" x2="544.85" y2="706.373" style="stroke:#181818;stroke-width:1;"/><polygon points="513.85,702.373,503.85,706.373,513.85,710.373,509.85,706.373" fill="#181818" style="stroke:#181818;stroke-width:1;stroke-linejoin:miter;stroke-miterlimit:10;"/><text x="509.85" y="688.83" fill="#000" font-size="12" textLength="13.348" font-weight="700" font-family="Arial">16</text><text x="527.197" y="688.83" fill="#000" font-size="12" textLength="63.363" font-family="Arial">map[strona]</text><text x="590.561" y="688.83" fill="#000" font-size="12" font-family="Arial"> </text><text x="593.895" y="688.83" fill="#000" font-size="12" font-family="Arial">=</text><text x="600.902" y="688.83" fill="#000" font-size="12" font-family="Arial"> </text><text x="604.236" y="688.83" fill="#000" font-size="12" textLength="33.34" font-family="Arial">ramka</text><text x="637.576" y="688.83" fill="#000" font-size="12" font-family="Arial"> </text><text x="640.91" y="688.83" fill="#000" font-size="12" textLength="49.342" font-family="Arial">(irq_lock)</text><polygon points="52.34,730.172,42.34,734.172,52.34,738.172,48.34,734.172" fill="#181818" style="stroke:#181818;stroke-width:1;stroke-linejoin:miter;stroke-miterlimit:10;"/><line x1="46.34" y1="734.172" x2="982.383" y2="734.172" style="stroke:#181818;stroke-width:1;stroke-dasharray:2,2;"/><text x="58.34" y="729.629" fill="#000" font-size="12" textLength="13.348" font-weight="700" font-family="Arial">17</text><text x="75.688" y="729.629" fill="#000" font-size="12" textLength="24.674" font-family="Arial">SVC</text><text x="100.361" y="729.629" fill="#000" font-size="12" font-family="Arial"> </text><text x="103.695" y="729.629" fill="#000" font-size="12" textLength="16.682" font-family="Arial">#1:</text><text x="120.377" y="729.629" fill="#000" font-size="12" font-family="Arial"> </text><text x="123.711" y="729.629" fill="#000" font-size="12" textLength="36.018" font-family="Arial">powrót</text><text x="159.729" y="729.629" fill="#000" font-size="12" font-family="Arial"> </text><text x="163.063" y="729.629" fill="#000" font-size="12" textLength="13.348" font-family="Arial">do</text><text x="176.41" y="729.629" fill="#000" font-size="12" font-family="Arial"> </text><text x="179.744" y="729.629" fill="#000" font-size="12" textLength="12.674" font-family="Arial">tej</text><text x="192.418" y="729.629" fill="#000" font-size="12" font-family="Arial"> </text><text x="195.752" y="729.629" fill="#000" font-size="12" textLength="32.01" font-family="Arial">samej</text><text x="227.762" y="729.629" fill="#000" font-size="12" font-family="Arial"> </text><text x="231.096" y="729.629" fill="#000" font-size="12" textLength="50.01" font-family="Arial">instrukcji,</text><text x="281.105" y="729.629" fill="#000" font-size="12" font-family="Arial"> </text><text x="284.439" y="729.629" fill="#000" font-size="12" textLength="34.014" font-family="Arial">R0/R1</text><text x="318.453" y="729.629" fill="#000" font-size="12" font-family="Arial"> </text><text x="321.787" y="729.629" fill="#000" font-size="12" textLength="19.348" font-family="Arial">bez</text><text x="341.135" y="729.629" fill="#000" font-size="12" font-family="Arial"> </text><text x="344.469" y="729.629" fill="#000" font-size="12" textLength="32.01" font-family="Arial">zmian</text><polygon points="293.438,757.971,303.438,761.971,293.438,765.971,297.438,761.971" fill="#181818" style="stroke:#181818;stroke-width:1;stroke-linejoin:miter;stroke-miterlimit:10;"/><line x1="41.34" y1="761.971" x2="299.438" y2="761.971" style="stroke:#181818;stroke-width:1;"/><text x="48.34" y="757.428" fill="#000" font-size="12" textLength="13.348" font-weight="700" font-family="Arial">18</text><text x="65.688" y="757.428" fill="#000" font-size="12" textLength="13.336" font-family="Arial">ldr</text><text x="79.023" y="757.428" fill="#000" font-size="12" font-family="Arial"> </text><text x="82.357" y="757.428" fill="#000" font-size="12" textLength="14.004" font-family="Arial">r0,</text><text x="96.361" y="757.428" fill="#000" font-size="12" font-family="Arial"> </text><text x="99.695" y="757.428" fill="#000" font-size="12" textLength="17.338" font-family="Arial">[r5,</text><text x="117.033" y="757.428" fill="#000" font-size="12" font-family="Arial"> </text><text x="120.367" y="757.428" fill="#000" font-size="12" textLength="16.682" font-family="Arial">#8]</text><text x="137.049" y="757.428" fill="#000" font-size="12" font-family="Arial"> </text><text x="140.383" y="757.428" fill="#000" font-size="12" textLength="51.375" font-family="Arial">ponownie</text><polygon points="52.34,785.77,42.34,789.77,52.34,793.77,48.34,789.77" fill="#181818" style="stroke:#181818;stroke-width:1;stroke-linejoin:miter;stroke-miterlimit:10;"/><line x1="46.34" y1="789.77" x2="304.438" y2="789.77" style="stroke:#181818;stroke-width:1;stroke-dasharray:2,2;"/><text x="58.34" y="785.227" fill="#000" font-size="12" textLength="13.348" font-weight="700" font-family="Arial">19</text><text x="75.688" y="785.227" fill="#000" font-size="12" textLength="42.691" font-family="Arial">trafienie</text><?plantuml-src TLJ1Jjj04BtdAwPmSTGqE58hKIIeAaWg50L51781P6tMIxJnUjVTNTVOnqfy1D-1UgbwAk6_Ecix3gx09oVptinxCozvnoKLQSYWtzypDXTzdiQYGrAhP1elcEuaH5jEUKAaXPr4gwKcyRNqA1qa8ZNT7I06fctKXCKJ8icI8UwMfCBsQP9Ko54R-IDciIkMjNcxnk9K4CkQyh1TpjRtbaLGAqglPGQhzNse2rQYnsrqX1y8p4vAHJRG90kugYJDJZg0pnG-7C483a246hJVWolzgGUx-pS0dd_tsVVzEtmEGBCbLn9yc4mlkoLpv9XpP3etGMdOwpP054YPIR-KqBc33X5Qcmi8nQBngaR3JQC4T-TQ6AkL993X5p5VFr0EYGerlXIIhQgEH5XOCMF1ivhSSYOvgvhLu-fvcOd8ys_98so6wwAi1mjk8Nt-arDE6i9meq_xS0Zc-QVA51IE4V4UJ8_X_I5yHAfG4PnUG4W4MpNaKJbjwlIhJ3yzMYW8S8acqeYkrW_WgQWF0_ZxorGIcJ0C5ff4hmWUJYw3oUbi1fxa5D0L5B5pfsJRtn6C4MroGuaG0PEMwVe45wDW-lNRyFIi-v_2yGk5eG8Nf2Z5lLYTBt1EckWYppWwKncHUTomnwqxknjn6RYn7WarCtYlECL8chOyHxZ51R9WoSfS56n9TA_SAN76t0rmqFO8Ah5rTMDvMslQpawmRq4IRggKvE3jbtTvUiowpbOYEBeo6KaQCfDXy-voiusNmxunGuMqoErc23Okmx3jwMue-JBCdPTI47bDhrj3PIhB2wPLo_5BOGqw9ibLfV06irXnFQw_1qBHgFloAdNgPlDZs1sqRclP2WpkVhND8URutDyx7y225Mx1H3QjtluBI9HK6Vfx9UlDpwvJE_a7?></g></svg>