<svg xmlns="http://www.w3.org/2000/svg" xmlns:xlink="http://www.w3.org/1999/xlink" version="1.1" data-diagram-type="SEQUENCE" style="width:800px;height:775px;background:#FFFFFF;" width="800px" height="775px" viewBox="0 0 800 775" zoomAndPan="magnify" preserveAspectRatio="none" contentStyleType="text/css"><?plantuml 1.2026.8?><defs/><g font-family="sans-serif" lengthAdjust="spacing"><rect x="168.402" y="261.592" width="612.006" height="109.195" fill="none" style="stroke:#000;stroke-width:1.5;"/><g><title>u.ytkownik</title><rect x="38.844" y="83.799" width="8" height="606.775" fill="#000" fill-opacity="0"/><line x1="42.344" y1="83.799" x2="42.344" y2="690.574" style="stroke:#181818;stroke-width:0.5;stroke-dasharray:5,5;"/></g><g><title>terminal .UART . getty . term.</title><rect x="180.902" y="83.799" width="8" height="606.775" fill="#000" fill-opacity="0"/><line x1="184.402" y1="83.799" x2="184.402" y2="690.574" style="stroke:#181818;stroke-width:0.5;stroke-dasharray:5,5;"/></g><g><title>sh</title><rect x="512.746" y="83.799" width="8" height="606.775" fill="#000" fill-opacity="0"/><line x1="516.246" y1="83.799" x2="516.246" y2="690.574" style="stroke:#181818;stroke-width:0.5;stroke-dasharray:5,5;"/></g><g><title>plik</title><rect x="760.908" y="83.799" width="8" height="606.775" fill="#000" fill-opacity="0"/><line x1="764.408" y1="83.799" x2="764.408" y2="690.574" style="stroke:#181818;stroke-width:0.5;stroke-dasharray:5,5;"/></g><text x="10" y="81.256" fill="#000" font-size="12" textLength="58.688" font-family="Arial">użytkownik</text><ellipse cx="42.344" cy="18.5" rx="8" ry="8" fill="#E2E2F0" style="stroke:#181818;stroke-width:0.5;"/><path d="M42.344,26.5 L42.344,53.5 M29.344,34.5 L55.344,34.5 M42.344,53.5 L29.344,68.5 M42.344,53.5 L55.344,68.5" style="stroke:#181818;stroke-width:0.5;" fill="none"/><rect x="99.057" y="55" width="170.691" height="27.799" fill="#E2E2F0" style="stroke:#181818;stroke-width:0.5;" rx="2.5" ry="2.5"/><text x="106.057" y="73.256" fill="#000" font-size="12" textLength="156.691" font-family="Arial">terminal (UART / getty / term)</text><rect x="502.909" y="55" width="26.674" height="27.799" fill="#E2E2F0" style="stroke:#181818;stroke-width:0.5;" rx="2.5" ry="2.5"/><text x="509.909" y="73.256" fill="#000" font-size="12" textLength="12.674" font-family="Arial">sh</text><rect x="748.405" y="55" width="32.006" height="27.799" fill="#E2E2F0" style="stroke:#181818;stroke-width:0.5;" rx="2.5" ry="2.5"/><text x="755.405" y="73.256" fill="#000" font-size="12" textLength="18.006" font-family="Arial">plik</text><text x="10" y="701.83" fill="#000" font-size="12" textLength="58.688" font-family="Arial">użytkownik</text><ellipse cx="42.344" cy="712.873" rx="8" ry="8" fill="#E2E2F0" style="stroke:#181818;stroke-width:0.5;"/><path d="M42.344,720.873 L42.344,747.873 M29.344,728.873 L55.344,728.873 M42.344,747.873 L29.344,762.873 M42.344,747.873 L55.344,762.873" style="stroke:#181818;stroke-width:0.5;" fill="none"/><rect x="99.057" y="690.574" width="170.691" height="27.799" fill="#E2E2F0" style="stroke:#181818;stroke-width:0.5;" rx="2.5" ry="2.5"/><text x="106.057" y="708.83" fill="#000" font-size="12" textLength="156.691" font-family="Arial">terminal (UART / getty / term)</text><rect x="502.909" y="690.574" width="26.674" height="27.799" fill="#E2E2F0" style="stroke:#181818;stroke-width:0.5;" rx="2.5" ry="2.5"/><text x="509.909" y="708.83" fill="#000" font-size="12" textLength="12.674" font-family="Arial">sh</text><rect x="748.405" y="690.574" width="32.006" height="27.799" fill="#E2E2F0" style="stroke:#181818;stroke-width:0.5;" rx="2.5" ry="2.5"/><text x="755.405" y="708.83" fill="#000" font-size="12" textLength="18.006" font-family="Arial">plik</text><polygon points="172.402,107.598,182.402,111.598,172.402,115.598,176.402,111.598" fill="#181818" style="stroke:#181818;stroke-width:1;stroke-linejoin:miter;stroke-miterlimit:10;"/><line x1="42.344" y1="111.598" x2="178.402" y2="111.598" style="stroke:#181818;stroke-width:1;"/><text x="49.344" y="107.055" fill="#000" font-size="12" font-weight="700" font-family="Arial">1</text><text x="60.018" y="107.055" fill="#000" font-size="12" textLength="16.008" font-family="Arial">cat</text><text x="76.025" y="107.055" fill="#000" font-size="12" font-family="Arial"> </text><text x="79.359" y="107.055" fill="#000" font-size="12" textLength="56.027" font-family="Arial">/dev/mtd1,</text><text x="135.387" y="107.055" fill="#000" font-size="12" font-family="Arial"> </text><text x="138.721" y="107.055" fill="#000" font-size="12" textLength="28.682" font-family="Arial">Enter</text><polygon points="504.246,135.396,514.246,139.396,504.246,143.396,508.246,139.396" fill="#181818" style="stroke:#181818;stroke-width:1;stroke-linejoin:miter;stroke-miterlimit:10;"/><line x1="184.402" y1="139.396" x2="510.246" y2="139.396" style="stroke:#181818;stroke-width:1;"/><text x="191.402" y="134.854" fill="#000" font-size="12" font-weight="700" font-family="Arial">2</text><text x="202.076" y="134.854" fill="#000" font-size="12" textLength="34.002" font-family="Arial">wiersz</text><text x="236.078" y="134.854" fill="#000" font-size="12" font-family="Arial"> </text><text x="239.412" y="134.854" fill="#000" font-size="12" textLength="52.031" font-family="Arial">(edit_line,</text><text x="291.443" y="134.854" fill="#000" font-size="12" font-family="Arial"> </text><text x="294.777" y="134.854" fill="#000" font-size="12" textLength="20.004" font-family="Arial">tryb</text><text x="314.781" y="134.854" fill="#000" font-size="12" font-family="Arial"> </text><text x="318.115" y="134.854" fill="#000" font-size="12" textLength="42.006" font-family="Arial">surowy)</text><polygon points="195.402,163.195,185.402,167.195,195.402,171.195,191.402,167.195" fill="#181818" style="stroke:#181818;stroke-width:1;stroke-linejoin:miter;stroke-miterlimit:10;"/><line x1="189.402" y1="167.195" x2="515.246" y2="167.195" style="stroke:#181818;stroke-width:1;"/><text x="201.402" y="162.652" fill="#000" font-size="12" font-weight="700" font-family="Arial">3</text><text x="212.076" y="162.652" fill="#000" font-size="12" textLength="170.689" font-family="Arial">TTY_IOC_SET_MODE(CANON</text><text x="382.766" y="162.652" fill="#000" font-size="12" font-family="Arial"> </text><text x="386.1" y="162.652" fill="#000" font-size="12" font-family="Arial">|</text><text x="389.217" y="162.652" fill="#000" font-size="12" font-family="Arial"> </text><text x="392.551" y="162.652" fill="#000" font-size="12" textLength="38.666" font-family="Arial">ECHO)</text><line x1="516.246" y1="194.994" x2="558.246" y2="194.994" style="stroke:#181818;stroke-width:1;"/><line x1="558.246" y1="194.994" x2="558.246" y2="207.994" style="stroke:#181818;stroke-width:1;"/><line x1="517.246" y1="207.994" x2="558.246" y2="207.994" style="stroke:#181818;stroke-width:1;"/><polygon points="527.246,203.994,517.246,207.994,527.246,211.994,523.246,207.994" fill="#181818" style="stroke:#181818;stroke-width:1;stroke-linejoin:miter;stroke-miterlimit:10;"/><text x="523.246" y="190.451" fill="#000" font-size="12" font-weight="700" font-family="Arial">4</text><text x="533.92" y="190.451" fill="#000" font-size="12" textLength="68.719" font-family="Arial">run_pipeline:</text><text x="602.639" y="190.451" fill="#000" font-size="12" font-family="Arial"> </text><text x="605.973" y="190.451" fill="#000" font-size="12" textLength="29.344" font-family="Arial">same</text><text x="635.316" y="190.451" fill="#000" font-size="12" font-family="Arial"> </text><text x="638.65" y="190.451" fill="#000" font-size="12" textLength="51.375" font-family="Arial">polecenia</text><text x="690.025" y="190.451" fill="#000" font-size="12" font-family="Arial"> </text><text x="693.359" y="190.451" fill="#000" font-size="12" textLength="64.049" font-family="Arial">wbudowane</text><polygon points="195.402,245.592,185.402,249.592,195.402,253.592,191.402,249.592" fill="#181818" style="stroke:#181818;stroke-width:1;stroke-linejoin:miter;stroke-miterlimit:10;"/><line x1="189.402" y1="249.592" x2="515.246" y2="249.592" style="stroke:#181818;stroke-width:1;"/><text x="201.402" y="238.149" fill="#000" font-size="12" font-weight="700" font-family="Arial">5</text><text x="212.076" y="231.25" fill="#000" font-size="12" textLength="63.352" font-family="Arial">watch(true):</text><text x="275.428" y="231.25" fill="#000" font-size="12" font-family="Arial"> </text><text x="278.762" y="231.25" fill="#000" font-size="12" textLength="141.357" font-family="Arial">TTY_IOC_SET_MODE(0),</text><text x="212.076" y="245.049" fill="#000" font-size="12" textLength="83.355" font-family="Arial">O_NONBLOCK</text><path d="M168.402,261.592 L238.727,261.592 L238.727,267.391 L228.727,277.391 L168.402,277.391 L168.402,261.592" style="stroke:#000;stroke-width:1.5;" fill="#EEE"/><rect x="168.402" y="261.592" width="612.006" height="109.195" fill="none" style="stroke:#000;stroke-width:1.5;"/><text x="183.402" y="273.848" fill="#000" font-size="12" textLength="25.324" font-weight="700" font-family="Arial">loop</text><text x="253.727" y="274.848" fill="#000" font-size="12" textLength="134.039" font-weight="700" font-family="Arial">[copy_stream: co 4 KB]</text><polygon points="752.408,303.189,762.408,307.189,752.408,311.189,756.408,307.189" fill="#181818" style="stroke:#181818;stroke-width:1;stroke-linejoin:miter;stroke-miterlimit:10;"/><line x1="516.246" y1="307.189" x2="758.408" y2="307.189" style="stroke:#181818;stroke-width:1;"/><text x="523.246" y="302.646" fill="#000" font-size="12" font-weight="700" font-family="Arial">6</text><text x="533.92" y="302.646" fill="#000" font-size="12" textLength="27.352" font-family="Arial">fread</text><polygon points="195.402,330.988,185.402,334.988,195.402,338.988,191.402,334.988" fill="#181818" style="stroke:#181818;stroke-width:1;stroke-linejoin:miter;stroke-miterlimit:10;"/><line x1="189.402" y1="334.988" x2="515.246" y2="334.988" style="stroke:#181818;stroke-width:1;"/><text x="201.402" y="330.445" fill="#000" font-size="12" font-weight="700" font-family="Arial">7</text><text x="212.076" y="330.445" fill="#000" font-size="12" textLength="28.67" font-family="Arial">fwrite</text><text x="240.746" y="330.445" fill="#000" font-size="12" font-family="Arial"> </text><text x="244.08" y="330.445" fill="#000" font-size="12" textLength="34.688" font-family="Arial">(dane)</text><polygon points="195.402,358.787,185.402,362.787,195.402,366.787,191.402,362.787" fill="#181818" style="stroke:#181818;stroke-width:1;stroke-linejoin:miter;stroke-miterlimit:10;"/><line x1="189.402" y1="362.787" x2="515.246" y2="362.787" style="stroke:#181818;stroke-width:1;"/><text x="201.402" y="358.244" fill="#000" font-size="12" font-weight="700" font-family="Arial">8</text><text x="212.076" y="358.244" fill="#000" font-size="12" textLength="68.695" font-family="Arial">interrupted():</text><text x="280.771" y="358.244" fill="#000" font-size="12" font-family="Arial"> </text><text x="284.105" y="358.244" fill="#000" font-size="12" textLength="36.68" font-family="Arial">poll(0),</text><text x="320.785" y="358.244" fill="#000" font-size="12" font-family="Arial"> </text><text x="324.119" y="358.244" fill="#000" font-size="12" textLength="24.018" font-family="Arial">read</text><polygon points="172.402,400.586,182.402,404.586,172.402,408.586,176.402,404.586" fill="#181818" style="stroke:#181818;stroke-width:1;stroke-linejoin:miter;stroke-miterlimit:10;"/><line x1="42.344" y1="404.586" x2="178.402" y2="404.586" style="stroke:#181818;stroke-width:1;"/><text x="49.344" y="400.043" fill="#000" font-size="12" font-weight="700" font-family="Arial">9</text><text x="60.018" y="400.043" fill="#000" font-size="12" textLength="31.324" font-family="Arial">Ctrl-C</text><path d="M189.402,417.586 L189.402,454.586 L380.402,454.586 L380.402,427.586 L370.402,417.586 L189.402,417.586" style="stroke:#B8A04A;stroke-width:0.5;" fill="#FFFBE6"/><path d="M370.402,417.586 L370.402,427.586 L380.402,427.586 L370.402,417.586" style="stroke:#B8A04A;stroke-width:0.5;" fill="#FFFBE6"/><text x="195.402" y="433.842" fill="#000" font-size="12" textLength="170.725" font-family="Arial">tryb surowy: terminal nie kończy</text><text x="195.402" y="447.641" fill="#000" font-size="12" textLength="146.092" font-family="Arial">procesu, tylko podaje bajt 3</text><polygon points="504.246,475.982,514.246,479.982,504.246,483.982,508.246,479.982" fill="#181818" style="stroke:#181818;stroke-width:1;stroke-linejoin:miter;stroke-miterlimit:10;"/><line x1="184.402" y1="479.982" x2="510.246" y2="479.982" style="stroke:#181818;stroke-width:1;"/><text x="191.402" y="475.439" fill="#000" font-size="12" textLength="13.348" font-weight="700" font-family="Arial">10</text><text x="208.75" y="475.439" fill="#000" font-size="12" textLength="19.348" font-family="Arial">bajt</text><text x="228.098" y="475.439" fill="#000" font-size="12" font-family="Arial"> </text><text x="231.432" y="475.439" fill="#000" font-size="12" font-family="Arial">3</text><line x1="516.246" y1="507.781" x2="558.246" y2="507.781" style="stroke:#181818;stroke-width:1;"/><line x1="558.246" y1="507.781" x2="558.246" y2="520.781" style="stroke:#181818;stroke-width:1;"/><line x1="517.246" y1="520.781" x2="558.246" y2="520.781" style="stroke:#181818;stroke-width:1;"/><polygon points="527.246,516.781,517.246,520.781,527.246,524.781,523.246,520.781" fill="#181818" style="stroke:#181818;stroke-width:1;stroke-linejoin:miter;stroke-miterlimit:10;"/><text x="523.246" y="503.238" fill="#000" font-size="12" textLength="13.348" font-weight="700" font-family="Arial">11</text><text x="540.594" y="503.238" fill="#000" font-size="12" textLength="29.344" font-family="Arial">s_intr</text><text x="569.938" y="503.238" fill="#000" font-size="12" font-family="Arial"> </text><text x="573.271" y="503.238" fill="#000" font-size="12" font-family="Arial">=</text><text x="580.279" y="503.238" fill="#000" font-size="12" font-family="Arial"> </text><text x="583.613" y="503.238" fill="#000" font-size="12" textLength="20.678" font-family="Arial">true</text><polygon points="195.402,544.58,185.402,548.58,195.402,552.58,191.402,548.58" fill="#181818" style="stroke:#181818;stroke-width:1;stroke-linejoin:miter;stroke-miterlimit:10;"/><line x1="189.402" y1="548.58" x2="515.246" y2="548.58" style="stroke:#181818;stroke-width:1;"/><text x="201.402" y="544.037" fill="#000" font-size="12" textLength="13.348" font-weight="700" font-family="Arial">12</text><text x="218.75" y="544.037" fill="#000" font-size="12" textLength="32.824" font-family="Arial">"^C\n"</text><line x1="516.246" y1="590.178" x2="558.246" y2="590.178" style="stroke:#181818;stroke-width:1;"/><line x1="558.246" y1="590.178" x2="558.246" y2="603.178" style="stroke:#181818;stroke-width:1;"/><line x1="517.246" y1="603.178" x2="558.246" y2="603.178" style="stroke:#181818;stroke-width:1;"/><polygon points="527.246,599.178,517.246,603.178,527.246,607.178,523.246,603.178" fill="#181818" style="stroke:#181818;stroke-width:1;stroke-linejoin:miter;stroke-miterlimit:10;"/><text x="523.246" y="578.735" fill="#000" font-size="12" textLength="13.348" font-weight="700" font-family="Arial">13</text><text x="540.594" y="571.836" fill="#000" font-size="12" textLength="16.008" font-family="Arial">cat</text><text x="556.602" y="571.836" fill="#000" font-size="12" font-family="Arial"> </text><text x="559.936" y="571.836" fill="#000" font-size="12" textLength="37.348" font-family="Arial">kończy</text><text x="597.283" y="571.836" fill="#000" font-size="12" font-family="Arial"> </text><text x="600.617" y="571.836" fill="#000" font-size="12" textLength="15.34" font-family="Arial">się</text><text x="615.957" y="571.836" fill="#000" font-size="12" font-family="Arial"> </text><text x="619.291" y="571.836" fill="#000" font-size="12" textLength="23.344" font-family="Arial">(kod</text><text x="642.635" y="571.836" fill="#000" font-size="12" font-family="Arial"> </text><text x="645.969" y="571.836" fill="#000" font-size="12" textLength="27.352" font-family="Arial">130),</text><text x="540.594" y="585.635" fill="#000" font-size="12" textLength="32.678" font-family="Arial">reszta</text><text x="573.271" y="585.635" fill="#000" font-size="12" font-family="Arial"> </text><text x="576.605" y="585.635" fill="#000" font-size="12" textLength="40.676" font-family="Arial">wiersza</text><text x="617.281" y="585.635" fill="#000" font-size="12" font-family="Arial"> </text><text x="620.615" y="585.635" fill="#000" font-size="12" textLength="52.031" font-family="Arial">pominięta</text><polygon points="195.402,626.977,185.402,630.977,195.402,634.977,191.402,630.977" fill="#181818" style="stroke:#181818;stroke-width:1;stroke-linejoin:miter;stroke-miterlimit:10;"/><line x1="189.402" y1="630.977" x2="515.246" y2="630.977" style="stroke:#181818;stroke-width:1;"/><text x="201.402" y="626.434" fill="#000" font-size="12" textLength="13.348" font-weight="700" font-family="Arial">14</text><text x="218.75" y="626.434" fill="#000" font-size="12" textLength="68.021" font-family="Arial">watch(false):</text><text x="286.771" y="626.434" fill="#000" font-size="12" font-family="Arial"> </text><text x="290.105" y="626.434" fill="#000" font-size="12" textLength="170.689" font-family="Arial">TTY_IOC_SET_MODE(CANON</text><text x="460.795" y="626.434" fill="#000" font-size="12" font-family="Arial"> </text><text x="464.129" y="626.434" fill="#000" font-size="12" font-family="Arial">|</text><text x="467.246" y="626.434" fill="#000" font-size="12" font-family="Arial"> </text><text x="470.58" y="626.434" fill="#000" font-size="12" textLength="38.666" font-family="Arial">ECHO)</text><polygon points="195.402,668.574,185.402,672.574,195.402,676.574,191.402,672.574" fill="#181818" style="stroke:#181818;stroke-width:1;stroke-linejoin:miter;stroke-miterlimit:10;"/><line x1="189.402" y1="672.574" x2="515.246" y2="672.574" style="stroke:#181818;stroke-width:1;"/><text x="201.402" y="661.132" fill="#000" font-size="12" textLength="13.348" font-weight="700" font-family="Arial">15</text><text x="218.75" y="654.232" fill="#000" font-size="12" textLength="28.014" font-family="Arial">nowy</text><text x="246.764" y="654.232" fill="#000" font-size="12" font-family="Arial"> </text><text x="250.098" y="654.232" fill="#000" font-size="12" textLength="25.348" font-family="Arial">znak</text><text x="275.445" y="654.232" fill="#000" font-size="12" font-family="Arial"> </text><text x="278.779" y="654.232" fill="#000" font-size="12" textLength="41.355" font-family="Arial">zachęty</text><text x="320.135" y="654.232" fill="#000" font-size="12" font-family="Arial"> </text><text x="323.469" y="654.232" fill="#000" font-size="12" textLength="52.031" font-family="Arial">(edit_line;</text><text x="375.5" y="654.232" fill="#000" font-size="12" font-family="Arial"> </text><text x="378.834" y="654.232" fill="#000" font-size="12" textLength="45.346" font-family="Arial">klawisze</text><text x="218.75" y="668.031" fill="#000" font-size="12" textLength="44.027" font-family="Arial">wpisane</text><text x="262.777" y="668.031" fill="#000" font-size="12" font-family="Arial"> </text><text x="266.111" y="668.031" fill="#000" font-size="12" font-family="Arial">w</text><text x="274.777" y="668.031" fill="#000" font-size="12" font-family="Arial"> </text><text x="278.111" y="668.031" fill="#000" font-size="12" textLength="35.344" font-family="Arial">trakcie</text><text x="313.455" y="668.031" fill="#000" font-size="12" font-family="Arial"> </text><text x="316.789" y="668.031" fill="#000" font-size="12" font-family="Arial">z</text><text x="322.789" y="668.031" fill="#000" font-size="12" font-family="Arial"> </text><text x="326.123" y="668.031" fill="#000" font-size="12" textLength="50.039" font-family="Arial">s_ahead)</text><?plantuml-src RPB1RjD048RlVeeX9rjg4wfo2WAfDQb0XKOYpW4fmfhOasRhzQwrEyQonP6Nu5quqlTYDagR5ELaQMVc-sV-tw-KANHR4ep74y-z7gksrX6sR4rRhyb5MB1rC6eV__HSsSweQWJeOHarw5WLga73C69ojJAe8LvUVSrW0lV4tCit59BTHFPomczthukNhutUys-Y9Po_XmocK233fAGVavhBYpEO6M56MQWkfDefSdw0c4h5kLQ6pe1TlmRVEjlrIRHumcJPj_pJFCqNiop_ClymYzEhk_aT_8HP-d6-xmj0rvgyKGq5rXGyrWIDrLIGKGZTkYrjXuOEt0wvsCRiMafEYBnEpbPcdelIzUTvUXjfQnieRDFddXrXBUTPU0Etrn703daZo8rKogU7eB7fd6A2k1JbvBYWWXckRPZAMEHbKHqaOGSWKnvSJDdfypGoLZXEtMyPx4OoWMEtfl2Ser44bNtyLGozz3JE5kHRiRRNbHMP4Xy8rlZ0S1ba860FcUmBpvRwNFPqy0w2ImVdHj_JrSgC3dqXwRqeUFNtDyILBU7YScUY8pymxlD6sK4MbHx6_wFOeFOdipWHU9WoSZaC1YiOiDWAiJ_wczv2fR5JVg2LwHhb9G3ev0wi2d5eaDDmArud_m00?></g></svg>