<svg xmlns="http://www.w3.org/2000/svg" xmlns:xlink="http://www.w3.org/1999/xlink" version="1.1" data-diagram-type="SEQUENCE" style="width:997px;height:344px;background:#FFFFFF;" width="997px" height="344px" viewBox="0 0 997 344" zoomAndPan="magnify" preserveAspectRatio="none" contentStyleType="text/css"><?plantuml 1.2026.8?><defs/><g font-family="sans-serif" lengthAdjust="spacing"><g><title>crtos kmon ps</title><rect x="60.185" y="52.598" width="8" height="238.592" fill="#000" fill-opacity="0"/><line x1="63.685" y1="52.598" x2="63.685" y2="291.189" style="stroke:#181818;stroke-width:0.5;stroke-dasharray:5,5;"/></g><g><title>sonda DAPLink</title><rect x="322.97" y="52.598" width="8" height="238.592" fill="#000" fill-opacity="0"/><line x1="326.47" y1="52.598" x2="326.47" y2="291.189" style="stroke:#181818;stroke-width:0.5;stroke-dasharray:5,5;"/></g><g><title>g_swd_chan</title><rect x="434.342" y="52.598" width="8" height="238.592" fill="#000" fill-opacity="0"/><line x1="437.842" y1="52.598" x2="437.842" y2="291.189" style="stroke:#181818;stroke-width:0.5;stroke-dasharray:5,5;"/></g><g><title>w.tek kmon-swd</title><rect x="724.15" y="52.598" width="8" height="238.592" fill="#000" fill-opacity="0"/><line x1="727.65" y1="52.598" x2="727.65" y2="291.189" style="stroke:#181818;stroke-width:0.5;stroke-dasharray:5,5;"/></g><rect x="10" y="10" width="107.369" height="41.598" fill="#E2E2F0" style="stroke:#181818;stroke-width:0.5;" rx="2.5" ry="2.5"/><text x="26.34" y="28.256" fill="#000" font-size="12" textLength="74.689" font-family="Arial">crtos kmon ps</text><text x="17" y="42.055" fill="#000" font-size="12" textLength="93.369" font-family="Arial">(tools/swdcon.py)</text><rect x="265.789" y="10" width="121.361" height="41.598" fill="#E2E2F0" style="stroke:#181818;stroke-width:0.5;" rx="2.5" ry="2.5"/><text x="285.111" y="28.256" fill="#000" font-size="12" textLength="82.717" font-family="Arial">sonda DAPLink</text><text x="272.789" y="42.055" fill="#000" font-size="12" textLength="107.361" font-family="Arial">(SWD, rdzeń działa)</text><rect x="397.15" y="10" width="81.383" height="41.598" fill="#E2E2F0" style="stroke:#181818;stroke-width:0.5;" rx="2.5" ry="2.5"/><text x="404.15" y="28.256" fill="#000" font-size="12" textLength="67.383" font-family="Arial">g_swd_chan</text><text x="416.517" y="42.055" fill="#000" font-size="12" textLength="42.65" font-family="Arial">(DTCM)</text><rect x="675.97" y="10" width="103.361" height="41.598" fill="#E2E2F0" style="stroke:#181818;stroke-width:0.5;" rx="2.5" ry="2.5"/><text x="682.97" y="28.256" fill="#000" font-size="12" textLength="89.361" font-family="Arial">wątek kmon-swd</text><text x="705.309" y="42.055" fill="#000" font-size="12" textLength="44.684" font-family="Arial">(prio 21)</text><rect x="10" y="291.189" width="107.369" height="41.598" fill="#E2E2F0" style="stroke:#181818;stroke-width:0.5;" rx="2.5" ry="2.5"/><text x="26.34" y="309.445" fill="#000" font-size="12" textLength="74.689" font-family="Arial">crtos kmon ps</text><text x="17" y="323.244" fill="#000" font-size="12" textLength="93.369" font-family="Arial">(tools/swdcon.py)</text><rect x="265.789" y="291.189" width="121.361" height="41.598" fill="#E2E2F0" style="stroke:#181818;stroke-width:0.5;" rx="2.5" ry="2.5"/><text x="285.111" y="309.445" fill="#000" font-size="12" textLength="82.717" font-family="Arial">sonda DAPLink</text><text x="272.789" y="323.244" fill="#000" font-size="12" textLength="107.361" font-family="Arial">(SWD, rdzeń działa)</text><rect x="397.15" y="291.189" width="81.383" height="41.598" fill="#E2E2F0" style="stroke:#181818;stroke-width:0.5;" rx="2.5" ry="2.5"/><text x="404.15" y="309.445" fill="#000" font-size="12" textLength="67.383" font-family="Arial">g_swd_chan</text><text x="416.517" y="323.244" fill="#000" font-size="12" textLength="42.65" font-family="Arial">(DTCM)</text><rect x="675.97" y="291.189" width="103.361" height="41.598" fill="#E2E2F0" style="stroke:#181818;stroke-width:0.5;" rx="2.5" ry="2.5"/><text x="682.97" y="309.445" fill="#000" font-size="12" textLength="89.361" font-family="Arial">wątek kmon-swd</text><text x="705.309" y="323.244" fill="#000" font-size="12" textLength="44.684" font-family="Arial">(prio 21)</text><polygon points="314.47,76.396,324.47,80.396,314.47,84.396,318.47,80.396" fill="#181818" style="stroke:#181818;stroke-width:1;stroke-linejoin:miter;stroke-miterlimit:10;"/><line x1="63.685" y1="80.396" x2="320.47" y2="80.396" style="stroke:#181818;stroke-width:1;"/><text x="70.685" y="75.854" fill="#000" font-size="12" font-weight="700" font-family="Arial">1</text><text x="81.358" y="75.854" fill="#000" font-size="12" textLength="34.682" font-family="Arial">odczyt</text><text x="116.04" y="75.854" fill="#000" font-size="12" font-family="Arial"> </text><text x="119.374" y="75.854" fill="#000" font-size="12" textLength="37.992" font-family="Arial">DTCM:</text><text x="157.366" y="75.854" fill="#000" font-size="12" font-family="Arial"> </text><text x="160.7" y="75.854" fill="#000" font-size="12" textLength="47.361" font-family="Arial">szukanie</text><text x="208.062" y="75.854" fill="#000" font-size="12" font-family="Arial"> </text><text x="211.396" y="75.854" fill="#000" font-size="12" textLength="28.676" font-family="Arial">magii</text><text x="240.071" y="75.854" fill="#000" font-size="12" font-family="Arial"> </text><text x="243.405" y="75.854" fill="#000" font-size="12" textLength="66.064" font-family="Arial">0x57535243</text><polygon points="425.842,104.195,435.842,108.195,425.842,112.195,429.842,108.195" fill="#181818" style="stroke:#181818;stroke-width:1;stroke-linejoin:miter;stroke-miterlimit:10;"/><line x1="63.685" y1="108.195" x2="431.842" y2="108.195" style="stroke:#181818;stroke-width:1;"/><text x="70.685" y="103.652" fill="#000" font-size="12" font-weight="700" font-family="Arial">2</text><text x="81.358" y="103.652" fill="#000" font-size="12" textLength="28.014" font-family="Arial">zapis</text><text x="109.372" y="103.652" fill="#000" font-size="12" font-family="Arial"> </text><text x="112.706" y="103.652" fill="#000" font-size="12" textLength="31.201" font-family="Arial">"ps\n"</text><text x="143.907" y="103.652" fill="#000" font-size="12" font-family="Arial"> </text><text x="147.241" y="103.652" fill="#000" font-size="12" textLength="13.348" font-family="Arial">do</text><text x="160.589" y="103.652" fill="#000" font-size="12" font-family="Arial"> </text><text x="163.923" y="103.652" fill="#000" font-size="12" textLength="38.689" font-family="Arial">down[],</text><text x="202.612" y="103.652" fill="#000" font-size="12" font-family="Arial"> </text><text x="205.946" y="103.652" fill="#000" font-size="12" textLength="33.352" font-family="Arial">potem</text><text x="239.298" y="103.652" fill="#000" font-size="12" font-family="Arial"> </text><text x="242.632" y="103.652" fill="#000" font-size="12" textLength="62.057" font-family="Arial">down_head</text><polygon points="448.842,131.994,438.842,135.994,448.842,139.994,444.842,135.994" fill="#181818" style="stroke:#181818;stroke-width:1;stroke-linejoin:miter;stroke-miterlimit:10;"/><line x1="442.842" y1="135.994" x2="726.65" y2="135.994" style="stroke:#181818;stroke-width:1;"/><text x="454.842" y="131.451" fill="#000" font-size="12" font-weight="700" font-family="Arial">3</text><text x="465.516" y="131.451" fill="#000" font-size="12" textLength="62.021" font-family="Arial">swd_getc():</text><text x="527.537" y="131.451" fill="#000" font-size="12" font-family="Arial"> </text><text x="530.871" y="131.451" fill="#000" font-size="12" textLength="62.057" font-family="Arial">down_head</text><text x="592.928" y="131.451" fill="#000" font-size="12" font-family="Arial"> </text><text x="596.262" y="131.451" fill="#000" font-size="12" textLength="10.342" font-family="Arial">!=</text><text x="606.604" y="131.451" fill="#000" font-size="12" font-family="Arial"> </text><text x="609.938" y="131.451" fill="#000" font-size="12" textLength="50.701" font-family="Arial">down_tail</text><text x="660.639" y="131.451" fill="#000" font-size="12" font-family="Arial"> </text><text x="663.973" y="131.451" fill="#000" font-size="12" textLength="16.67" font-family="Arial">(co</text><text x="680.643" y="131.451" fill="#000" font-size="12" font-family="Arial"> </text><text x="683.977" y="131.451" fill="#000" font-size="12" textLength="13.348" font-family="Arial">10</text><text x="697.324" y="131.451" fill="#000" font-size="12" font-family="Arial"> </text><text x="700.658" y="131.451" fill="#000" font-size="12" textLength="19.992" font-family="Arial">ms)</text><line x1="727.65" y1="163.793" x2="769.65" y2="163.793" style="stroke:#181818;stroke-width:1;"/><line x1="769.65" y1="163.793" x2="769.65" y2="176.793" style="stroke:#181818;stroke-width:1;"/><line x1="728.65" y1="176.793" x2="769.65" y2="176.793" style="stroke:#181818;stroke-width:1;"/><polygon points="738.65,172.793,728.65,176.793,738.65,180.793,734.65,176.793" fill="#181818" style="stroke:#181818;stroke-width:1;stroke-linejoin:miter;stroke-miterlimit:10;"/><text x="734.65" y="159.25" fill="#000" font-size="12" font-weight="700" font-family="Arial">4</text><text x="745.324" y="159.25" fill="#000" font-size="12" textLength="46.031" font-family="Arial">readline,</text><text x="791.355" y="159.25" fill="#000" font-size="12" font-family="Arial"> </text><text x="794.689" y="159.25" fill="#000" font-size="12" textLength="54.691" font-family="Arial">split_args,</text><text x="849.381" y="159.25" fill="#000" font-size="12" font-family="Arial"> </text><text x="852.715" y="159.25" fill="#000" font-size="12" textLength="81.211" font-family="Arial">find_cmd("ps"),</text><text x="933.926" y="159.25" fill="#000" font-size="12" font-family="Arial"> </text><text x="937.26" y="159.25" fill="#000" font-size="12" textLength="42.018" font-family="Arial">cmd_ps</text><polygon points="448.842,200.592,438.842,204.592,448.842,208.592,444.842,204.592" fill="#181818" style="stroke:#181818;stroke-width:1;stroke-linejoin:miter;stroke-miterlimit:10;"/><line x1="442.842" y1="204.592" x2="726.65" y2="204.592" style="stroke:#181818;stroke-width:1;"/><text x="454.842" y="200.049" fill="#000" font-size="12" font-weight="700" font-family="Arial">5</text><text x="465.516" y="200.049" fill="#000" font-size="12" textLength="64.676" font-family="Arial">swd_write():</text><text x="530.191" y="200.049" fill="#000" font-size="12" font-family="Arial"> </text><text x="533.525" y="200.049" fill="#000" font-size="12" textLength="26.695" font-family="Arial">dane</text><text x="560.221" y="200.049" fill="#000" font-size="12" font-family="Arial"> </text><text x="563.555" y="200.049" fill="#000" font-size="12" textLength="13.348" font-family="Arial">do</text><text x="576.902" y="200.049" fill="#000" font-size="12" font-family="Arial"> </text><text x="580.236" y="200.049" fill="#000" font-size="12" textLength="23.35" font-family="Arial">up[],</text><text x="603.586" y="200.049" fill="#000" font-size="12" font-family="Arial"> </text><text x="606.92" y="200.049" fill="#000" font-size="12" textLength="26.678" font-family="Arial">dmb,</text><text x="633.598" y="200.049" fill="#000" font-size="12" font-family="Arial"> </text><text x="636.932" y="200.049" fill="#000" font-size="12" textLength="46.717" font-family="Arial">up_head</text><polygon points="425.842,228.391,435.842,232.391,425.842,236.391,429.842,232.391" fill="#181818" style="stroke:#181818;stroke-width:1;stroke-linejoin:miter;stroke-miterlimit:10;"/><line x1="63.685" y1="232.391" x2="431.842" y2="232.391" style="stroke:#181818;stroke-width:1;"/><text x="70.685" y="227.848" fill="#000" font-size="12" font-weight="700" font-family="Arial">6</text><text x="81.358" y="227.848" fill="#000" font-size="12" textLength="34.682" font-family="Arial">odczyt</text><text x="116.04" y="227.848" fill="#000" font-size="12" font-family="Arial"> </text><text x="119.374" y="227.848" fill="#000" font-size="12" textLength="20.016" font-family="Arial">up[]</text><text x="139.39" y="227.848" fill="#000" font-size="12" font-family="Arial"> </text><text x="142.724" y="227.848" fill="#000" font-size="12" textLength="13.348" font-family="Arial">od</text><text x="156.071" y="227.848" fill="#000" font-size="12" font-family="Arial"> </text><text x="159.405" y="227.848" fill="#000" font-size="12" textLength="35.361" font-family="Arial">up_tail</text><text x="194.767" y="227.848" fill="#000" font-size="12" font-family="Arial"> </text><text x="198.101" y="227.848" fill="#000" font-size="12" textLength="13.348" font-family="Arial">do</text><text x="211.448" y="227.848" fill="#000" font-size="12" font-family="Arial"> </text><text x="214.782" y="227.848" fill="#000" font-size="12" textLength="50.051" font-family="Arial">up_head,</text><text x="264.833" y="227.848" fill="#000" font-size="12" font-family="Arial"> </text><text x="268.167" y="227.848" fill="#000" font-size="12" textLength="28.014" font-family="Arial">zapis</text><text x="296.181" y="227.848" fill="#000" font-size="12" font-family="Arial"> </text><text x="299.515" y="227.848" fill="#000" font-size="12" textLength="35.361" font-family="Arial">up_tail</text><line x1="63.685" y1="260.189" x2="105.685" y2="260.189" style="stroke:#181818;stroke-width:1;"/><line x1="105.685" y1="260.189" x2="105.685" y2="273.189" style="stroke:#181818;stroke-width:1;"/><line x1="64.685" y1="273.189" x2="105.685" y2="273.189" style="stroke:#181818;stroke-width:1;"/><polygon points="74.685,269.189,64.685,273.189,74.685,277.189,70.685,273.189" fill="#181818" style="stroke:#181818;stroke-width:1;stroke-linejoin:miter;stroke-miterlimit:10;"/><text x="70.685" y="255.646" fill="#000" font-size="12" font-weight="700" font-family="Arial">7</text><text x="81.358" y="255.646" fill="#000" font-size="12" textLength="30.006" font-family="Arial">wypis</text><text x="111.364" y="255.646" fill="#000" font-size="12" font-family="Arial"> </text><text x="114.698" y="255.646" fill="#000" font-size="12" textLength="13.348" font-family="Arial">do</text><text x="128.046" y="255.646" fill="#000" font-size="12" font-family="Arial"> </text><text x="131.38" y="255.646" fill="#000" font-size="12" textLength="40.611" font-family="Arial">"kmon></text><text x="171.991" y="255.646" fill="#000" font-size="12" font-family="Arial"> </text><text x="175.325" y="255.646" fill="#000" font-size="12" font-family="Arial">"</text><?plantuml-src LP3VIiCm58Vl-nHdlMgXTlySmi21R1U3AGmKl71IiYPseMqIafJQNeg-cNilJvkf579nalDzoUzan4LQL9H178-DROgOLsNXaSfAKPL7fZr5jEKfLqHOy5DjfO6yb0AKEOZ0IbcOiQbfAaMicj07Oc0xT8mKbC3cRd_FHOxEu_Cc0arRTlu4sd9o_Y3Esm-zBC5xa_H414gRf_M3ezP3glx-iYpl8rqXZwZINC9iwkYTjuMh5UnX2PAcRMEXksa9fgro8ZY3acISm-HzSREOBsRNSyUlaM-9uWPydFCWVA0ILorUNYDGqhAotoKdHgYt-pMwl1cpQH0k_zimkdKRItW1GIfXEe7IX4xReQQHAhXW4HXLS9iGdPa8thZ0wKiQO08_Z03BH9dXOxNcblMl4S6wY9Ng0jBo667fqltDSvc_Gx3k-dsYtkhHw3BofUFCBPfrqnqZw7VVl0B_1m00?></g></svg>