<svg xmlns="http://www.w3.org/2000/svg" xmlns:xlink="http://www.w3.org/1999/xlink" version="1.1" data-diagram-type="STATE" style="width:609px;height:335px;background:#FFFFFF;" width="609px" height="335px" viewBox="0 0 609 335" zoomAndPan="magnify" preserveAspectRatio="none" contentStyleType="text/css"><?plantuml 1.2026.8?><defs/><g font-family="sans-serif" lengthAdjust="spacing"><g class="start_entity" data-qualified-name=".start." id="ent0001" data-source-line="2"><ellipse cx="147.627" cy="22" rx="10" ry="10" fill="#222" style="stroke:#222;stroke-width:1;"/></g><g class="entity" data-qualified-name="LOADED" id="ent0002" data-source-line="2"><rect x="113.127" y="89" width="69.348" height="50" fill="#F2F6FC" style="stroke:#181818;stroke-width:0.5;" rx="12.5" ry="12.5"/><line x1="113.127" y1="112.799" x2="182.475" y2="112.799" style="stroke:#181818;stroke-width:0.5;"/><text x="123.127" y="105.256" fill="#000" font-size="12" textLength="49.348" font-family="Arial">LOADED</text></g><g class="entity" data-qualified-name="BUSY" id="ent0005" data-source-line="4"><rect x="54.127" y="192" width="52.678" height="50" fill="#F2F6FC" style="stroke:#181818;stroke-width:0.5;" rx="12.5" ry="12.5"/><line x1="54.127" y1="215.799" x2="106.805" y2="215.799" style="stroke:#181818;stroke-width:0.5;"/><text x="64.127" y="208.256" fill="#000" font-size="12" textLength="32.678" font-family="Arial">BUSY</text></g><g class="entity" data-qualified-name="GOING" id="ent0008" data-source-line="6"><rect x="243.627" y="192" width="60.002" height="50" fill="#F2F6FC" style="stroke:#181818;stroke-width:0.5;" rx="12.5" ry="12.5"/><line x1="243.627" y1="215.799" x2="303.629" y2="215.799" style="stroke:#181818;stroke-width:0.5;"/><text x="253.627" y="208.256" fill="#000" font-size="12" textLength="40.002" font-family="Arial">GOING</text></g><g class="end_entity" data-qualified-name=".end." id="ent0010" data-source-line="7"><ellipse cx="273.627" cy="306" rx="11" ry="11" fill="none" style="stroke:#222;stroke-width:1;"/><ellipse cx="273.627" cy="306" rx="6" ry="6" fill="#222" style="stroke:#222;stroke-width:1;"/></g><g class="link" data-entity-1="ent0001" data-entity-2="ent0002" id="lnk3" data-link-type="dependency"><polygon points="147.627,88.666,151.627,79.666,147.627,83.666,143.627,79.666,147.627,88.666" fill="#181818" style="stroke:#181818;stroke-width:1;stroke-linejoin:miter;stroke-miterlimit:10;"/><path d="M147.627,36.145 C147.627,49.28 147.627,66.49 147.627,83.666" style="stroke:#181818;stroke-width:1;" fill="none"/><text x="149.627" y="67.256" fill="#000" font-size="12" textLength="68.719" font-family="Arial">module_load</text><text x="218.346" y="67.256" fill="#000" font-size="12" font-family="Arial"> </text><text x="221.68" y="67.256" fill="#000" font-size="12" textLength="17.338" font-family="Arial">OK</text></g><g class="link" data-entity-1="ent0002" data-entity-2="ent0002" id="lnk4" data-link-type="dependency"><polygon points="182.213,123.347,191.337,127.057,187.211,123.187,191.081,119.061,182.213,123.347" fill="#181818" style="stroke:#181818;stroke-width:1;stroke-linejoin:miter;stroke-miterlimit:10;"/><path d="M182.213,104.653 C192.308,104.976 200.127,108.092 200.127,114 C200.127,119.908 197.305,122.864 187.211,123.187" style="stroke:#181818;stroke-width:1;" fill="none"/><text x="202.127" y="118.756" fill="#000" font-size="12" textLength="93.404" font-family="Arial">module_get_addr</text><text x="295.531" y="118.756" fill="#000" font-size="12" font-family="Arial"> </text><text x="298.865" y="118.756" fill="#000" font-size="12" textLength="22.002" font-family="Arial">(plik</text><text x="320.867" y="118.756" fill="#000" font-size="12" font-family="Arial"> </text><text x="324.201" y="118.756" fill="#000" font-size="12" textLength="42.012" font-family="Arial">otwarty,</text><text x="366.213" y="118.756" fill="#000" font-size="12" font-family="Arial"> </text><text x="369.547" y="118.756" fill="#000" font-size="12" textLength="38.016" font-family="Arial">refs++)</text><text x="407.563" y="118.756" fill="#000" font-size="12" font-family="Arial"> </text><text x="410.897" y="118.756" fill="#000" font-size="12" font-family="Arial">/</text><text x="414.231" y="118.756" fill="#000" font-size="12" font-family="Arial"> </text><text x="417.565" y="118.756" fill="#000" font-size="12" textLength="62.713" font-family="Arial">module_put</text></g><g class="link" data-entity-1="ent0002" data-entity-2="ent0005" id="lnk6" data-link-type="dependency"><polygon points="54.063,205.901,47.464,198.59,49.494,203.87,44.214,205.9,54.063,205.901" fill="#181818" style="stroke:#181818;stroke-width:1;stroke-linejoin:miter;stroke-miterlimit:10;"/><path d="M113.122,115.25 C81.746,117.544 37.028,126.435 14.627,157 C0,176.958 25.307,193.118 49.494,203.87" style="stroke:#181818;stroke-width:1;" fill="none"/><text x="16.627" y="170.256" fill="#000" font-size="12" textLength="37.336" font-family="Arial">rmmod</text><text x="53.963" y="170.256" fill="#000" font-size="12" font-family="Arial"> </text><text x="57.297" y="170.256" fill="#000" font-size="12" textLength="22.67" font-family="Arial">przy</text><text x="79.967" y="170.256" fill="#000" font-size="12" font-family="Arial"> </text><text x="83.301" y="170.256" fill="#000" font-size="12" textLength="20.004" font-family="Arial">refs</text><text x="103.305" y="170.256" fill="#000" font-size="12" font-family="Arial"> </text><text x="106.639" y="170.256" fill="#000" font-size="12" font-family="Arial">></text><text x="113.647" y="170.256" fill="#000" font-size="12" font-family="Arial"> </text><text x="116.981" y="170.256" fill="#000" font-size="12" font-family="Arial">0</text></g><g class="link" data-entity-1="ent0005" data-entity-2="ent0002" id="lnk7" data-link-type="dependency"><polygon points="141.4,139.172,134.859,146.535,139.883,143.936,142.482,148.961,141.4,139.172" fill="#181818" style="stroke:#181818;stroke-width:1;stroke-linejoin:miter;stroke-miterlimit:10;"/><path d="M107.525,194.711 C114.087,188.556 120.645,181.467 125.627,174 C132.665,163.451 136.326,155.113 139.883,143.936" style="stroke:#181818;stroke-width:1;" fill="none"/><text x="136.627" y="170.256" fill="#000" font-size="12" textLength="44.678" font-family="Arial">-EBUSY</text><text x="181.305" y="170.256" fill="#000" font-size="12" font-family="Arial"> </text><text x="184.639" y="170.256" fill="#000" font-size="12" textLength="51.357" font-family="Arial">zwrócone</text></g><g class="link" data-entity-1="ent0002" data-entity-2="ent0008" id="lnk9" data-link-type="dependency"><polygon points="264.816,191.782,264.784,181.933,262.77,187.22,257.484,185.206,264.816,191.782" fill="#181818" style="stroke:#181818;stroke-width:1;stroke-linejoin:miter;stroke-miterlimit:10;"/><path d="M182.49,124.497 C201.707,131.119 224.971,141.576 241.627,157 C251.887,166.501 257.514,175.496 262.77,187.22" style="stroke:#181818;stroke-width:1;" fill="none"/><text x="257.627" y="170.256" fill="#000" font-size="12" textLength="37.336" font-family="Arial">rmmod</text><text x="294.963" y="170.256" fill="#000" font-size="12" font-family="Arial"> </text><text x="298.297" y="170.256" fill="#000" font-size="12" textLength="22.67" font-family="Arial">przy</text><text x="320.967" y="170.256" fill="#000" font-size="12" font-family="Arial"> </text><text x="324.301" y="170.256" fill="#000" font-size="12" textLength="20.004" font-family="Arial">refs</text><text x="344.305" y="170.256" fill="#000" font-size="12" font-family="Arial"> </text><text x="347.639" y="170.256" fill="#000" font-size="12" textLength="14.016" font-family="Arial">==</text><text x="361.655" y="170.256" fill="#000" font-size="12" font-family="Arial"> </text><text x="364.989" y="170.256" fill="#000" font-size="12" font-family="Arial">0</text><text x="371.662" y="170.256" fill="#000" font-size="12" font-family="Arial"> </text><text x="374.996" y="170.256" fill="#000" font-size="12" textLength="33.357" font-family="Arial">(going</text><text x="408.354" y="170.256" fill="#000" font-size="12" font-family="Arial"> </text><text x="411.688" y="170.256" fill="#000" font-size="12" font-family="Arial">=</text><text x="418.696" y="170.256" fill="#000" font-size="12" font-family="Arial"> </text><text x="422.03" y="170.256" fill="#000" font-size="12" textLength="24.674" font-family="Arial">true)</text></g><g class="link" data-entity-1="ent0008" data-entity-2="ent0010" id="lnk11" data-link-type="dependency"><polygon points="273.627,294.586,277.627,285.586,273.627,289.586,269.627,285.586,273.627,294.586" fill="#181818" style="stroke:#181818;stroke-width:1;stroke-linejoin:miter;stroke-miterlimit:10;"/><path d="M273.627,242.046 C273.627,259.145 273.627,276.344 273.627,289.586" style="stroke:#181818;stroke-width:1;" fill="none"/><text x="275.627" y="273.256" fill="#000" font-size="12" textLength="30" font-family="Arial">exit(),</text><text x="305.627" y="273.256" fill="#000" font-size="12" font-family="Arial"> </text><text x="308.961" y="273.256" fill="#000" font-size="12" textLength="132.732" font-family="Arial">driver_unregister_owner,</text><text x="441.694" y="273.256" fill="#000" font-size="12" font-family="Arial"> </text><text x="445.028" y="273.256" fill="#000" font-size="12" textLength="62.689" font-family="Arial">destruktory,</text><text x="507.717" y="273.256" fill="#000" font-size="12" font-family="Arial"> </text><text x="511.051" y="273.256" fill="#000" font-size="12" textLength="60.047" font-family="Arial">drop_deps,</text><text x="571.098" y="273.256" fill="#000" font-size="12" font-family="Arial"> </text><text x="574.432" y="273.256" fill="#000" font-size="12" textLength="26.678" font-family="Arial">kfree</text></g><?plantuml-src RO_1IiD048RlUOhVMsAJjET22afB4SKSn8E8XD2TXYMRx3AxQqnVoqVmnTn4XGgz3VD__pVCbUmFoWj2dY-j6rKkVQUYr-itPDa63-NDThV56fqMNb6bT2rGtaU_-qj8GwwgXM34HiaMsWqrkp45qz4k5WcMVw3nxjnp-_pq4YpSXHY6J-FSm0QhQ8x-tSfsy-uqyDVdGVTqBjgNTu_x2wQYm0fnesNVe81ZJqdqmqwjwUCrw4EwE4aXMBuJLxvdQgHrOTH3Jnm2ig7PEitZH6bJ2J8sHNjaecy0?></g></svg>