<svg xmlns="http://www.w3.org/2000/svg" xmlns:xlink="http://www.w3.org/1999/xlink" version="1.1" data-diagram-type="STATE" style="width:619px;height:438px;background:#FFFFFF;" width="619px" height="438px" viewBox="0 0 619 438" zoomAndPan="magnify" preserveAspectRatio="none" contentStyleType="text/css"><?plantuml 1.2026.8?><defs/><g font-family="sans-serif" lengthAdjust="spacing"><g class="start_entity" data-qualified-name=".start." id="ent0001" data-source-line="2"><ellipse cx="205.251" cy="22" rx="10" ry="10" fill="#222" style="stroke:#222;stroke-width:1;"/></g><g class="entity" data-qualified-name="DEV_UNBOUND" id="ent0002" data-source-line="2"><rect x="149.251" y="89" width="112.016" height="50" fill="#F2F6FC" style="stroke:#181818;stroke-width:0.5;" rx="12.5" ry="12.5"/><line x1="149.251" y1="112.799" x2="261.267" y2="112.799" style="stroke:#181818;stroke-width:0.5;"/><text x="159.251" y="105.256" fill="#000" font-size="12" textLength="92.016" font-family="Arial">DEV_UNBOUND</text></g><g class="entity" data-qualified-name="DEV_BOUND" id="ent0004" data-source-line="3"><rect x="146.751" y="295" width="94.684" height="50" fill="#F2F6FC" style="stroke:#181818;stroke-width:0.5;" rx="12.5" ry="12.5"/><line x1="146.751" y1="318.799" x2="241.435" y2="318.799" style="stroke:#181818;stroke-width:0.5;"/><text x="156.751" y="311.256" fill="#000" font-size="12" textLength="74.684" font-family="Arial">DEV_BOUND</text></g><g class="entity" data-qualified-name="DEV_DEFERRED" id="ent0006" data-source-line="4"><rect x="79.751" y="192" width="117.354" height="50" fill="#F2F6FC" style="stroke:#181818;stroke-width:0.5;" rx="12.5" ry="12.5"/><line x1="79.751" y1="215.799" x2="197.105" y2="215.799" style="stroke:#181818;stroke-width:0.5;"/><text x="89.751" y="208.256" fill="#000" font-size="12" textLength="97.354" font-family="Arial">DEV_DEFERRED</text></g><g class="entity" data-qualified-name="DEV_FAILED" id="ent0008" data-source-line="5"><rect x="233.751" y="192" width="93.359" height="50" fill="#F2F6FC" style="stroke:#181818;stroke-width:0.5;" rx="12.5" ry="12.5"/><line x1="233.751" y1="215.799" x2="327.111" y2="215.799" style="stroke:#181818;stroke-width:0.5;"/><text x="243.751" y="208.256" fill="#000" font-size="12" textLength="73.359" font-family="Arial">DEV_FAILED</text></g><g class="end_entity" data-qualified-name=".end." id="ent0013" data-source-line="9"><ellipse cx="194.251" cy="409" rx="11" ry="11" fill="none" style="stroke:#222;stroke-width:1;"/><ellipse cx="194.251" cy="409" rx="6" ry="6" fill="#222" style="stroke:#222;stroke-width:1;"/></g><g class="link" data-entity-1="ent0001" data-entity-2="ent0002" id="lnk3" data-link-type="dependency"><polygon points="205.251,88.666,209.251,79.666,205.251,83.666,201.251,79.666,205.251,88.666" fill="#181818" style="stroke:#181818;stroke-width:1;stroke-linejoin:miter;stroke-miterlimit:10;"/><path d="M205.251,36.145 C205.251,49.28 205.251,66.49 205.251,83.666" style="stroke:#181818;stroke-width:1;" fill="none"/><text x="207.251" y="67.256" fill="#000" font-size="12" textLength="99.387" font-family="Arial">device_create_of()</text></g><g class="link" data-entity-1="ent0002" data-entity-2="ent0004" id="lnk5" data-link-type="dependency"><polygon points="146.526,313.03,138.436,307.412,141.615,312.092,136.935,315.27,146.526,313.03" fill="#181818" style="stroke:#181818;stroke-width:1;stroke-linejoin:miter;stroke-miterlimit:10;"/><path d="M148.95,121.06 C104.386,129.15 44.883,148.019 15.251,192 C2.835,210.43 3.031,223.44 15.251,242 C44.18,285.936 99.098,303.969 141.615,312.092" style="stroke:#181818;stroke-width:1;" fill="none"/><text x="17.251" y="221.756" fill="#000" font-size="12" textLength="30.691" font-family="Arial">probe</text><text x="47.943" y="221.756" fill="#000" font-size="12" font-family="Arial"> </text><text x="51.277" y="221.756" fill="#000" font-size="12" font-family="Arial">=</text><text x="58.284" y="221.756" fill="#000" font-size="12" font-family="Arial"> </text><text x="61.618" y="221.756" fill="#000" font-size="12" font-family="Arial">0</text></g><g class="link" data-entity-1="ent0002" data-entity-2="ent0006" id="lnk7" data-link-type="dependency"><polygon points="122.107,191.831,121.843,181.986,119.955,187.318,114.622,185.43,122.107,191.831" fill="#181818" style="stroke:#181818;stroke-width:1;stroke-linejoin:miter;stroke-miterlimit:10;"/><path d="M148.943,131.862 C137.564,137.936 127.027,146.095 120.251,157 C113.695,167.552 114.624,176.142 119.955,187.318" style="stroke:#181818;stroke-width:1;" fill="none"/><text x="122.251" y="170.256" fill="#000" font-size="12" textLength="30.691" font-family="Arial">probe</text><text x="152.943" y="170.256" fill="#000" font-size="12" font-family="Arial"> </text><text x="156.277" y="170.256" fill="#000" font-size="12" font-family="Arial">=</text><text x="163.284" y="170.256" fill="#000" font-size="12" font-family="Arial"> </text><text x="166.618" y="170.256" fill="#000" font-size="12" textLength="101.355" font-family="Arial">-EPROBE_DEFER</text></g><g class="link" data-entity-1="ent0002" data-entity-2="ent0008" id="lnk9" data-link-type="dependency"><polygon points="280.046,191.973,283.152,182.627,279.56,186.997,275.19,183.405,280.046,191.973" fill="#181818" style="stroke:#181818;stroke-width:1;stroke-linejoin:miter;stroke-miterlimit:10;"/><path d="M252.264,139.235 C258.775,144.334 264.76,150.251 269.251,157 C276.063,167.236 278.446,175.594 279.56,186.997" style="stroke:#181818;stroke-width:1;" fill="none"/><text x="279.251" y="170.256" fill="#000" font-size="12" textLength="30.691" font-family="Arial">probe</text><text x="309.943" y="170.256" fill="#000" font-size="12" font-family="Arial"> </text><text x="313.277" y="170.256" fill="#000" font-size="12" font-family="Arial">&lt;</text><text x="320.284" y="170.256" fill="#000" font-size="12" font-family="Arial"> </text><text x="323.618" y="170.256" fill="#000" font-size="12" font-family="Arial">0</text><text x="330.292" y="170.256" fill="#000" font-size="12" font-family="Arial"> </text><text x="333.626" y="170.256" fill="#000" font-size="12" textLength="26.01" font-family="Arial">(inny</text><text x="359.636" y="170.256" fill="#000" font-size="12" font-family="Arial"> </text><text x="362.97" y="170.256" fill="#000" font-size="12" textLength="26.684" font-family="Arial">błąd)</text></g><g class="link" data-entity-1="ent0006" data-entity-2="ent0004" id="lnk10" data-link-type="dependency"><polygon points="146.347,303.827,140.167,296.159,141.899,301.544,136.514,303.277,146.347,303.827" fill="#181818" style="stroke:#181818;stroke-width:1;stroke-linejoin:miter;stroke-miterlimit:10;"/><path d="M119.079,242.116 C112.719,253.156 108.739,266.163 115.251,277 C122.372,288.85 129.641,295.254 141.899,301.544" style="stroke:#181818;stroke-width:1;" fill="none"/><text x="117.251" y="273.256" fill="#000" font-size="12" textLength="78.703" font-family="Arial">retry_deferred,</text><text x="195.954" y="273.256" fill="#000" font-size="12" font-family="Arial"> </text><text x="199.288" y="273.256" fill="#000" font-size="12" textLength="30.691" font-family="Arial">probe</text><text x="229.98" y="273.256" fill="#000" font-size="12" font-family="Arial"> </text><text x="233.314" y="273.256" fill="#000" font-size="12" font-family="Arial">=</text><text x="240.322" y="273.256" fill="#000" font-size="12" font-family="Arial"> </text><text x="243.656" y="273.256" fill="#000" font-size="12" font-family="Arial">0</text></g><g class="link" data-entity-1="ent0008" data-entity-2="ent0004" id="lnk11" data-link-type="dependency"><polygon points="233.404,294.834,242.96,292.448,237.345,291.757,238.037,286.142,233.404,294.834" fill="#181818" style="stroke:#181818;stroke-width:1;stroke-linejoin:miter;stroke-miterlimit:10;"/><path d="M271.952,242.271 C267.309,253.599 260.732,266.799 252.251,277 C246.847,283.501 244.162,286.434 237.345,291.757" style="stroke:#181818;stroke-width:1;" fill="none"/><text x="265.251" y="273.256" fill="#000" font-size="12" textLength="28.014" font-family="Arial">nowy</text><text x="293.265" y="273.256" fill="#000" font-size="12" font-family="Arial"> </text><text x="296.599" y="273.256" fill="#000" font-size="12" textLength="47.361" font-family="Arial">pasujący</text><text x="343.96" y="273.256" fill="#000" font-size="12" font-family="Arial"> </text><text x="347.294" y="273.256" fill="#000" font-size="12" textLength="50.684" font-family="Arial">sterownik</text></g><g class="link" data-entity-1="ent0004" data-entity-2="ent0002" id="lnk12" data-link-type="dependency"><polygon points="261.665,120.114,270.144,125.125,266.632,120.691,271.066,117.179,261.665,120.114" fill="#181818" style="stroke:#181818;stroke-width:1;stroke-linejoin:miter;stroke-miterlimit:10;"/><path d="M241.928,316.243 C297.19,311.935 383.259,301.409 403.251,277 C437.12,235.648 430.31,197.348 395.251,157 C377.968,137.11 316.161,126.441 266.632,120.691" style="stroke:#181818;stroke-width:1;" fill="none"/><text x="427.251" y="221.756" fill="#000" font-size="12" textLength="90.041" font-family="Arial">driver_unregister</text><text x="517.292" y="221.756" fill="#000" font-size="12" font-family="Arial"> </text><text x="520.626" y="221.756" fill="#000" font-size="12" textLength="47.344" font-family="Arial">(remove,</text><text x="567.97" y="221.756" fill="#000" font-size="12" font-family="Arial"> </text><text x="571.304" y="221.756" fill="#000" font-size="12" textLength="40.014" font-family="Arial">devres)</text></g><g class="link" data-entity-1="ent0004" data-entity-2="ent0013" id="lnk14" data-link-type="dependency"><polygon points="194.251,397.586,198.251,388.586,194.251,392.586,190.251,388.586,194.251,397.586" fill="#181818" style="stroke:#181818;stroke-width:1;stroke-linejoin:miter;stroke-miterlimit:10;"/><path d="M194.251,345.046 C194.251,362.145 194.251,379.344 194.251,392.586" style="stroke:#181818;stroke-width:1;" fill="none"/><text x="196.251" y="376.256" fill="#000" font-size="12" textLength="80.713" font-family="Arial">device_destroy</text></g><?plantuml-src RP31Qi9054Nt-OhNNImckfQsKCa81L49s4qfWsQkPTeu8sycaTaM_3FxNoLORGXPltCUbtEdJL5M2fIc8-T3cUfgNqPlz--K94-KYLUvNaoNwqL64rAeTG5PC3OUqkxYGTG6hi8LFx3TWXvft4jbOYRoNBJ1HApovLHSJhtIxFbbtb8UQ4onDYRGzkVxV5ANFRVFtK4Cpq4gxC0CDUmC_FlTbOmz1ZfiNFLvFXM1d0VRez5VqJ_KKufr3PQLONpeHg6OiRSrXar4XXjqz2RuBR22ysp3Bm00?></g></svg>