<svg xmlns="http://www.w3.org/2000/svg" xmlns:xlink="http://www.w3.org/1999/xlink" version="1.1" data-diagram-type="SEQUENCE" style="width:541px;height:376px;background:#FFFFFF;" width="541px" height="376px" viewBox="0 0 541 376" zoomAndPan="magnify" preserveAspectRatio="none" contentStyleType="text/css"><?plantuml 1.2026.8?><defs/><g font-family="sans-serif" lengthAdjust="spacing"><rect x="267.109" y="147.195" width="254.053" height="138.195" fill="none" style="stroke:#000;stroke-width:1.5;"/><rect x="286.109" y="217.793" width="210.053" height="53.598" fill="none" style="stroke:#000;stroke-width:1.5;"/><g><title>SW8 .GPIO5_IO00.</title><rect x="66.85" y="38.799" width="8" height="298.391" fill="#000" fill-opacity="0"/><line x1="70.35" y1="38.799" x2="70.35" y2="337.189" style="stroke:#181818;stroke-width:0.5;stroke-dasharray:5,5;"/></g><g><title>key_irq</title><rect x="212.248" y="38.799" width="8" height="298.391" fill="#000" fill-opacity="0"/><line x1="215.748" y1="38.799" x2="215.748" y2="337.189" style="stroke:#181818;stroke-width:0.5;stroke-dasharray:5,5;"/></g><g><title>w.tek gpio-keys</title><rect x="298.609" y="38.799" width="8" height="298.391" fill="#000" fill-opacity="0"/><line x1="302.109" y1="38.799" x2="302.109" y2="337.189" style="stroke:#181818;stroke-width:0.5;stroke-dasharray:5,5;"/></g><g><title>S04 input</title><rect x="476.662" y="38.799" width="8" height="298.391" fill="#000" fill-opacity="0"/><line x1="480.162" y1="38.799" x2="480.162" y2="337.189" style="stroke:#181818;stroke-width:0.5;stroke-dasharray:5,5;"/></g><rect x="10" y="10" width="120.699" height="27.799" fill="#E2E2F0" style="stroke:#181818;stroke-width:0.5;" rx="2.5" ry="2.5"/><text x="17" y="28.256" fill="#000" font-size="12" textLength="106.699" font-family="Arial">SW8 (GPIO5_IO00)</text><rect x="189.406" y="10" width="52.684" height="27.799" fill="#E2E2F0" style="stroke:#181818;stroke-width:0.5;" rx="2.5" ry="2.5"/><text x="196.406" y="28.256" fill="#000" font-size="12" textLength="38.684" font-family="Arial">key_irq</text><rect x="252.09" y="10" width="100.039" height="27.799" fill="#E2E2F0" style="stroke:#181818;stroke-width:0.5;" rx="2.5" ry="2.5"/><text x="259.09" y="28.256" fill="#000" font-size="12" textLength="86.039" font-family="Arial">wątek gpio-keys</text><rect x="447.809" y="10" width="64.707" height="27.799" fill="#E2E2F0" style="stroke:#181818;stroke-width:0.5;" rx="2.5" ry="2.5"/><text x="454.809" y="28.256" fill="#000" font-size="12" textLength="50.707" font-family="Arial">S04 input</text><rect x="10" y="337.189" width="120.699" height="27.799" fill="#E2E2F0" style="stroke:#181818;stroke-width:0.5;" rx="2.5" ry="2.5"/><text x="17" y="355.445" fill="#000" font-size="12" textLength="106.699" font-family="Arial">SW8 (GPIO5_IO00)</text><rect x="189.406" y="337.189" width="52.684" height="27.799" fill="#E2E2F0" style="stroke:#181818;stroke-width:0.5;" rx="2.5" ry="2.5"/><text x="196.406" y="355.445" fill="#000" font-size="12" textLength="38.684" font-family="Arial">key_irq</text><rect x="252.09" y="337.189" width="100.039" height="27.799" fill="#E2E2F0" style="stroke:#181818;stroke-width:0.5;" rx="2.5" ry="2.5"/><text x="259.09" y="355.445" fill="#000" font-size="12" textLength="86.039" font-family="Arial">wątek gpio-keys</text><rect x="447.809" y="337.189" width="64.707" height="27.799" fill="#E2E2F0" style="stroke:#181818;stroke-width:0.5;" rx="2.5" ry="2.5"/><text x="454.809" y="355.445" fill="#000" font-size="12" textLength="50.707" font-family="Arial">S04 input</text><polygon points="203.748,62.598,213.748,66.598,203.748,70.598,207.748,66.598" fill="#181818" style="stroke:#181818;stroke-width:1;stroke-linejoin:miter;stroke-miterlimit:10;"/><line x1="70.35" y1="66.598" x2="209.748" y2="66.598" style="stroke:#181818;stroke-width:1;"/><text x="77.35" y="62.055" fill="#000" font-size="12" font-weight="700" font-family="Arial">1</text><text x="88.023" y="62.055" fill="#000" font-size="12" textLength="38.021" font-family="Arial">zbocze</text><text x="126.045" y="62.055" fill="#000" font-size="12" font-family="Arial"> </text><text x="129.379" y="62.055" fill="#000" font-size="12" textLength="24.018" font-family="Arial">(oba</text><text x="153.396" y="62.055" fill="#000" font-size="12" font-family="Arial"> </text><text x="156.73" y="62.055" fill="#000" font-size="12" textLength="42.018" font-family="Arial">zbocza)</text><polygon points="290.109,90.396,300.109,94.396,290.109,98.396,294.109,94.396" fill="#181818" style="stroke:#181818;stroke-width:1;stroke-linejoin:miter;stroke-miterlimit:10;"/><line x1="215.748" y1="94.396" x2="296.109" y2="94.396" style="stroke:#181818;stroke-width:1;"/><text x="222.748" y="89.854" fill="#000" font-size="12" font-weight="700" font-family="Arial">2</text><text x="233.422" y="89.854" fill="#000" font-size="12" textLength="51.357" font-family="Arial">sem_give</text><line x1="302.109" y1="122.195" x2="344.109" y2="122.195" style="stroke:#181818;stroke-width:1;"/><line x1="344.109" y1="122.195" x2="344.109" y2="135.195" style="stroke:#181818;stroke-width:1;"/><line x1="303.109" y1="135.195" x2="344.109" y2="135.195" style="stroke:#181818;stroke-width:1;"/><polygon points="313.109,131.195,303.109,135.195,313.109,139.195,309.109,135.195" fill="#181818" style="stroke:#181818;stroke-width:1;stroke-linejoin:miter;stroke-miterlimit:10;"/><text x="309.109" y="117.652" fill="#000" font-size="12" font-weight="700" font-family="Arial">3</text><text x="319.783" y="117.652" fill="#000" font-size="12" textLength="140.748" font-family="Arial">task_sleep_ms(debounce)</text><path d="M267.109,147.195 L337.434,147.195 L337.434,152.994 L327.434,162.994 L267.109,162.994 L267.109,147.195" style="stroke:#000;stroke-width:1.5;" fill="#EEE"/><rect x="267.109" y="147.195" width="254.053" height="138.195" fill="none" style="stroke:#000;stroke-width:1.5;"/><text x="282.109" y="159.451" fill="#000" font-size="12" textLength="25.324" font-weight="700" font-family="Arial">loop</text><text x="352.434" y="160.451" fill="#000" font-size="12" textLength="56.689" font-weight="700" font-family="Arial">[klawisze]</text><line x1="302.109" y1="192.793" x2="344.109" y2="192.793" style="stroke:#181818;stroke-width:1;"/><line x1="344.109" y1="192.793" x2="344.109" y2="205.793" style="stroke:#181818;stroke-width:1;"/><line x1="303.109" y1="205.793" x2="344.109" y2="205.793" style="stroke:#181818;stroke-width:1;"/><polygon points="313.109,201.793,303.109,205.793,313.109,209.793,309.109,205.793" fill="#181818" style="stroke:#181818;stroke-width:1;stroke-linejoin:miter;stroke-miterlimit:10;"/><text x="309.109" y="188.25" fill="#000" font-size="12" font-weight="700" font-family="Arial">4</text><text x="319.783" y="188.25" fill="#000" font-size="12" textLength="88.078" font-family="Arial">gpiod_get_value</text><path d="M286.109,217.793 L349.766,217.793 L349.766,223.592 L339.766,233.592 L286.109,233.592 L286.109,217.793" style="stroke:#000;stroke-width:1.5;" fill="#EEE"/><rect x="286.109" y="217.793" width="210.053" height="53.598" fill="none" style="stroke:#000;stroke-width:1.5;"/><text x="301.109" y="230.049" fill="#000" font-size="12" textLength="18.656" font-weight="700" font-family="Arial">opt</text><text x="364.766" y="231.049" fill="#000" font-size="12" textLength="84.012" font-weight="700" font-family="Arial">[zmiana stanu]</text><polygon points="468.162,259.391,478.162,263.391,468.162,267.391,472.162,263.391" fill="#181818" style="stroke:#181818;stroke-width:1;stroke-linejoin:miter;stroke-miterlimit:10;"/><line x1="302.109" y1="263.391" x2="474.162" y2="263.391" style="stroke:#181818;stroke-width:1;"/><text x="309.109" y="258.848" fill="#000" font-size="12" font-weight="700" font-family="Arial">5</text><text x="319.783" y="258.848" fill="#000" font-size="12" textLength="46.693" font-family="Arial">EV_KEY</text><text x="366.477" y="258.848" fill="#000" font-size="12" font-family="Arial"> </text><text x="369.811" y="258.848" fill="#000" font-size="12" textLength="26.678" font-family="Arial">(kod,</text><text x="396.488" y="258.848" fill="#000" font-size="12" font-family="Arial"> </text><text x="399.822" y="258.848" fill="#000" font-size="12" textLength="20.678" font-family="Arial">0/1)</text><polygon points="468.162,315.189,478.162,319.189,468.162,323.189,472.162,319.189" fill="#181818" style="stroke:#181818;stroke-width:1;stroke-linejoin:miter;stroke-miterlimit:10;"/><line x1="302.109" y1="319.189" x2="474.162" y2="319.189" style="stroke:#181818;stroke-width:1;"/><text x="309.109" y="314.646" fill="#000" font-size="12" font-weight="700" font-family="Arial">6</text><text x="319.783" y="314.646" fill="#000" font-size="12" textLength="24.674" font-family="Arial">SYN</text><text x="344.457" y="314.646" fill="#000" font-size="12" font-family="Arial"> </text><text x="347.791" y="314.646" fill="#000" font-size="12" textLength="23.344" font-family="Arial">(gdy</text><text x="371.135" y="314.646" fill="#000" font-size="12" font-family="Arial"> </text><text x="374.469" y="314.646" fill="#000" font-size="12" textLength="18.674" font-family="Arial">coś</text><text x="393.143" y="314.646" fill="#000" font-size="12" font-family="Arial"> </text><text x="396.477" y="314.646" fill="#000" font-size="12" textLength="15.34" font-family="Arial">się</text><text x="411.816" y="314.646" fill="#000" font-size="12" font-family="Arial"> </text><text x="415.15" y="314.646" fill="#000" font-size="12" textLength="48.012" font-family="Arial">zmieniło)</text><?plantuml-src NOxFIiD048Vl-nHZJmdOD8A2UF1M90Xfe47fQTaaGnYosLspkot9KV0XnDTftyiaQg4U1eRVzysVArAbz1L25AsiwsL4lfLCUAULRmlic16TevACK0uMszTx29woP7F7aqqSXmiG5h9Bfy6UK_Sse-GI7OuV3Xke3UdbgDdPoV-TY6-1bF5kXYdBOFa82Jp0KEXoG0Xq8Nvw4R9aWla8BRQyfZso_2znmZRSIaJ3MnjKM6YlIWoPrDf08yM1x80Cu3mmVLNn6XtV2-adf8s3eIMX15Wdb1-ZNpyT_VKBVrxl86XqTGtnwYOSCQgAJNMMjhiKWhhgeTIdBx1q_9msegBJkmw_0G00?></g></svg>