<svg xmlns="http://www.w3.org/2000/svg" xmlns:xlink="http://www.w3.org/1999/xlink" version="1.1" data-diagram-type="SEQUENCE" style="width:1223px;height:720px;background:#FFFFFF;" width="1223px" height="720px" viewBox="0 0 1223 720" zoomAndPan="magnify" preserveAspectRatio="none" contentStyleType="text/css"><?plantuml 1.2026.8?><defs/><g font-family="sans-serif" lengthAdjust="spacing"><rect x="705.883" y="419.787" width="497.223" height="236.592" fill="none" style="stroke:#000;stroke-width:1.5;"/><g><title>Boot ROM</title><rect x="41.508" y="38.799" width="8" height="641.58" fill="#000" fill-opacity="0"/><line x1="45.008" y1="38.799" x2="45.008" y2="680.379" style="stroke:#181818;stroke-width:0.5;stroke-dasharray:5,5;"/></g><g><title>main.. .MSP.</title><rect x="231.527" y="38.799" width="8" height="641.58" fill="#000" fill-opacity="0"/><line x1="235.027" y1="38.799" x2="235.027" y2="680.379" style="stroke:#181818;stroke-width:0.5;stroke-dasharray:5,5;"/></g><g><title>kernel_main..</title><rect x="472.957" y="38.799" width="8" height="641.58" fill="#000" fill-opacity="0"/><line x1="476.457" y1="38.799" x2="476.457" y2="680.379" style="stroke:#181818;stroke-width:0.5;stroke-dasharray:5,5;"/></g><g><title>w.tek boot</title><rect x="718.383" y="38.799" width="8" height="641.58" fill="#000" fill-opacity="0"/><line x1="721.883" y1="38.799" x2="721.883" y2="680.379" style="stroke:#181818;stroke-width:0.5;stroke-dasharray:5,5;"/></g><g><title>init .proces 1.</title><rect x="1001.195" y="38.799" width="8" height="641.58" fill="#000" fill-opacity="0"/><line x1="1004.695" y1="38.799" x2="1004.695" y2="680.379" style="stroke:#181818;stroke-width:0.5;stroke-dasharray:5,5;"/></g><rect x="10" y="10" width="70.016" height="27.799" fill="#E2E2F0" style="stroke:#181818;stroke-width:0.5;" rx="2.5" ry="2.5"/><text x="17" y="28.256" fill="#000" font-size="12" textLength="56.016" font-family="Arial">Boot ROM</text><rect x="192.361" y="10" width="85.332" height="27.799" fill="#E2E2F0" style="stroke:#181818;stroke-width:0.5;" rx="2.5" ry="2.5"/><text x="199.361" y="28.256" fill="#000" font-size="12" textLength="71.332" font-family="Arial">main() (MSP)</text><rect x="432.777" y="10" width="87.359" height="27.799" fill="#E2E2F0" style="stroke:#181818;stroke-width:0.5;" rx="2.5" ry="2.5"/><text x="439.777" y="28.256" fill="#000" font-size="12" textLength="73.359" font-family="Arial">kernel_main()</text><rect x="685.864" y="10" width="72.037" height="27.799" fill="#E2E2F0" style="stroke:#181818;stroke-width:0.5;" rx="2.5" ry="2.5"/><text x="692.864" y="28.256" fill="#000" font-size="12" textLength="58.037" font-family="Arial">wątek boot</text><rect x="961.35" y="10" width="86.691" height="27.799" fill="#E2E2F0" style="stroke:#181818;stroke-width:0.5;" rx="2.5" ry="2.5"/><text x="968.35" y="28.256" fill="#000" font-size="12" textLength="72.691" font-family="Arial">init (proces 1)</text><rect x="10" y="680.379" width="70.016" height="27.799" fill="#E2E2F0" style="stroke:#181818;stroke-width:0.5;" rx="2.5" ry="2.5"/><text x="17" y="698.635" fill="#000" font-size="12" textLength="56.016" font-family="Arial">Boot ROM</text><rect x="192.361" y="680.379" width="85.332" height="27.799" fill="#E2E2F0" style="stroke:#181818;stroke-width:0.5;" rx="2.5" ry="2.5"/><text x="199.361" y="698.635" fill="#000" font-size="12" textLength="71.332" font-family="Arial">main() (MSP)</text><rect x="432.777" y="680.379" width="87.359" height="27.799" fill="#E2E2F0" style="stroke:#181818;stroke-width:0.5;" rx="2.5" ry="2.5"/><text x="439.777" y="698.635" fill="#000" font-size="12" textLength="73.359" font-family="Arial">kernel_main()</text><rect x="685.864" y="680.379" width="72.037" height="27.799" fill="#E2E2F0" style="stroke:#181818;stroke-width:0.5;" rx="2.5" ry="2.5"/><text x="692.864" y="698.635" fill="#000" font-size="12" textLength="58.037" font-family="Arial">wątek boot</text><rect x="961.35" y="680.379" width="86.691" height="27.799" fill="#E2E2F0" style="stroke:#181818;stroke-width:0.5;" rx="2.5" ry="2.5"/><text x="968.35" y="698.635" fill="#000" font-size="12" textLength="72.691" font-family="Arial">init (proces 1)</text><line x1="45.008" y1="66.598" x2="87.008" y2="66.598" style="stroke:#181818;stroke-width:1;"/><line x1="87.008" y1="66.598" x2="87.008" y2="79.598" style="stroke:#181818;stroke-width:1;"/><line x1="46.008" y1="79.598" x2="87.008" y2="79.598" style="stroke:#181818;stroke-width:1;"/><polygon points="56.008,75.598,46.008,79.598,56.008,83.598,52.008,79.598" fill="#181818" style="stroke:#181818;stroke-width:1;stroke-linejoin:miter;stroke-miterlimit:10;"/><text x="52.008" y="62.055" fill="#000" font-size="12" font-weight="700" font-family="Arial">1</text><text x="62.682" y="62.055" fill="#000" font-size="12" textLength="34.664" font-family="Arial">FCFB,</text><text x="97.346" y="62.055" fill="#000" font-size="12" font-family="Arial"> </text><text x="100.68" y="62.055" fill="#000" font-size="12" textLength="29.332" font-family="Arial">DCD:</text><text x="130.012" y="62.055" fill="#000" font-size="12" font-family="Arial"> </text><text x="133.346" y="62.055" fill="#000" font-size="12" textLength="42.012" font-family="Arial">FlexSPI</text><text x="175.357" y="62.055" fill="#000" font-size="12" font-family="Arial"> </text><text x="178.691" y="62.055" fill="#000" font-size="12" font-family="Arial">i</text><text x="181.357" y="62.055" fill="#000" font-size="12" font-family="Arial"> </text><text x="184.691" y="62.055" fill="#000" font-size="12" textLength="43.336" font-family="Arial">SDRAM</text><polygon points="223.027,103.396,233.027,107.396,223.027,111.396,227.027,107.396" fill="#181818" style="stroke:#181818;stroke-width:1;stroke-linejoin:miter;stroke-miterlimit:10;"/><line x1="45.008" y1="107.396" x2="229.027" y2="107.396" style="stroke:#181818;stroke-width:1;"/><text x="52.008" y="102.854" fill="#000" font-size="12" font-weight="700" font-family="Arial">2</text><text x="62.682" y="102.854" fill="#000" font-size="12" textLength="30.012" font-family="Arial">reset,</text><text x="92.693" y="102.854" fill="#000" font-size="12" font-family="Arial"> </text><text x="96.027" y="102.854" fill="#000" font-size="12" textLength="19.342" font-family="Arial">XIP</text><text x="115.369" y="102.854" fill="#000" font-size="12" font-family="Arial"> </text><text x="118.703" y="102.854" fill="#000" font-size="12" font-family="Arial">z</text><text x="124.703" y="102.854" fill="#000" font-size="12" font-family="Arial"> </text><text x="128.037" y="102.854" fill="#000" font-size="12" textLength="61.354" font-family="Arial">HyperFlash</text><line x1="235.027" y1="135.195" x2="277.027" y2="135.195" style="stroke:#181818;stroke-width:1;"/><line x1="277.027" y1="135.195" x2="277.027" y2="148.195" style="stroke:#181818;stroke-width:1;"/><line x1="236.027" y1="148.195" x2="277.027" y2="148.195" style="stroke:#181818;stroke-width:1;"/><polygon points="246.027,144.195,236.027,148.195,246.027,152.195,242.027,148.195" fill="#181818" style="stroke:#181818;stroke-width:1;stroke-linejoin:miter;stroke-miterlimit:10;"/><text x="242.027" y="130.652" fill="#000" font-size="12" font-weight="700" font-family="Arial">3</text><text x="252.701" y="130.652" fill="#000" font-size="12" textLength="56.684" font-family="Arial">mpu_init(),</text><text x="309.385" y="130.652" fill="#000" font-size="12" font-family="Arial"> </text><text x="312.719" y="130.652" fill="#000" font-size="12" textLength="22.014" font-family="Arial">piny</text><text x="334.732" y="130.652" fill="#000" font-size="12" font-family="Arial"> </text><text x="338.066" y="130.652" fill="#000" font-size="12" textLength="40.688" font-family="Arial">konsoli,</text><text x="378.754" y="130.652" fill="#000" font-size="12" font-family="Arial"> </text><text x="382.088" y="130.652" fill="#000" font-size="12" textLength="36.018" font-family="Arial">zegary</text><text x="418.105" y="130.652" fill="#000" font-size="12" font-family="Arial"> </text><text x="421.439" y="130.652" fill="#000" font-size="12" textLength="20.021" font-family="Arial">600</text><text x="441.461" y="130.652" fill="#000" font-size="12" font-family="Arial"> </text><text x="444.795" y="130.652" fill="#000" font-size="12" textLength="24.662" font-family="Arial">MHz</text><polygon points="464.457,171.994,474.457,175.994,464.457,179.994,468.457,175.994" fill="#181818" style="stroke:#181818;stroke-width:1;stroke-linejoin:miter;stroke-miterlimit:10;"/><line x1="235.027" y1="175.994" x2="470.457" y2="175.994" style="stroke:#181818;stroke-width:1;"/><text x="242.027" y="171.451" fill="#000" font-size="12" font-weight="700" font-family="Arial">4</text><text x="252.701" y="171.451" fill="#000" font-size="12" textLength="73.359" font-family="Arial">kernel_main()</text><line x1="476.457" y1="203.793" x2="518.457" y2="203.793" style="stroke:#181818;stroke-width:1;"/><line x1="518.457" y1="203.793" x2="518.457" y2="216.793" style="stroke:#181818;stroke-width:1;"/><line x1="477.457" y1="216.793" x2="518.457" y2="216.793" style="stroke:#181818;stroke-width:1;"/><polygon points="487.457,212.793,477.457,216.793,487.457,220.793,483.457,216.793" fill="#181818" style="stroke:#181818;stroke-width:1;stroke-linejoin:miter;stroke-miterlimit:10;"/><text x="483.457" y="199.25" fill="#000" font-size="12" font-weight="700" font-family="Arial">5</text><text x="494.131" y="199.25" fill="#000" font-size="12" textLength="48.029" font-family="Arial">fault_init,</text><text x="542.16" y="199.25" fill="#000" font-size="12" font-family="Arial"> </text><text x="545.494" y="199.25" fill="#000" font-size="12" textLength="45.34" font-family="Arial">mm_init,</text><text x="590.834" y="199.25" fill="#000" font-size="12" font-family="Arial"> </text><text x="594.168" y="199.25" fill="#000" font-size="12" textLength="38.684" font-family="Arial">irq_init,</text><text x="632.852" y="199.25" fill="#000" font-size="12" font-family="Arial"> </text><text x="636.186" y="199.25" fill="#000" font-size="12" textLength="63.375" font-family="Arial">console_init</text><line x1="476.457" y1="244.592" x2="518.457" y2="244.592" style="stroke:#181818;stroke-width:1;"/><line x1="518.457" y1="244.592" x2="518.457" y2="257.592" style="stroke:#181818;stroke-width:1;"/><line x1="477.457" y1="257.592" x2="518.457" y2="257.592" style="stroke:#181818;stroke-width:1;"/><polygon points="487.457,253.592,477.457,257.592,487.457,261.592,483.457,257.592" fill="#181818" style="stroke:#181818;stroke-width:1;stroke-linejoin:miter;stroke-miterlimit:10;"/><text x="483.457" y="240.049" fill="#000" font-size="12" font-weight="700" font-family="Arial">6</text><text x="494.131" y="240.049" fill="#000" font-size="12" textLength="54.035" font-family="Arial">sched_init</text><text x="548.166" y="240.049" fill="#000" font-size="12" font-family="Arial"> </text><text x="551.5" y="240.049" fill="#000" font-size="12" textLength="30.006" font-family="Arial">(idle),</text><text x="581.506" y="240.049" fill="#000" font-size="12" font-family="Arial"> </text><text x="584.84" y="240.049" fill="#000" font-size="12" textLength="67.354" font-family="Arial">kworker_init,</text><text x="652.193" y="240.049" fill="#000" font-size="12" font-family="Arial"> </text><text x="655.527" y="240.049" fill="#000" font-size="12" textLength="59.355" font-family="Arial">kmon_start</text><polygon points="709.883,281.391,719.883,285.391,709.883,289.391,713.883,285.391" fill="#181818" style="stroke:#181818;stroke-width:1;stroke-linejoin:miter;stroke-miterlimit:10;"/><line x1="476.457" y1="285.391" x2="715.883" y2="285.391" style="stroke:#181818;stroke-width:1;"/><text x="483.457" y="280.848" fill="#000" font-size="12" font-weight="700" font-family="Arial">7</text><text x="494.131" y="280.848" fill="#000" font-size="12" textLength="64.693" font-family="Arial">boot_start():</text><text x="558.824" y="280.848" fill="#000" font-size="12" font-family="Arial"> </text><text x="562.158" y="280.848" fill="#000" font-size="12" textLength="40.025" font-family="Arial">kthread</text><text x="602.184" y="280.848" fill="#000" font-size="12" font-family="Arial"> </text><text x="605.518" y="280.848" fill="#000" font-size="12" textLength="31.875" font-family="Arial">"boot"</text><line x1="476.457" y1="313.189" x2="518.457" y2="313.189" style="stroke:#181818;stroke-width:1;"/><line x1="518.457" y1="313.189" x2="518.457" y2="326.189" style="stroke:#181818;stroke-width:1;"/><line x1="477.457" y1="326.189" x2="518.457" y2="326.189" style="stroke:#181818;stroke-width:1;"/><polygon points="487.457,322.189,477.457,326.189,487.457,330.189,483.457,326.189" fill="#181818" style="stroke:#181818;stroke-width:1;stroke-linejoin:miter;stroke-miterlimit:10;"/><text x="483.457" y="308.646" fill="#000" font-size="12" font-weight="700" font-family="Arial">8</text><text x="494.131" y="308.646" fill="#000" font-size="12" textLength="73.359" font-family="Arial">sched_start():</text><text x="567.49" y="308.646" fill="#000" font-size="12" font-family="Arial"> </text><text x="570.824" y="308.646" fill="#000" font-size="12" textLength="45.334" font-family="Arial">SysTick,</text><text x="616.158" y="308.646" fill="#000" font-size="12" font-family="Arial"> </text><text x="619.492" y="308.646" fill="#000" font-size="12" textLength="46.676" font-family="Arial">pierwszy</text><text x="666.168" y="308.646" fill="#000" font-size="12" font-family="Arial"> </text><text x="669.502" y="308.646" fill="#000" font-size="12" textLength="44.033" font-family="Arial">PendSV</text><line x1="721.883" y1="353.988" x2="763.883" y2="353.988" style="stroke:#181818;stroke-width:1;"/><line x1="763.883" y1="353.988" x2="763.883" y2="366.988" style="stroke:#181818;stroke-width:1;"/><line x1="722.883" y1="366.988" x2="763.883" y2="366.988" style="stroke:#181818;stroke-width:1;"/><polygon points="732.883,362.988,722.883,366.988,732.883,370.988,728.883,366.988" fill="#181818" style="stroke:#181818;stroke-width:1;stroke-linejoin:miter;stroke-miterlimit:10;"/><text x="728.883" y="349.445" fill="#000" font-size="12" font-weight="700" font-family="Arial">9</text><text x="739.557" y="349.445" fill="#000" font-size="12" textLength="40.682" font-family="Arial">vfs_init,</text><text x="780.238" y="349.445" fill="#000" font-size="12" font-family="Arial"> </text><text x="783.572" y="349.445" fill="#000" font-size="12" textLength="38.016" font-family="Arial">tty_init,</text><text x="821.588" y="349.445" fill="#000" font-size="12" font-family="Arial"> </text><text x="824.922" y="349.445" fill="#000" font-size="12" textLength="61.377" font-family="Arial">uevent_init,</text><text x="886.299" y="349.445" fill="#000" font-size="12" font-family="Arial"> </text><text x="889.633" y="349.445" fill="#000" font-size="12" textLength="58.717" font-family="Arial">gpu2d_init,</text><text x="948.35" y="349.445" fill="#000" font-size="12" font-family="Arial"> </text><text x="951.684" y="349.445" fill="#000" font-size="12" textLength="24" font-family="Arial">/ram</text><line x1="721.883" y1="394.787" x2="763.883" y2="394.787" style="stroke:#181818;stroke-width:1;"/><line x1="763.883" y1="394.787" x2="763.883" y2="407.787" style="stroke:#181818;stroke-width:1;"/><line x1="722.883" y1="407.787" x2="763.883" y2="407.787" style="stroke:#181818;stroke-width:1;"/><polygon points="732.883,403.787,722.883,407.787,732.883,411.787,728.883,407.787" fill="#181818" style="stroke:#181818;stroke-width:1;stroke-linejoin:miter;stroke-miterlimit:10;"/><text x="728.883" y="390.244" fill="#000" font-size="12" textLength="13.348" font-weight="700" font-family="Arial">10</text><text x="746.23" y="390.244" fill="#000" font-size="12" textLength="61.365" font-family="Arial">sdcard_init,</text><text x="807.596" y="390.244" fill="#000" font-size="12" font-family="Arial"> </text><text x="810.93" y="390.244" fill="#000" font-size="12" textLength="85.887" font-family="Arial">fat_mount("/sd")</text><path d="M705.883,419.787 L764.887,419.787 L764.887,425.586 L754.887,435.586 L705.883,435.586 L705.883,419.787" style="stroke:#000;stroke-width:1.5;" fill="#EEE"/><rect x="705.883" y="419.787" width="497.223" height="236.592" fill="none" style="stroke:#000;stroke-width:1.5;"/><text x="720.883" y="432.043" fill="#000" font-size="12" textLength="14.004" font-weight="700" font-family="Arial">alt</text><text x="779.887" y="433.043" fill="#000" font-size="12" textLength="180.047" font-weight="700" font-family="Arial">[SW8 wciśnięty (tryb awaryjny)]</text><line x1="721.883" y1="465.385" x2="763.883" y2="465.385" style="stroke:#181818;stroke-width:1;"/><line x1="763.883" y1="465.385" x2="763.883" y2="478.385" style="stroke:#181818;stroke-width:1;"/><line x1="722.883" y1="478.385" x2="763.883" y2="478.385" style="stroke:#181818;stroke-width:1;"/><polygon points="732.883,474.385,722.883,478.385,732.883,482.385,728.883,478.385" fill="#181818" style="stroke:#181818;stroke-width:1;stroke-linejoin:miter;stroke-miterlimit:10;"/><text x="728.883" y="460.842" fill="#000" font-size="12" textLength="13.348" font-weight="700" font-family="Arial">11</text><text x="746.23" y="460.842" fill="#000" font-size="12" textLength="24.674" font-family="Arial">tylko</text><text x="770.904" y="460.842" fill="#000" font-size="12" font-family="Arial"> </text><text x="774.238" y="460.842" fill="#000" font-size="12" textLength="38.684" font-family="Arial">drzewo</text><text x="812.922" y="460.842" fill="#000" font-size="12" font-family="Arial"> </text><text x="816.256" y="460.842" fill="#000" font-size="12" textLength="52.699" font-family="Arial">urządzeń,</text><text x="868.955" y="460.842" fill="#000" font-size="12" font-family="Arial"> </text><text x="872.289" y="460.842" fill="#000" font-size="12" textLength="19.348" font-family="Arial">bez</text><text x="891.637" y="460.842" fill="#000" font-size="12" font-family="Arial"> </text><text x="894.971" y="460.842" fill="#000" font-size="12" textLength="48.023" font-family="Arial">modułów</text><text x="942.994" y="460.842" fill="#000" font-size="12" font-family="Arial"> </text><text x="946.328" y="460.842" fill="#000" font-size="12" font-family="Arial">i</text><text x="948.994" y="460.842" fill="#000" font-size="12" font-family="Arial"> </text><text x="952.328" y="460.842" fill="#000" font-size="12" textLength="15.34" font-family="Arial">init</text><line x1="705.883" y1="487.385" x2="1203.105" y2="487.385" style="stroke:#000;stroke-width:1;stroke-dasharray:2,2;"/><text x="710.883" y="500.641" fill="#000" font-size="12" textLength="65.338" font-weight="700" font-family="Arial">[normalnie]</text><line x1="721.883" y1="525.982" x2="763.883" y2="525.982" style="stroke:#181818;stroke-width:1;"/><line x1="763.883" y1="525.982" x2="763.883" y2="538.982" style="stroke:#181818;stroke-width:1;"/><line x1="722.883" y1="538.982" x2="763.883" y2="538.982" style="stroke:#181818;stroke-width:1;"/><polygon points="732.883,534.982,722.883,538.982,732.883,542.982,728.883,538.982" fill="#181818" style="stroke:#181818;stroke-width:1;stroke-linejoin:miter;stroke-miterlimit:10;"/><text x="728.883" y="521.439" fill="#000" font-size="12" textLength="13.348" font-weight="700" font-family="Arial">12</text><text x="746.23" y="521.439" fill="#000" font-size="12" textLength="94.055" font-family="Arial">of_init(board.dtb),</text><text x="840.285" y="521.439" fill="#000" font-size="12" font-family="Arial"> </text><text x="843.619" y="521.439" fill="#000" font-size="12" textLength="95.396" font-family="Arial">device_populate()</text><line x1="721.883" y1="566.781" x2="763.883" y2="566.781" style="stroke:#181818;stroke-width:1;"/><line x1="763.883" y1="566.781" x2="763.883" y2="579.781" style="stroke:#181818;stroke-width:1;"/><line x1="722.883" y1="579.781" x2="763.883" y2="579.781" style="stroke:#181818;stroke-width:1;"/><polygon points="732.883,575.781,722.883,579.781,732.883,583.781,728.883,579.781" fill="#181818" style="stroke:#181818;stroke-width:1;stroke-linejoin:miter;stroke-miterlimit:10;"/><text x="728.883" y="562.238" fill="#000" font-size="12" textLength="13.348" font-weight="700" font-family="Arial">13</text><text x="746.23" y="562.238" fill="#000" font-size="12" textLength="38.684" font-family="Arial">moduły</text><text x="784.914" y="562.238" fill="#000" font-size="12" font-family="Arial"> </text><text x="788.248" y="562.238" fill="#000" font-size="12" textLength="16.008" font-family="Arial">.ko</text><text x="804.256" y="562.238" fill="#000" font-size="12" font-family="Arial"> </text><text x="807.59" y="562.238" fill="#000" font-size="12" textLength="15.34" font-family="Arial">wg</text><text x="822.93" y="562.238" fill="#000" font-size="12" font-family="Arial"> </text><text x="826.264" y="562.238" fill="#000" font-size="12" textLength="73.371" font-family="Arial">modules.alias</text><text x="899.635" y="562.238" fill="#000" font-size="12" font-family="Arial"> </text><text x="902.969" y="562.238" fill="#000" font-size="12" textLength="38.684" font-family="Arial">(probe)</text><polygon points="992.695,603.58,1002.695,607.58,992.695,611.58,996.695,607.58" fill="#181818" style="stroke:#181818;stroke-width:1;stroke-linejoin:miter;stroke-miterlimit:10;"/><line x1="721.883" y1="607.58" x2="998.695" y2="607.58" style="stroke:#181818;stroke-width:1;"/><text x="728.883" y="603.037" fill="#000" font-size="12" textLength="13.348" font-weight="700" font-family="Arial">14</text><text x="746.23" y="603.037" fill="#000" font-size="12" textLength="181.436" font-family="Arial">app_spawn(/sd/crtos/sbin/init.app,</text><text x="927.666" y="603.037" fill="#000" font-size="12" font-family="Arial"> </text><text x="931" y="603.037" fill="#000" font-size="12" textLength="56.695" font-family="Arial">CAP_ALL)</text><line x1="1004.695" y1="635.379" x2="1046.695" y2="635.379" style="stroke:#181818;stroke-width:1;"/><line x1="1046.695" y1="635.379" x2="1046.695" y2="648.379" style="stroke:#181818;stroke-width:1;"/><line x1="1005.695" y1="648.379" x2="1046.695" y2="648.379" style="stroke:#181818;stroke-width:1;"/><polygon points="1015.695,644.379,1005.695,648.379,1015.695,652.379,1011.695,648.379" fill="#181818" style="stroke:#181818;stroke-width:1;stroke-linejoin:miter;stroke-miterlimit:10;"/><text x="1011.695" y="630.836" fill="#000" font-size="12" textLength="13.348" font-weight="700" font-family="Arial">15</text><text x="1029.043" y="630.836" fill="#000" font-size="12" textLength="31.354" font-family="Arial">usługi</text><text x="1060.396" y="630.836" fill="#000" font-size="12" font-family="Arial"> </text><text x="1063.73" y="630.836" fill="#000" font-size="12" font-family="Arial">i</text><text x="1066.396" y="630.836" fill="#000" font-size="12" font-family="Arial"> </text><text x="1069.73" y="630.836" fill="#000" font-size="12" textLength="50.684" font-family="Arial">programy</text><text x="1120.414" y="630.836" fill="#000" font-size="12" font-family="Arial"> </text><text x="1123.748" y="630.836" fill="#000" font-size="12" font-family="Arial">z</text><text x="1129.748" y="630.836" fill="#000" font-size="12" font-family="Arial"> </text><text x="1133.082" y="630.836" fill="#000" font-size="12" textLength="54.023" font-family="Arial">etc/init.cfg</text><?plantuml-src RLBBZjCm5DttAovTfL981XO8iK3gGzLKdOfgWe1TvCIthObZ1pyQakM8-GZ4P_09jF-5a_H1Xid6rpddtCVnVS54oYr5289Gcue7pEPyGAoHmkO9ga51b64fAuWmC9n8QU3-mse8H3Td7yq94zu8l5Mq7hMC9tY6IY2FErfBMFO9vU7HO0Q9gzB2apxC13FW5KgcgE5Lbs4n0FUvLk3b-_Pu1_FfVEB3R3fp8SVlqNe13ABP_NZrBxTXAjHeVFYoM4CDjrM1Qiw9thMq2oalRDnKzaO-54nKa4cX9MS-rBWbge8tDpUmkgslggLJzMPjeUKPsX3BJPlIXpm_1KnzEqLfcnxRMr-eqntIk7E1KOwkeQoKofKwIRDSYbWRvzbLE772nj3klpTohPcTGa9XsFhyN8aBDQhqHvPcpU2eIbrNi4P1eq-jQ79Elz_eKmF6LAV8uXx5USfjOL_JKnmgalVbcgP4dU4DCN4khJ3UCDHqs5b7k87eyrieKtRy9TZXfwd0CwfAW9Jk1RwAgkFrqhfbpYHGLMCfmQhwy4XhFFxm8S4QSadjyU7FxzAjniLev1f1I9KJBXZ-dr5kkaL8fEite2Pn3q1nprAC2rbOJWnwppJIrQeWSEsKs_RAKGU4CxU_pJed-4IrS2fI5B4kI2ayvqEOAYDrg1CcmgQ5mA4-JCVhU7ntTnKlpcAhZmzswqO3btxh7A_SWgD9Et6wsNRp2leN?></g></svg>