<svg xmlns="http://www.w3.org/2000/svg" xmlns:xlink="http://www.w3.org/1999/xlink" version="1.1" data-diagram-type="SEQUENCE" style="width:694px;height:617px;background:#FFFFFF;" width="694px" height="617px" viewBox="0 0 694 617" zoomAndPan="magnify" preserveAspectRatio="none" contentStyleType="text/css"><?plantuml 1.2026.8?><defs/><g font-family="sans-serif" lengthAdjust="spacing"><rect x="49.352" y="382.586" width="620.295" height="142.994" fill="none" style="stroke:#000;stroke-width:1.5;"/><g><title>crtos deploy .T01.</title><rect x="61.852" y="38.799" width="8" height="538.58" fill="#000" fill-opacity="0"/><line x1="65.352" y1="38.799" x2="65.352" y2="577.379" style="stroke:#181818;stroke-width:0.5;stroke-dasharray:5,5;"/></g><g><title>deployd</title><rect x="341.969" y="38.799" width="8" height="538.58" fill="#000" fill-opacity="0"/><line x1="345.469" y1="38.799" x2="345.469" y2="577.379" style="stroke:#181818;stroke-width:0.5;stroke-dasharray:5,5;"/></g><g><title>karta SD</title><rect x="650.146" y="38.799" width="8" height="538.58" fill="#000" fill-opacity="0"/><line x1="653.646" y1="38.799" x2="653.646" y2="577.379" style="stroke:#181818;stroke-width:0.5;stroke-dasharray:5,5;"/></g><rect x="10" y="10" width="110.703" height="27.799" fill="#E2E2F0" style="stroke:#181818;stroke-width:0.5;" rx="2.5" ry="2.5"/><text x="17" y="28.256" fill="#000" font-size="12" textLength="96.703" font-family="Arial">crtos deploy (T01)</text><rect x="317.451" y="10" width="56.035" height="27.799" fill="#E2E2F0" style="stroke:#181818;stroke-width:0.5;" rx="2.5" ry="2.5"/><text x="324.451" y="28.256" fill="#000" font-size="12" textLength="42.035" font-family="Arial">deployd</text><rect x="623.306" y="10" width="60.682" height="27.799" fill="#E2E2F0" style="stroke:#181818;stroke-width:0.5;" rx="2.5" ry="2.5"/><text x="630.306" y="28.256" fill="#000" font-size="12" textLength="46.682" font-family="Arial">karta SD</text><rect x="10" y="577.379" width="110.703" height="27.799" fill="#E2E2F0" style="stroke:#181818;stroke-width:0.5;" rx="2.5" ry="2.5"/><text x="17" y="595.635" fill="#000" font-size="12" textLength="96.703" font-family="Arial">crtos deploy (T01)</text><rect x="317.451" y="577.379" width="56.035" height="27.799" fill="#E2E2F0" style="stroke:#181818;stroke-width:0.5;" rx="2.5" ry="2.5"/><text x="324.451" y="595.635" fill="#000" font-size="12" textLength="42.035" font-family="Arial">deployd</text><rect x="623.306" y="577.379" width="60.682" height="27.799" fill="#E2E2F0" style="stroke:#181818;stroke-width:0.5;" rx="2.5" ry="2.5"/><text x="630.306" y="595.635" fill="#000" font-size="12" textLength="46.682" font-family="Arial">karta SD</text><polygon points="333.469,62.598,343.469,66.598,333.469,70.598,337.469,66.598" fill="#181818" style="stroke:#181818;stroke-width:1;stroke-linejoin:miter;stroke-miterlimit:10;"/><line x1="65.352" y1="66.598" x2="339.469" y2="66.598" style="stroke:#181818;stroke-width:1;"/><text x="72.352" y="62.055" fill="#000" font-size="12" font-weight="700" font-family="Arial">1</text><text x="83.025" y="62.055" fill="#000" font-size="12" textLength="25.336" font-family="Arial">UDP</text><text x="108.361" y="62.055" fill="#000" font-size="12" font-family="Arial"> </text><text x="111.695" y="62.055" fill="#000" font-size="12" textLength="57.193" font-family="Arial">"CRTOS?"</text><text x="168.889" y="62.055" fill="#000" font-size="12" font-family="Arial"> </text><text x="172.223" y="62.055" fill="#000" font-size="12" textLength="26.684" font-family="Arial">(albo</text><text x="198.906" y="62.055" fill="#000" font-size="12" font-family="Arial"> </text><text x="202.24" y="62.055" fill="#000" font-size="12" textLength="32.021" font-family="Arial">znany</text><text x="234.262" y="62.055" fill="#000" font-size="12" font-family="Arial"> </text><text x="237.596" y="62.055" fill="#000" font-size="12" textLength="34.014" font-family="Arial">adres)</text><polygon points="76.352,90.396,66.352,94.396,76.352,98.396,72.352,94.396" fill="#181818" style="stroke:#181818;stroke-width:1;stroke-linejoin:miter;stroke-miterlimit:10;"/><line x1="70.352" y1="94.396" x2="344.469" y2="94.396" style="stroke:#181818;stroke-width:1;stroke-dasharray:2,2;"/><text x="82.352" y="89.854" fill="#000" font-size="12" font-weight="700" font-family="Arial">2</text><text x="93.025" y="89.854" fill="#000" font-size="12" textLength="46.26" font-family="Arial">"CRTOS</text><text x="139.285" y="89.854" fill="#000" font-size="12" font-family="Arial"> </text><text x="142.619" y="89.854" fill="#000" font-size="12" textLength="40.945" font-family="Arial">&lt;mac>"</text><polygon points="333.469,118.195,343.469,122.195,333.469,126.195,337.469,122.195" fill="#181818" style="stroke:#181818;stroke-width:1;stroke-linejoin:miter;stroke-miterlimit:10;"/><line x1="65.352" y1="122.195" x2="339.469" y2="122.195" style="stroke:#181818;stroke-width:1;"/><text x="72.352" y="117.652" fill="#000" font-size="12" font-weight="700" font-family="Arial">3</text><text x="83.025" y="117.652" fill="#000" font-size="12" textLength="24" font-family="Arial">TCP</text><text x="107.025" y="117.652" fill="#000" font-size="12" font-family="Arial"> </text><text x="110.359" y="117.652" fill="#000" font-size="12" textLength="26.695" font-family="Arial">5555</text><polygon points="76.352,145.994,66.352,149.994,76.352,153.994,72.352,149.994" fill="#181818" style="stroke:#181818;stroke-width:1;stroke-linejoin:miter;stroke-miterlimit:10;"/><line x1="70.352" y1="149.994" x2="344.469" y2="149.994" style="stroke:#181818;stroke-width:1;stroke-dasharray:2,2;"/><text x="82.352" y="145.451" fill="#000" font-size="12" font-weight="700" font-family="Arial">4</text><text x="93.025" y="145.451" fill="#000" font-size="12" textLength="46.26" font-family="Arial">"CRTOS</text><text x="139.285" y="145.451" fill="#000" font-size="12" font-family="Arial"> </text><text x="142.619" y="145.451" fill="#000" font-size="12" textLength="42.035" font-family="Arial">deployd</text><text x="184.654" y="145.451" fill="#000" font-size="12" font-family="Arial"> </text><text x="187.988" y="145.451" fill="#000" font-size="12" textLength="10.934" font-family="Arial">2"</text><polygon points="333.469,173.793,343.469,177.793,333.469,181.793,337.469,177.793" fill="#181818" style="stroke:#181818;stroke-width:1;stroke-linejoin:miter;stroke-miterlimit:10;"/><line x1="65.352" y1="177.793" x2="339.469" y2="177.793" style="stroke:#181818;stroke-width:1;"/><text x="72.352" y="173.25" fill="#000" font-size="12" font-weight="700" font-family="Arial">5</text><text x="83.025" y="173.25" fill="#000" font-size="12" textLength="32.666" font-family="Arial">AUTH</text><text x="115.691" y="173.25" fill="#000" font-size="12" font-family="Arial"> </text><text x="119.025" y="173.25" fill="#000" font-size="12" textLength="43.371" font-family="Arial">&lt;token></text><line x1="345.469" y1="205.592" x2="387.469" y2="205.592" style="stroke:#181818;stroke-width:1;"/><line x1="387.469" y1="205.592" x2="387.469" y2="218.592" style="stroke:#181818;stroke-width:1;"/><line x1="346.469" y1="218.592" x2="387.469" y2="218.592" style="stroke:#181818;stroke-width:1;"/><polygon points="356.469,214.592,346.469,218.592,356.469,222.592,352.469,218.592" fill="#181818" style="stroke:#181818;stroke-width:1;stroke-linejoin:miter;stroke-miterlimit:10;"/><text x="352.469" y="201.049" fill="#000" font-size="12" font-weight="700" font-family="Arial">6</text><text x="363.143" y="201.049" fill="#000" font-size="12" textLength="29.355" font-family="Arial">token</text><text x="392.498" y="201.049" fill="#000" font-size="12" font-family="Arial"> </text><text x="395.832" y="201.049" fill="#000" font-size="12" font-family="Arial">z</text><text x="401.832" y="201.049" fill="#000" font-size="12" font-family="Arial"> </text><text x="405.166" y="201.049" fill="#000" font-size="12" textLength="28.014" font-family="Arial">pliku,</text><text x="433.18" y="201.049" fill="#000" font-size="12" font-family="Arial"> </text><text x="436.514" y="201.049" fill="#000" font-size="12" textLength="62.045" font-family="Arial">porównanie</text><text x="498.559" y="201.049" fill="#000" font-size="12" font-family="Arial"> </text><text x="501.893" y="201.049" fill="#000" font-size="12" font-family="Arial">w</text><text x="510.559" y="201.049" fill="#000" font-size="12" font-family="Arial"> </text><text x="513.893" y="201.049" fill="#000" font-size="12" textLength="34.67" font-family="Arial">stałym</text><text x="548.563" y="201.049" fill="#000" font-size="12" font-family="Arial"> </text><text x="551.896" y="201.049" fill="#000" font-size="12" textLength="34.014" font-family="Arial">czasie</text><polygon points="76.352,242.391,66.352,246.391,76.352,250.391,72.352,246.391" fill="#181818" style="stroke:#181818;stroke-width:1;stroke-linejoin:miter;stroke-miterlimit:10;"/><line x1="70.352" y1="246.391" x2="344.469" y2="246.391" style="stroke:#181818;stroke-width:1;stroke-dasharray:2,2;"/><text x="82.352" y="241.848" fill="#000" font-size="12" font-weight="700" font-family="Arial">7</text><text x="93.025" y="241.848" fill="#000" font-size="12" textLength="17.338" font-family="Arial">OK</text><polygon points="333.469,270.189,343.469,274.189,333.469,278.189,337.469,274.189" fill="#181818" style="stroke:#181818;stroke-width:1;stroke-linejoin:miter;stroke-miterlimit:10;"/><line x1="65.352" y1="274.189" x2="339.469" y2="274.189" style="stroke:#181818;stroke-width:1;"/><text x="72.352" y="269.646" fill="#000" font-size="12" font-weight="700" font-family="Arial">8</text><text x="83.025" y="269.646" fill="#000" font-size="12" textLength="24" font-family="Arial">PUT</text><text x="107.025" y="269.646" fill="#000" font-size="12" font-family="Arial"> </text><text x="110.359" y="269.646" fill="#000" font-size="12" textLength="127.412" font-family="Arial">/sd/crtos/apps/paint.app</text><text x="237.771" y="269.646" fill="#000" font-size="12" font-family="Arial"> </text><text x="241.105" y="269.646" fill="#000" font-size="12" textLength="54.018" font-family="Arial">&lt;rozmiar></text><text x="295.123" y="269.646" fill="#000" font-size="12" font-family="Arial"> </text><text x="298.457" y="269.646" fill="#000" font-size="12" textLength="30.012" font-family="Arial">&lt;crc></text><polygon points="333.469,297.988,343.469,301.988,333.469,305.988,337.469,301.988" fill="#181818" style="stroke:#181818;stroke-width:1;stroke-linejoin:miter;stroke-miterlimit:10;"/><line x1="65.352" y1="301.988" x2="339.469" y2="301.988" style="stroke:#181818;stroke-width:1;"/><text x="72.352" y="297.445" fill="#000" font-size="12" font-weight="700" font-family="Arial">9</text><text x="83.025" y="297.445" fill="#000" font-size="12" textLength="26.695" font-family="Arial">dane</text><polygon points="641.646,325.787,651.646,329.787,641.646,333.787,645.646,329.787" fill="#181818" style="stroke:#181818;stroke-width:1;stroke-linejoin:miter;stroke-miterlimit:10;"/><line x1="345.469" y1="329.787" x2="647.646" y2="329.787" style="stroke:#181818;stroke-width:1;"/><text x="352.469" y="325.244" fill="#000" font-size="12" textLength="13.348" font-weight="700" font-family="Arial">10</text><text x="369.816" y="325.244" fill="#000" font-size="12" textLength="29.332" font-family="Arial">mkdir</text><text x="399.148" y="325.244" fill="#000" font-size="12" font-family="Arial"> </text><text x="402.482" y="325.244" fill="#000" font-size="12" textLength="13.348" font-family="Arial">po</text><text x="415.83" y="325.244" fill="#000" font-size="12" font-family="Arial"> </text><text x="419.164" y="325.244" fill="#000" font-size="12" textLength="40.025" font-family="Arial">drodze,</text><text x="459.189" y="325.244" fill="#000" font-size="12" font-family="Arial"> </text><text x="462.523" y="325.244" fill="#000" font-size="12" textLength="28.014" font-family="Arial">zapis</text><text x="490.537" y="325.244" fill="#000" font-size="12" font-family="Arial"> </text><text x="493.871" y="325.244" fill="#000" font-size="12" textLength="13.348" font-family="Arial">do</text><text x="507.219" y="325.244" fill="#000" font-size="12" font-family="Arial"> </text><text x="510.553" y="325.244" fill="#000" font-size="12" textLength="73.389" font-family="Arial">paint.app.part</text><text x="583.941" y="325.244" fill="#000" font-size="12" font-family="Arial"> </text><text x="587.275" y="325.244" fill="#000" font-size="12" textLength="13.348" font-family="Arial">po</text><text x="600.623" y="325.244" fill="#000" font-size="12" font-family="Arial"> </text><text x="603.957" y="325.244" fill="#000" font-size="12" textLength="13.348" font-family="Arial">64</text><text x="617.305" y="325.244" fill="#000" font-size="12" font-family="Arial"> </text><text x="620.639" y="325.244" fill="#000" font-size="12" textLength="16.008" font-family="Arial">KB</text><line x1="345.469" y1="357.586" x2="387.469" y2="357.586" style="stroke:#181818;stroke-width:1;"/><line x1="387.469" y1="357.586" x2="387.469" y2="370.586" style="stroke:#181818;stroke-width:1;"/><line x1="346.469" y1="370.586" x2="387.469" y2="370.586" style="stroke:#181818;stroke-width:1;"/><polygon points="356.469,366.586,346.469,370.586,356.469,374.586,352.469,370.586" fill="#181818" style="stroke:#181818;stroke-width:1;stroke-linejoin:miter;stroke-miterlimit:10;"/><text x="352.469" y="353.043" fill="#000" font-size="12" textLength="13.348" font-weight="700" font-family="Arial">11</text><text x="369.816" y="353.043" fill="#000" font-size="12" textLength="43.342" font-family="Arial">CRC-32</text><text x="413.158" y="353.043" fill="#000" font-size="12" font-family="Arial"> </text><text x="416.492" y="353.043" fill="#000" font-size="12" textLength="62.713" font-family="Arial">odebranych</text><text x="479.205" y="353.043" fill="#000" font-size="12" font-family="Arial"> </text><text x="482.539" y="353.043" fill="#000" font-size="12" textLength="38.695" font-family="Arial">danych</text><path d="M49.352,382.586 L108.355,382.586 L108.355,388.385 L98.355,398.385 L49.352,398.385 L49.352,382.586" style="stroke:#000;stroke-width:1.5;" fill="#EEE"/><rect x="49.352" y="382.586" width="620.295" height="142.994" fill="none" style="stroke:#000;stroke-width:1.5;"/><text x="64.352" y="394.842" fill="#000" font-size="12" textLength="14.004" font-weight="700" font-family="Arial">alt</text><text x="123.355" y="395.842" fill="#000" font-size="12" textLength="158.004" font-weight="700" font-family="Arial">[CRC zgodne i zapis udany]</text><polygon points="641.646,424.184,651.646,428.184,641.646,432.184,645.646,428.184" fill="#181818" style="stroke:#181818;stroke-width:1;stroke-linejoin:miter;stroke-miterlimit:10;"/><line x1="345.469" y1="428.184" x2="647.646" y2="428.184" style="stroke:#181818;stroke-width:1;"/><text x="352.469" y="423.641" fill="#000" font-size="12" textLength="13.348" font-weight="700" font-family="Arial">12</text><text x="369.816" y="423.641" fill="#000" font-size="12" textLength="68.684" font-family="Arial">unlink(stary),</text><text x="438.5" y="423.641" fill="#000" font-size="12" font-family="Arial"> </text><text x="441.834" y="423.641" fill="#000" font-size="12" textLength="68.695" font-family="Arial">rename(.part</text><text x="510.529" y="423.641" fill="#000" font-size="12" font-family="Arial"> </text><text x="513.863" y="423.641" fill="#000" font-size="12" textLength="11.004" font-family="Arial">-></text><text x="524.867" y="423.641" fill="#000" font-size="12" font-family="Arial"> </text><text x="528.201" y="423.641" fill="#000" font-size="12" textLength="53.373" font-family="Arial">paint.app)</text><polygon points="76.352,451.982,66.352,455.982,76.352,459.982,72.352,455.982" fill="#181818" style="stroke:#181818;stroke-width:1;stroke-linejoin:miter;stroke-miterlimit:10;"/><line x1="70.352" y1="455.982" x2="344.469" y2="455.982" style="stroke:#181818;stroke-width:1;stroke-dasharray:2,2;"/><text x="82.352" y="451.439" fill="#000" font-size="12" textLength="13.348" font-weight="700" font-family="Arial">13</text><text x="99.699" y="451.439" fill="#000" font-size="12" textLength="17.338" font-family="Arial">OK</text><text x="117.037" y="451.439" fill="#000" font-size="12" font-family="Arial"> </text><text x="120.371" y="451.439" fill="#000" font-size="12" textLength="39.363" font-family="Arial">&lt;bajty></text><text x="159.734" y="451.439" fill="#000" font-size="12" font-family="Arial"> </text><text x="163.068" y="451.439" fill="#000" font-size="12" textLength="9.34" font-family="Arial">in</text><text x="172.408" y="451.439" fill="#000" font-size="12" font-family="Arial"> </text><text x="175.742" y="451.439" fill="#000" font-size="12" textLength="30.012" font-family="Arial">&lt;ms></text><text x="205.754" y="451.439" fill="#000" font-size="12" font-family="Arial"> </text><text x="209.088" y="451.439" fill="#000" font-size="12" textLength="10.002" font-family="Arial">...</text><line x1="49.352" y1="464.982" x2="669.646" y2="464.982" style="stroke:#000;stroke-width:1;stroke-dasharray:2,2;"/><polygon points="641.646,485.781,651.646,489.781,641.646,493.781,645.646,489.781" fill="#181818" style="stroke:#181818;stroke-width:1;stroke-linejoin:miter;stroke-miterlimit:10;"/><line x1="345.469" y1="489.781" x2="647.646" y2="489.781" style="stroke:#181818;stroke-width:1;"/><text x="352.469" y="485.238" fill="#000" font-size="12" textLength="13.348" font-weight="700" font-family="Arial">14</text><text x="369.816" y="485.238" fill="#000" font-size="12" textLength="63.357" font-family="Arial">unlink(.part)</text><polygon points="76.352,513.58,66.352,517.58,76.352,521.58,72.352,517.58" fill="#181818" style="stroke:#181818;stroke-width:1;stroke-linejoin:miter;stroke-miterlimit:10;"/><line x1="70.352" y1="517.58" x2="344.469" y2="517.58" style="stroke:#181818;stroke-width:1;stroke-dasharray:2,2;"/><text x="82.352" y="513.037" fill="#000" font-size="12" textLength="13.348" font-weight="700" font-family="Arial">15</text><text x="99.699" y="513.037" fill="#000" font-size="12" textLength="25.336" font-family="Arial">ERR</text><text x="125.035" y="513.037" fill="#000" font-size="12" font-family="Arial"> </text><text x="128.369" y="513.037" fill="#000" font-size="12" textLength="15.996" font-family="Arial">crc</text><text x="144.365" y="513.037" fill="#000" font-size="12" font-family="Arial"> </text><text x="147.699" y="513.037" fill="#000" font-size="12" textLength="10.002" font-family="Arial">...</text><text x="157.701" y="513.037" fill="#000" font-size="12" font-family="Arial"> </text><text x="161.035" y="513.037" fill="#000" font-size="12" font-family="Arial">/</text><text x="164.369" y="513.037" fill="#000" font-size="12" font-family="Arial"> </text><text x="167.703" y="513.037" fill="#000" font-size="12" textLength="25.336" font-family="Arial">ERR</text><text x="193.039" y="513.037" fill="#000" font-size="12" font-family="Arial"> </text><text x="196.373" y="513.037" fill="#000" font-size="12" textLength="36.703" font-family="Arial">&lt;błąd></text><polygon points="333.469,555.379,343.469,559.379,333.469,563.379,337.469,559.379" fill="#181818" style="stroke:#181818;stroke-width:1;stroke-linejoin:miter;stroke-miterlimit:10;"/><line x1="65.352" y1="559.379" x2="339.469" y2="559.379" style="stroke:#181818;stroke-width:1;"/><text x="72.352" y="554.836" fill="#000" font-size="12" textLength="13.348" font-weight="700" font-family="Arial">16</text><text x="89.699" y="554.836" fill="#000" font-size="12" textLength="28.664" font-family="Arial">QUIT</text><?plantuml-src RLBBZjCm5DtdAmvPjLARmF1Oe2W86gIYMKnfqm-uYIqmSMpBTZHAbYFnHNm2p7_X9ADcAl36lZxdddlliLy8LSkESIH9wdml4z6rCgBEQzMr5RUH8Uj5BGmfZxYsNZimRgJkiIfVlbh788VzDMl6sGGLrr0J0iAfcB1JjCSsHu7tE1S7nBjZUNVw46D5ij8O5AaUn2ntwwZ0DZ3tWJcpaBLKv_4YKEuEU1lMlyodRd3pZFtnNEwHUTrmbOyPy-qKOu2HekasCDh-_dKVkX0Szt2U7X_w5lL0Jl1dPUvk5zt3kKJgM3hvb98nBZKab4_24PdLGol8viXgM-TB5YF5vovE8MeR9cme3cOr6_W60naHJDUuI2MZfoFbtHlSVbe6s1rtszStq8nNDfXNVn-bmnQHz2E8uPjcYaCyQNOZ706NsfsIGZMhCAljrnjOhgZbgxbSe5mQMCz95mUGLVJ3zpc42Y_Zyl2RaeXBn_yZFgbT2tm-7X4i6REGJb5MFJxy-SdoY2ks6FNr_ANy2m00?></g></svg>