<svg xmlns="http://www.w3.org/2000/svg" xmlns:xlink="http://www.w3.org/1999/xlink" version="1.1" data-diagram-type="SEQUENCE" style="width:502px;height:621px;background:#FFFFFF;" width="502px" height="621px" viewBox="0 0 502 621" zoomAndPan="magnify" preserveAspectRatio="none" contentStyleType="text/css"><?plantuml 1.2026.8?><defs/><g font-family="sans-serif" lengthAdjust="spacing"><rect x="32" y="91.598" width="362.02" height="53.598" fill="none" style="stroke:#000;stroke-width:1.5;"/><rect x="13" y="163.195" width="469.689" height="394.586" fill="none" style="stroke:#000;stroke-width:1.5;"/><rect x="32" y="220.793" width="326.074" height="114.195" fill="none" style="stroke:#000;stroke-width:1.5;"/><rect x="32" y="352.988" width="425.689" height="190.793" fill="none" style="stroke:#000;stroke-width:1.5;"/><g><title>netmgr</title><rect x="44.5" y="38.799" width="8" height="542.982" fill="#000" fill-opacity="0"/><line x1="48" y1="38.799" x2="48" y2="581.781" style="stroke:#181818;stroke-width:0.5;stroke-dasharray:5,5;"/></g><g><title>S05 . net-lwip</title><rect x="338.574" y="38.799" width="8" height="542.982" fill="#000" fill-opacity="0"/><line x1="342.074" y1="38.799" x2="342.074" y2="581.781" style="stroke:#181818;stroke-width:0.5;stroke-dasharray:5,5;"/></g><g><title>serwer NTP</title><rect x="438.189" y="38.799" width="8" height="542.982" fill="#000" fill-opacity="0"/><line x1="441.689" y1="38.799" x2="441.689" y2="581.781" style="stroke:#181818;stroke-width:0.5;stroke-dasharray:5,5;"/></g><rect x="22.326" y="10" width="51.348" height="27.799" fill="#E2E2F0" style="stroke:#181818;stroke-width:0.5;" rx="2.5" ry="2.5"/><text x="29.326" y="28.256" fill="#000" font-size="12" textLength="37.348" font-family="Arial">netmgr</text><rect x="298.723" y="10" width="86.703" height="27.799" fill="#E2E2F0" style="stroke:#181818;stroke-width:0.5;" rx="2.5" ry="2.5"/><text x="305.723" y="28.256" fill="#000" font-size="12" textLength="72.703" font-family="Arial">S05 / net-lwip</text><rect x="403.02" y="10" width="77.34" height="27.799" fill="#E2E2F0" style="stroke:#181818;stroke-width:0.5;" rx="2.5" ry="2.5"/><text x="410.02" y="28.256" fill="#000" font-size="12" textLength="63.34" font-family="Arial">serwer NTP</text><rect x="22.326" y="581.781" width="51.348" height="27.799" fill="#E2E2F0" style="stroke:#181818;stroke-width:0.5;" rx="2.5" ry="2.5"/><text x="29.326" y="600.037" fill="#000" font-size="12" textLength="37.348" font-family="Arial">netmgr</text><rect x="298.723" y="581.781" width="86.703" height="27.799" fill="#E2E2F0" style="stroke:#181818;stroke-width:0.5;" rx="2.5" ry="2.5"/><text x="305.723" y="600.037" fill="#000" font-size="12" textLength="72.703" font-family="Arial">S05 / net-lwip</text><rect x="403.02" y="581.781" width="77.34" height="27.799" fill="#E2E2F0" style="stroke:#181818;stroke-width:0.5;" rx="2.5" ry="2.5"/><text x="410.02" y="600.037" fill="#000" font-size="12" textLength="63.34" font-family="Arial">serwer NTP</text><line x1="48" y1="66.598" x2="90" y2="66.598" style="stroke:#181818;stroke-width:1;"/><line x1="90" y1="66.598" x2="90" y2="79.598" style="stroke:#181818;stroke-width:1;"/><line x1="49" y1="79.598" x2="90" y2="79.598" style="stroke:#181818;stroke-width:1;"/><polygon points="59,75.598,49,79.598,59,83.598,55,79.598" fill="#181818" style="stroke:#181818;stroke-width:1;stroke-linejoin:miter;stroke-miterlimit:10;"/><text x="55" y="62.055" fill="#000" font-size="12" font-weight="700" font-family="Arial">1</text><text x="65.674" y="62.055" fill="#000" font-size="12" textLength="61.359" font-family="Arial">network.cfg</text><text x="127.033" y="62.055" fill="#000" font-size="12" font-family="Arial"> </text><text x="130.367" y="62.055" fill="#000" font-size="12" textLength="26.684" font-family="Arial">(albo</text><text x="157.051" y="62.055" fill="#000" font-size="12" font-family="Arial"> </text><text x="160.385" y="62.055" fill="#000" font-size="12" textLength="54.023" font-family="Arial">domyślnie</text><text x="214.408" y="62.055" fill="#000" font-size="12" font-family="Arial"> </text><text x="217.742" y="62.055" fill="#000" font-size="12" textLength="23.355" font-family="Arial">eth0</text><text x="241.098" y="62.055" fill="#000" font-size="12" font-family="Arial"> </text><text x="244.432" y="62.055" fill="#000" font-size="12" textLength="30.018" font-family="Arial">dhcp)</text><path d="M32,91.598 L102.324,91.598 L102.324,97.396 L92.324,107.396 L32,107.396 L32,91.598" style="stroke:#000;stroke-width:1.5;" fill="#EEE"/><rect x="32" y="91.598" width="362.02" height="53.598" fill="none" style="stroke:#000;stroke-width:1.5;"/><text x="47" y="103.854" fill="#000" font-size="12" textLength="25.324" font-weight="700" font-family="Arial">loop</text><text x="117.324" y="104.854" fill="#000" font-size="12" textLength="260.695" font-weight="700" font-family="Arial">[do utworzenia gniazda (stos ładuje się w tle)]</text><polygon points="330.074,133.195,340.074,137.195,330.074,141.195,334.074,137.195" fill="#181818" style="stroke:#181818;stroke-width:1;stroke-linejoin:miter;stroke-miterlimit:10;"/><line x1="48" y1="137.195" x2="336.074" y2="137.195" style="stroke:#181818;stroke-width:1;"/><text x="55" y="132.652" fill="#000" font-size="12" font-weight="700" font-family="Arial">2</text><text x="65.674" y="132.652" fill="#000" font-size="12" textLength="71.344" font-family="Arial">socket(UDP),</text><text x="137.018" y="132.652" fill="#000" font-size="12" font-family="Arial"> </text><text x="140.352" y="132.652" fill="#000" font-size="12" textLength="12.674" font-family="Arial">co</text><text x="153.025" y="132.652" fill="#000" font-size="12" font-family="Arial"> </text><text x="156.359" y="132.652" fill="#000" font-size="12" textLength="20.021" font-family="Arial">500</text><text x="176.381" y="132.652" fill="#000" font-size="12" font-family="Arial"> </text><text x="179.715" y="132.652" fill="#000" font-size="12" textLength="15.996" font-family="Arial">ms</text><path d="M13,163.195 L83.324,163.195 L83.324,168.994 L73.324,178.994 L13,178.994 L13,163.195" style="stroke:#000;stroke-width:1.5;" fill="#EEE"/><rect x="13" y="163.195" width="469.689" height="394.586" fill="none" style="stroke:#000;stroke-width:1.5;"/><text x="28" y="175.451" fill="#000" font-size="12" textLength="25.324" font-weight="700" font-family="Arial">loop</text><text x="98.324" y="176.451" fill="#000" font-size="12" textLength="42.012" font-weight="700" font-family="Arial">[co 1 s]</text><polygon points="330.074,204.793,340.074,208.793,330.074,212.793,334.074,208.793" fill="#181818" style="stroke:#181818;stroke-width:1;stroke-linejoin:miter;stroke-miterlimit:10;"/><line x1="48" y1="208.793" x2="336.074" y2="208.793" style="stroke:#181818;stroke-width:1;"/><text x="55" y="204.25" fill="#000" font-size="12" font-weight="700" font-family="Arial">3</text><text x="65.674" y="204.25" fill="#000" font-size="12" textLength="98.01" font-family="Arial">NET_IOC_IFINFO</text><text x="163.684" y="204.25" fill="#000" font-size="12" font-family="Arial"> </text><text x="167.018" y="204.25" fill="#000" font-size="12" textLength="35.344" font-family="Arial">(każdy</text><text x="202.361" y="204.25" fill="#000" font-size="12" font-family="Arial"> </text><text x="205.695" y="204.25" fill="#000" font-size="12" textLength="42.018" font-family="Arial">interfejs</text><text x="247.713" y="204.25" fill="#000" font-size="12" font-family="Arial"> </text><text x="251.047" y="204.25" fill="#000" font-size="12" font-family="Arial">z</text><text x="257.047" y="204.25" fill="#000" font-size="12" font-family="Arial"> </text><text x="260.381" y="204.25" fill="#000" font-size="12" textLength="64.693" font-family="Arial">konfiguracji)</text><path d="M32,220.793 L91.004,220.793 L91.004,226.592 L81.004,236.592 L32,236.592 L32,220.793" style="stroke:#000;stroke-width:1.5;" fill="#EEE"/><rect x="32" y="220.793" width="326.074" height="114.195" fill="none" style="stroke:#000;stroke-width:1.5;"/><text x="47" y="233.049" fill="#000" font-size="12" textLength="14.004" font-weight="700" font-family="Arial">alt</text><text x="106.004" y="234.049" fill="#000" font-size="12" textLength="88.676" font-weight="700" font-family="Arial">[interfejs nowy]</text><polygon points="330.074,262.391,340.074,266.391,330.074,270.391,334.074,266.391" fill="#181818" style="stroke:#181818;stroke-width:1;stroke-linejoin:miter;stroke-miterlimit:10;"/><line x1="48" y1="266.391" x2="336.074" y2="266.391" style="stroke:#181818;stroke-width:1;"/><text x="55" y="261.848" fill="#000" font-size="12" font-weight="700" font-family="Arial">4</text><text x="65.674" y="261.848" fill="#000" font-size="12" textLength="141.34" font-family="Arial">NET_IOC_IFCONF(DHCP</text><text x="207.014" y="261.848" fill="#000" font-size="12" font-family="Arial"> </text><text x="210.348" y="261.848" fill="#000" font-size="12" textLength="22.688" font-family="Arial">albo</text><text x="233.035" y="261.848" fill="#000" font-size="12" font-family="Arial"> </text><text x="236.369" y="261.848" fill="#000" font-size="12" textLength="57.346" font-family="Arial">statyczny),</text><text x="293.715" y="261.848" fill="#000" font-size="12" font-family="Arial"> </text><text x="297.049" y="261.848" fill="#000" font-size="12" textLength="25.336" font-family="Arial">DNS</text><line x1="32" y1="275.391" x2="358.074" y2="275.391" style="stroke:#000;stroke-width:1;stroke-dasharray:2,2;"/><text x="37" y="288.646" fill="#000" font-size="12" textLength="104.039" font-weight="700" font-family="Arial">[adres się zmienił]</text><line x1="48" y1="313.988" x2="90" y2="313.988" style="stroke:#181818;stroke-width:1;"/><line x1="90" y1="313.988" x2="90" y2="326.988" style="stroke:#181818;stroke-width:1;"/><line x1="49" y1="326.988" x2="90" y2="326.988" style="stroke:#181818;stroke-width:1;"/><polygon points="59,322.988,49,326.988,59,330.988,55,326.988" fill="#181818" style="stroke:#181818;stroke-width:1;stroke-linejoin:miter;stroke-miterlimit:10;"/><text x="55" y="309.445" fill="#000" font-size="12" font-weight="700" font-family="Arial">5</text><text x="65.674" y="309.445" fill="#000" font-size="12" textLength="19.348" font-family="Arial">log:</text><text x="85.021" y="309.445" fill="#000" font-size="12" font-family="Arial"> </text><text x="88.355" y="309.445" fill="#000" font-size="12" textLength="33.352" font-family="Arial">adres,</text><text x="121.707" y="309.445" fill="#000" font-size="12" font-family="Arial"> </text><text x="125.041" y="309.445" fill="#000" font-size="12" textLength="37.348" font-family="Arial">brama,</text><text x="162.389" y="309.445" fill="#000" font-size="12" font-family="Arial"> </text><text x="165.723" y="309.445" fill="#000" font-size="12" textLength="25.336" font-family="Arial">DNS</text><path d="M32,352.988 L95.656,352.988 L95.656,358.787 L85.656,368.787 L32,368.787 L32,352.988" style="stroke:#000;stroke-width:1.5;" fill="#EEE"/><rect x="32" y="352.988" width="425.689" height="190.793" fill="none" style="stroke:#000;stroke-width:1.5;"/><text x="47" y="365.244" fill="#000" font-size="12" textLength="18.656" font-weight="700" font-family="Arial">opt</text><text x="110.656" y="366.244" fill="#000" font-size="12" textLength="150.047" font-weight="700" font-family="Arial">[łącze i adres, termin NTP]</text><polygon points="330.074,394.586,340.074,398.586,330.074,402.586,334.074,398.586" fill="#181818" style="stroke:#181818;stroke-width:1;stroke-linejoin:miter;stroke-miterlimit:10;"/><line x1="48" y1="398.586" x2="336.074" y2="398.586" style="stroke:#181818;stroke-width:1;"/><text x="55" y="394.043" fill="#000" font-size="12" font-weight="700" font-family="Arial">6</text><text x="65.674" y="394.043" fill="#000" font-size="12" textLength="131.42" font-family="Arial">getaddrinfo(pool.ntp.org)</text><text x="197.094" y="394.043" fill="#000" font-size="12" font-family="Arial"> </text><text x="200.428" y="394.043" fill="#000" font-size="12" textLength="123.363" font-family="Arial">(NET_IOC_RESOLVE)</text><polygon points="429.689,422.385,439.689,426.385,429.689,430.385,433.689,426.385" fill="#181818" style="stroke:#181818;stroke-width:1;stroke-linejoin:miter;stroke-miterlimit:10;"/><line x1="48" y1="426.385" x2="435.689" y2="426.385" style="stroke:#181818;stroke-width:1;"/><text x="55" y="421.842" fill="#000" font-size="12" font-weight="700" font-family="Arial">7</text><text x="65.674" y="421.842" fill="#000" font-size="12" textLength="51.369" font-family="Arial">zapytanie</text><text x="117.043" y="421.842" fill="#000" font-size="12" font-family="Arial"> </text><text x="120.377" y="421.842" fill="#000" font-size="12" textLength="24" font-family="Arial">NTP</text><text x="144.377" y="421.842" fill="#000" font-size="12" font-family="Arial"> </text><text x="147.711" y="421.842" fill="#000" font-size="12" textLength="29.332" font-family="Arial">(UDP</text><text x="177.043" y="421.842" fill="#000" font-size="12" font-family="Arial"> </text><text x="180.377" y="421.842" fill="#000" font-size="12" textLength="23.355" font-family="Arial">123,</text><text x="203.732" y="421.842" fill="#000" font-size="12" font-family="Arial"> </text><text x="207.066" y="421.842" fill="#000" font-size="12" textLength="46.688" font-family="Arial">znacznik</text><text x="253.754" y="421.842" fill="#000" font-size="12" font-family="Arial"> </text><text x="257.088" y="421.842" fill="#000" font-size="12" font-family="Arial">w</text><text x="265.754" y="421.842" fill="#000" font-size="12" font-family="Arial"> </text><text x="269.088" y="421.842" fill="#000" font-size="12" textLength="22.688" font-family="Arial">polu</text><text x="291.775" y="421.842" fill="#000" font-size="12" font-family="Arial"> </text><text x="295.109" y="421.842" fill="#000" font-size="12" textLength="31.348" font-family="Arial">czasu</text><text x="326.457" y="421.842" fill="#000" font-size="12" font-family="Arial"> </text><text x="329.791" y="421.842" fill="#000" font-size="12" textLength="50.016" font-family="Arial">wysłania)</text><polygon points="59,450.184,49,454.184,59,458.184,55,454.184" fill="#181818" style="stroke:#181818;stroke-width:1;stroke-linejoin:miter;stroke-miterlimit:10;"/><line x1="53" y1="454.184" x2="440.689" y2="454.184" style="stroke:#181818;stroke-width:1;stroke-dasharray:2,2;"/><text x="65" y="449.641" fill="#000" font-size="12" font-weight="700" font-family="Arial">8</text><text x="75.674" y="449.641" fill="#000" font-size="12" textLength="57.375" font-family="Arial">odpowiedź</text><text x="133.049" y="449.641" fill="#000" font-size="12" font-family="Arial"> </text><text x="136.383" y="449.641" fill="#000" font-size="12" textLength="50.684" font-family="Arial">(znacznik</text><text x="187.066" y="449.641" fill="#000" font-size="12" font-family="Arial"> </text><text x="190.4" y="449.641" fill="#000" font-size="12" textLength="51.369" font-family="Arial">odesłany,</text><text x="241.77" y="449.641" fill="#000" font-size="12" font-family="Arial"> </text><text x="245.104" y="449.641" fill="#000" font-size="12" textLength="16.682" font-family="Arial">ten</text><text x="261.785" y="449.641" fill="#000" font-size="12" font-family="Arial"> </text><text x="265.119" y="449.641" fill="#000" font-size="12" textLength="22.67" font-family="Arial">sam</text><text x="287.789" y="449.641" fill="#000" font-size="12" font-family="Arial"> </text><text x="291.123" y="449.641" fill="#000" font-size="12" textLength="34.014" font-family="Arial">adres)</text><line x1="48" y1="481.982" x2="90" y2="481.982" style="stroke:#181818;stroke-width:1;"/><line x1="90" y1="481.982" x2="90" y2="494.982" style="stroke:#181818;stroke-width:1;"/><line x1="49" y1="494.982" x2="90" y2="494.982" style="stroke:#181818;stroke-width:1;"/><polygon points="59,490.982,49,494.982,59,498.982,55,494.982" fill="#181818" style="stroke:#181818;stroke-width:1;stroke-linejoin:miter;stroke-miterlimit:10;"/><text x="55" y="477.439" fill="#000" font-size="12" font-weight="700" font-family="Arial">9</text><text x="65.674" y="477.439" fill="#000" font-size="12" textLength="24.674" font-family="Arial">czas</text><text x="90.348" y="477.439" fill="#000" font-size="12" font-family="Arial"> </text><text x="93.682" y="477.439" fill="#000" font-size="12" textLength="42.68" font-family="Arial">serwera</text><text x="136.361" y="477.439" fill="#000" font-size="12" font-family="Arial"> </text><text x="139.695" y="477.439" fill="#000" font-size="12" font-family="Arial">+</text><text x="146.703" y="477.439" fill="#000" font-size="12" font-family="Arial"> </text><text x="150.037" y="477.439" fill="#000" font-size="12" textLength="38.027" font-family="Arial">połowa</text><text x="188.064" y="477.439" fill="#000" font-size="12" font-family="Arial"> </text><text x="191.398" y="477.439" fill="#000" font-size="12" textLength="31.348" font-family="Arial">czasu</text><text x="222.746" y="477.439" fill="#000" font-size="12" font-family="Arial"> </text><text x="226.08" y="477.439" fill="#000" font-size="12" textLength="36.035" font-family="Arial">obiegu</text><line x1="48" y1="522.781" x2="90" y2="522.781" style="stroke:#181818;stroke-width:1;"/><line x1="90" y1="522.781" x2="90" y2="535.781" style="stroke:#181818;stroke-width:1;"/><line x1="49" y1="535.781" x2="90" y2="535.781" style="stroke:#181818;stroke-width:1;"/><polygon points="59,531.781,49,535.781,59,539.781,55,535.781" fill="#181818" style="stroke:#181818;stroke-width:1;stroke-linejoin:miter;stroke-miterlimit:10;"/><text x="55" y="518.238" fill="#000" font-size="12" textLength="13.348" font-weight="700" font-family="Arial">10</text><text x="72.348" y="518.238" fill="#000" font-size="12" textLength="68.033" font-family="Arial">settimeofday</text><text x="140.381" y="518.238" fill="#000" font-size="12" font-family="Arial"> </text><text x="143.715" y="518.238" fill="#000" font-size="12" textLength="63.352" font-family="Arial">(CAP_SYS)</text><text x="207.066" y="518.238" fill="#000" font-size="12" font-family="Arial"> </text><text x="210.4" y="518.238" fill="#000" font-size="12" textLength="11.004" font-family="Arial">-></text><text x="221.404" y="518.238" fill="#000" font-size="12" font-family="Arial"> </text><text x="224.738" y="518.238" fill="#000" font-size="12" textLength="21.352" font-family="Arial">K09</text><text x="246.09" y="518.238" fill="#000" font-size="12" font-family="Arial"> </text><text x="249.424" y="518.238" fill="#000" font-size="12" textLength="11.004" font-family="Arial">-></text><text x="260.428" y="518.238" fill="#000" font-size="12" font-family="Arial"> </text><text x="263.762" y="518.238" fill="#000" font-size="12" textLength="24.662" font-family="Arial">RTC</text><?plantuml-src RLBBYjim5DtxAqvdPTF4ascPHMTHA7dGqCO94xVGLL0inQD4rZMMZB6NWNv4wP-KBiV_LJdEF09TM0QTnxtdNhsHEb4b5mZ3QsDh5SeoKnuhBUaosuh2orbXPI9pfYskjB1PMbo16ImkaVNe5jTm-51LCZyneak64KKb2aJnweJ6tWB3ZrZWhbDLL1p2P9V2PsfBu9JLxM-bfO2m3oFmXoGFF4MKEmXbHs-4bWofEnhEu1jB1ksHyN8lOEJZBrImIWGUSAeJkJg6aeEm_hV9AXWW8ToEHiYC9pJlhTtL3SnhHJIDD_FbU3EVpQFP4lw1jNzv3QcjA7PYRz3WG7edqx9WoLvsrPYoht1DLUqk_sivNaOpV_9vlC8fix7CracZQzVS95exbL16WF52c3vHaqaNkZs-67RJKvJUzQm1jWNBsBFSvG8ejsukZp-JHa0-yLnxcTJTBYwRIuLbd1TIxyZFYLIeRHvIaGRmd_g-dwwNNxzFWnTXx8GDoslBkdqvJtGZnisxzmCqchb8yk2saPCgaJJCbAXgurRbLjUxn1YUin3FgPA2jt_WFqk9YnEzxlhMC2phOmINS-YiqJyoXhUkN7kaYfqhqbQAjBmK666jp0JjEAlXZp-jDkiVww13lum-TB_xU7mUe_l-0G00?></g></svg>