<svg xmlns="http://www.w3.org/2000/svg" xmlns:xlink="http://www.w3.org/1999/xlink" version="1.1" data-diagram-type="SEQUENCE" style="width:606px;height:402px;background:#FFFFFF;" width="606px" height="402px" viewBox="0 0 606 402" zoomAndPan="magnify" preserveAspectRatio="none" contentStyleType="text/css"><?plantuml 1.2026.8?><defs/><g font-family="sans-serif" lengthAdjust="spacing"><rect x="26.342" y="134.195" width="494.533" height="204.391" fill="none" style="stroke:#000;stroke-width:1.5;"/><g><title>sterownik</title><rect x="38.842" y="38.799" width="8" height="323.787" fill="#000" fill-opacity="0"/><line x1="42.342" y1="38.799" x2="42.342" y2="362.586" style="stroke:#181818;stroke-width:0.5;stroke-dasharray:5,5;"/></g><g><title>device_get_irq .K17.</title><rect x="177.568" y="38.799" width="8" height="323.787" fill="#000" fill-opacity="0"/><line x1="181.068" y1="38.799" x2="181.068" y2="362.586" style="stroke:#181818;stroke-width:0.5;stroke-dasharray:5,5;"/></g><g><title>of_irq_parse .K17.</title><rect x="343.635" y="38.799" width="8" height="323.787" fill="#000" fill-opacity="0"/><line x1="347.135" y1="38.799" x2="347.135" y2="362.586" style="stroke:#181818;stroke-width:0.5;stroke-dasharray:5,5;"/></g><g><title>xlate kontrolera .np. gpio_xlate.</title><rect x="501.375" y="38.799" width="8" height="323.787" fill="#000" fill-opacity="0"/><line x1="504.875" y1="38.799" x2="504.875" y2="362.586" style="stroke:#181818;stroke-width:0.5;stroke-dasharray:5,5;"/></g><rect x="10" y="10" width="64.684" height="27.799" fill="#E2E2F0" style="stroke:#181818;stroke-width:0.5;" rx="2.5" ry="2.5"/><text x="17" y="28.256" fill="#000" font-size="12" textLength="50.684" font-family="Arial">sterownik</text><rect x="118.703" y="10" width="124.73" height="27.799" fill="#E2E2F0" style="stroke:#181818;stroke-width:0.5;" rx="2.5" ry="2.5"/><text x="125.703" y="28.256" fill="#000" font-size="12" textLength="110.73" font-family="Arial">device_get_irq (K17)</text><rect x="290.441" y="10" width="113.387" height="27.799" fill="#E2E2F0" style="stroke:#181818;stroke-width:0.5;" rx="2.5" ry="2.5"/><text x="297.441" y="28.256" fill="#000" font-size="12" textLength="99.387" font-family="Arial">of_irq_parse (K17)</text><rect x="413.828" y="10" width="182.094" height="27.799" fill="#E2E2F0" style="stroke:#181818;stroke-width:0.5;" rx="2.5" ry="2.5"/><text x="420.828" y="28.256" fill="#000" font-size="12" textLength="168.094" font-family="Arial">xlate kontrolera (np. gpio_xlate)</text><rect x="10" y="362.586" width="64.684" height="27.799" fill="#E2E2F0" style="stroke:#181818;stroke-width:0.5;" rx="2.5" ry="2.5"/><text x="17" y="380.842" fill="#000" font-size="12" textLength="50.684" font-family="Arial">sterownik</text><rect x="118.703" y="362.586" width="124.73" height="27.799" fill="#E2E2F0" style="stroke:#181818;stroke-width:0.5;" rx="2.5" ry="2.5"/><text x="125.703" y="380.842" fill="#000" font-size="12" textLength="110.73" font-family="Arial">device_get_irq (K17)</text><rect x="290.441" y="362.586" width="113.387" height="27.799" fill="#E2E2F0" style="stroke:#181818;stroke-width:0.5;" rx="2.5" ry="2.5"/><text x="297.441" y="380.842" fill="#000" font-size="12" textLength="99.387" font-family="Arial">of_irq_parse (K17)</text><rect x="413.828" y="362.586" width="182.094" height="27.799" fill="#E2E2F0" style="stroke:#181818;stroke-width:0.5;" rx="2.5" ry="2.5"/><text x="420.828" y="380.842" fill="#000" font-size="12" textLength="168.094" font-family="Arial">xlate kontrolera (np. gpio_xlate)</text><polygon points="169.068,62.598,179.068,66.598,169.068,70.598,173.068,66.598" fill="#181818" style="stroke:#181818;stroke-width:1;stroke-linejoin:miter;stroke-miterlimit:10;"/><line x1="42.342" y1="66.598" x2="175.068" y2="66.598" style="stroke:#181818;stroke-width:1;"/><text x="49.342" y="62.055" fill="#000" font-size="12" textLength="104.73" font-family="Arial">device_get_irq(dev,</text><text x="154.072" y="62.055" fill="#000" font-size="12" font-family="Arial"> </text><text x="157.406" y="62.055" fill="#000" font-size="12" textLength="6.662" font-family="Arial">i)</text><polygon points="335.135,90.396,345.135,94.396,335.135,98.396,339.135,94.396" fill="#181818" style="stroke:#181818;stroke-width:1;stroke-linejoin:miter;stroke-miterlimit:10;"/><line x1="181.068" y1="94.396" x2="341.135" y2="94.396" style="stroke:#181818;stroke-width:1;"/><text x="188.068" y="89.854" fill="#000" font-size="12" textLength="50.021" font-family="Arial">interrupts</text><text x="238.09" y="89.854" fill="#000" font-size="12" font-family="Arial"> </text><text x="241.424" y="89.854" fill="#000" font-size="12" font-family="Arial">/</text><text x="244.758" y="89.854" fill="#000" font-size="12" font-family="Arial"> </text><text x="248.092" y="89.854" fill="#000" font-size="12" textLength="82.043" font-family="Arial">interrupt-parent</text><polygon points="192.068,118.195,182.068,122.195,192.068,126.195,188.068,122.195" fill="#181818" style="stroke:#181818;stroke-width:1;stroke-linejoin:miter;stroke-miterlimit:10;"/><line x1="186.068" y1="122.195" x2="346.135" y2="122.195" style="stroke:#181818;stroke-width:1;stroke-dasharray:2,2;"/><text x="198.068" y="117.652" fill="#000" font-size="12" textLength="46.688" font-family="Arial">kontroler</text><text x="244.756" y="117.652" fill="#000" font-size="12" font-family="Arial"> </text><text x="248.09" y="117.652" fill="#000" font-size="12" font-family="Arial">+</text><text x="255.098" y="117.652" fill="#000" font-size="12" font-family="Arial"> </text><text x="258.432" y="117.652" fill="#000" font-size="12" textLength="56.695" font-family="Arial">argumenty</text><path d="M26.342,134.195 L85.346,134.195 L85.346,139.994 L75.346,149.994 L26.342,149.994 L26.342,134.195" style="stroke:#000;stroke-width:1.5;" fill="#EEE"/><rect x="26.342" y="134.195" width="494.533" height="204.391" fill="none" style="stroke:#000;stroke-width:1.5;"/><text x="41.342" y="146.451" fill="#000" font-size="12" textLength="14.004" font-weight="700" font-family="Arial">alt</text><text x="100.346" y="147.451" fill="#000" font-size="12" textLength="162.721" font-weight="700" font-family="Arial">[kontroler arm,armv7m-nvic]</text><polygon points="53.342,175.793,43.342,179.793,53.342,183.793,49.342,179.793" fill="#181818" style="stroke:#181818;stroke-width:1;stroke-linejoin:miter;stroke-miterlimit:10;"/><line x1="47.342" y1="179.793" x2="180.068" y2="179.793" style="stroke:#181818;stroke-width:1;stroke-dasharray:2,2;"/><text x="59.342" y="175.25" fill="#000" font-size="12" textLength="36.686" font-family="Arial">args[0]</text><line x1="26.342" y1="188.793" x2="520.875" y2="188.793" style="stroke:#000;stroke-width:1;stroke-dasharray:2,2;"/><text x="31.342" y="202.049" fill="#000" font-size="12" textLength="144.041" font-weight="700" font-family="Arial">[domena zarejestrowana]</text><polygon points="492.875,223.391,502.875,227.391,492.875,231.391,496.875,227.391" fill="#181818" style="stroke:#181818;stroke-width:1;stroke-linejoin:miter;stroke-miterlimit:10;"/><line x1="181.068" y1="227.391" x2="498.875" y2="227.391" style="stroke:#181818;stroke-width:1;"/><text x="188.068" y="222.848" fill="#000" font-size="12" textLength="48.012" font-family="Arial">xlate(ctx,</text><text x="236.08" y="222.848" fill="#000" font-size="12" font-family="Arial"> </text><text x="239.414" y="222.848" fill="#000" font-size="12" textLength="27.34" font-family="Arial">args)</text><polygon points="192.068,251.189,182.068,255.189,192.068,259.189,188.068,255.189" fill="#181818" style="stroke:#181818;stroke-width:1;stroke-linejoin:miter;stroke-miterlimit:10;"/><line x1="186.068" y1="255.189" x2="503.875" y2="255.189" style="stroke:#181818;stroke-width:1;stroke-dasharray:2,2;"/><text x="198.068" y="250.646" fill="#000" font-size="12" textLength="46.031" font-family="Arial">irq_base</text><text x="244.1" y="250.646" fill="#000" font-size="12" font-family="Arial"> </text><text x="247.434" y="250.646" fill="#000" font-size="12" font-family="Arial">+</text><text x="254.441" y="250.646" fill="#000" font-size="12" font-family="Arial"> </text><text x="257.775" y="250.646" fill="#000" font-size="12" textLength="16.014" font-family="Arial">pin</text><text x="273.789" y="250.646" fill="#000" font-size="12" font-family="Arial"> </text><text x="277.123" y="250.646" fill="#000" font-size="12" textLength="44.684" font-family="Arial">(ustawia</text><text x="321.807" y="250.646" fill="#000" font-size="12" font-family="Arial"> </text><text x="325.141" y="250.646" fill="#000" font-size="12" textLength="16.008" font-family="Arial">też</text><text x="341.148" y="250.646" fill="#000" font-size="12" font-family="Arial"> </text><text x="344.482" y="250.646" fill="#000" font-size="12" textLength="42.018" font-family="Arial">zbocze)</text><polygon points="53.342,278.988,43.342,282.988,53.342,286.988,49.342,282.988" fill="#181818" style="stroke:#181818;stroke-width:1;stroke-linejoin:miter;stroke-miterlimit:10;"/><line x1="47.342" y1="282.988" x2="180.068" y2="282.988" style="stroke:#181818;stroke-width:1;stroke-dasharray:2,2;"/><text x="59.342" y="278.445" fill="#000" font-size="12" textLength="34.014" font-family="Arial">numer</text><text x="93.355" y="278.445" fill="#000" font-size="12" font-family="Arial"> </text><text x="96.689" y="278.445" fill="#000" font-size="12" textLength="47.35" font-family="Arial">wirtualny</text><line x1="26.342" y1="291.988" x2="520.875" y2="291.988" style="stroke:#000;stroke-width:1;stroke-dasharray:2,2;"/><text x="31.342" y="305.244" fill="#000" font-size="12" textLength="149.361" font-weight="700" font-family="Arial">[kontroler bez sterownika]</text><polygon points="53.342,326.586,43.342,330.586,53.342,334.586,49.342,330.586" fill="#181818" style="stroke:#181818;stroke-width:1;stroke-linejoin:miter;stroke-miterlimit:10;"/><line x1="47.342" y1="330.586" x2="180.068" y2="330.586" style="stroke:#181818;stroke-width:1;stroke-dasharray:2,2;"/><text x="59.342" y="326.043" fill="#000" font-size="12" textLength="101.355" font-family="Arial">-EPROBE_DEFER</text><?plantuml-src RP6nRi8m48PtdkBAbAWaj1DI1uQAi7IWOa18LHKToHMvE7PgEmJoR5txNhquWX09Inxi--w__xSVXCfabHF4yTIwiun5LSXHYSQ9J9Ie78oj8wDh9GvZG0kBOJ6deyWetPDBXVc1uErv5dRSPWZghnP8-SxI3RPQ3h6JH4TmqCePBSaW1AgCOLyAdVfIrxKT0Qy5H7EU0oymT17mSG8YxA1DIwsMJ0d5IKnLEWlJ_X3nV5BEmun55ysh1tW4DFkgOEZiAPJkfegccF0-pef8iGjFN0QtMYp5xVRZwTENI7B-NBCQGiEJlycoK8qA1vrps7AZZnnaxZJn6k4LsVO-srVT8Oi-GYaK19LrM0i4Ht-_qEnqrb1upvJYH0PgOLo5KfrxStsq7JLm_Nsy9n8bx-lLQv8kacMoxYHK_Wy0?></g></svg>