<svg xmlns="http://www.w3.org/2000/svg" xmlns:xlink="http://www.w3.org/1999/xlink" version="1.1" data-diagram-type="SEQUENCE" style="width:1456px;height:637px;background:#FFFFFF;" width="1456px" height="637px" viewBox="0 0 1456 637" zoomAndPan="magnify" preserveAspectRatio="none" contentStyleType="text/css"><?plantuml 1.2026.8?><defs/><g font-family="sans-serif" lengthAdjust="spacing"><rect x="88.694" y="50.799" width="295.375" height="67.396" fill="none" style="stroke:#000;stroke-width:1.5;"/><rect x="346.845" y="232.592" width="306.057" height="66.598" fill="none" style="stroke:#000;stroke-width:1.5;"/><g><title>wo.aj.cy .sys_kill. b..d. sys_exit.</title><rect x="101.194" y="38.799" width="8" height="558.781" fill="#000" fill-opacity="0"/><line x1="104.694" y1="38.799" x2="104.694" y2="597.58" style="stroke:#181818;stroke-width:0.5;stroke-dasharray:5,5;"/></g><g><title>proc.cpp</title><rect x="359.345" y="38.799" width="8" height="558.781" fill="#000" fill-opacity="0"/><line x1="362.845" y1="38.799" x2="362.845" y2="597.58" style="stroke:#181818;stroke-width:0.5;stroke-dasharray:5,5;"/></g><g><title>w.tki procesu</title><rect x="702.084" y="38.799" width="8" height="558.781" fill="#000" fill-opacity="0"/><line x1="705.584" y1="38.799" x2="705.584" y2="597.58" style="stroke:#181818;stroke-width:0.5;stroke-dasharray:5,5;"/></g><g><title>kworker</title><rect x="1028.217" y="38.799" width="8" height="558.781" fill="#000" fill-opacity="0"/><line x1="1031.717" y1="38.799" x2="1031.717" y2="597.58" style="stroke:#181818;stroke-width:0.5;stroke-dasharray:5,5;"/></g><g><title>rodzic .proc_wait_child.</title><rect x="1372.355" y="38.799" width="8" height="558.781" fill="#000" fill-opacity="0"/><line x1="1375.855" y1="38.799" x2="1375.855" y2="597.58" style="stroke:#181818;stroke-width:0.5;stroke-dasharray:5,5;"/></g><rect x="10" y="10" width="189.389" height="27.799" fill="#E2E2F0" style="stroke:#181818;stroke-width:0.5;" rx="2.5" ry="2.5"/><text x="17" y="28.256" fill="#000" font-size="12" textLength="175.389" font-family="Arial">wołający (sys_kill, błąd, sys_exit)</text><rect x="332.832" y="10" width="60.025" height="27.799" fill="#E2E2F0" style="stroke:#181818;stroke-width:0.5;" rx="2.5" ry="2.5"/><text x="339.832" y="28.256" fill="#000" font-size="12" textLength="46.025" font-family="Arial">proc.cpp</text><rect x="661.901" y="10" width="87.365" height="27.799" fill="#E2E2F0" style="stroke:#181818;stroke-width:0.5;" rx="2.5" ry="2.5"/><text x="668.901" y="28.256" fill="#000" font-size="12" textLength="73.365" font-family="Arial">wątki procesu</text><rect x="1003.714" y="10" width="56.006" height="27.799" fill="#E2E2F0" style="stroke:#181818;stroke-width:0.5;" rx="2.5" ry="2.5"/><text x="1010.714" y="28.256" fill="#000" font-size="12" textLength="42.006" font-family="Arial">kworker</text><rect x="1305.832" y="10" width="140.047" height="27.799" fill="#E2E2F0" style="stroke:#181818;stroke-width:0.5;" rx="2.5" ry="2.5"/><text x="1312.832" y="28.256" fill="#000" font-size="12" textLength="126.047" font-family="Arial">rodzic (proc_wait_child)</text><rect x="10" y="597.58" width="189.389" height="27.799" fill="#E2E2F0" style="stroke:#181818;stroke-width:0.5;" rx="2.5" ry="2.5"/><text x="17" y="615.836" fill="#000" font-size="12" textLength="175.389" font-family="Arial">wołający (sys_kill, błąd, sys_exit)</text><rect x="332.832" y="597.58" width="60.025" height="27.799" fill="#E2E2F0" style="stroke:#181818;stroke-width:0.5;" rx="2.5" ry="2.5"/><text x="339.832" y="615.836" fill="#000" font-size="12" textLength="46.025" font-family="Arial">proc.cpp</text><rect x="661.901" y="597.58" width="87.365" height="27.799" fill="#E2E2F0" style="stroke:#181818;stroke-width:0.5;" rx="2.5" ry="2.5"/><text x="668.901" y="615.836" fill="#000" font-size="12" textLength="73.365" font-family="Arial">wątki procesu</text><rect x="1003.714" y="597.58" width="56.006" height="27.799" fill="#E2E2F0" style="stroke:#181818;stroke-width:0.5;" rx="2.5" ry="2.5"/><text x="1010.714" y="615.836" fill="#000" font-size="12" textLength="42.006" font-family="Arial">kworker</text><rect x="1305.832" y="597.58" width="140.047" height="27.799" fill="#E2E2F0" style="stroke:#181818;stroke-width:0.5;" rx="2.5" ry="2.5"/><text x="1312.832" y="615.836" fill="#000" font-size="12" textLength="126.047" font-family="Arial">rodzic (proc_wait_child)</text><path d="M88.694,50.799 L152.351,50.799 L152.351,56.598 L142.351,66.598 L88.694,66.598 L88.694,50.799" style="stroke:#000;stroke-width:1.5;" fill="#EEE"/><rect x="88.694" y="50.799" width="295.375" height="67.396" fill="none" style="stroke:#000;stroke-width:1.5;"/><text x="103.694" y="63.055" fill="#000" font-size="12" textLength="18.656" font-weight="700" font-family="Arial">opt</text><text x="167.351" y="64.055" fill="#000" font-size="12" textLength="200.719" font-weight="700" font-family="Arial">[sys_kill własnego procesu (abort)]</text><polygon points="350.845,106.195,360.845,110.195,350.845,114.195,354.845,110.195" fill="#181818" style="stroke:#181818;stroke-width:1;stroke-linejoin:miter;stroke-miterlimit:10;"/><line x1="104.694" y1="110.195" x2="356.845" y2="110.195" style="stroke:#181818;stroke-width:1;"/><text x="111.694" y="98.753" fill="#000" font-size="12" font-weight="700" font-family="Arial">1</text><text x="122.368" y="91.854" fill="#000" font-size="12" textLength="64.699" font-family="Arial">proc_put(p):</text><text x="187.067" y="91.854" fill="#000" font-size="12" font-family="Arial"> </text><text x="190.401" y="91.854" fill="#000" font-size="12" textLength="54.041" font-family="Arial">odwołanie</text><text x="244.442" y="91.854" fill="#000" font-size="12" font-family="Arial"> </text><text x="247.776" y="91.854" fill="#000" font-size="12" font-family="Arial">z</text><text x="253.776" y="91.854" fill="#000" font-size="12" font-family="Arial"> </text><text x="257.11" y="91.854" fill="#000" font-size="12" textLength="88.734" font-family="Arial">proc_get_by_pid</text><text x="122.368" y="105.652" fill="#000" font-size="12" textLength="48.012" font-family="Arial">(proc_kill</text><text x="170.38" y="105.652" fill="#000" font-size="12" font-family="Arial"> </text><text x="173.714" y="105.652" fill="#000" font-size="12" textLength="15.34" font-family="Arial">już</text><text x="189.054" y="105.652" fill="#000" font-size="12" font-family="Arial"> </text><text x="192.388" y="105.652" fill="#000" font-size="12" textLength="16.014" font-family="Arial">nie</text><text x="208.401" y="105.652" fill="#000" font-size="12" font-family="Arial"> </text><text x="211.735" y="105.652" fill="#000" font-size="12" textLength="31.998" font-family="Arial">wróci)</text><polygon points="350.845,147.994,360.845,151.994,350.845,155.994,354.845,151.994" fill="#181818" style="stroke:#181818;stroke-width:1;stroke-linejoin:miter;stroke-miterlimit:10;"/><line x1="104.694" y1="151.994" x2="356.845" y2="151.994" style="stroke:#181818;stroke-width:1;"/><text x="111.694" y="147.451" fill="#000" font-size="12" font-weight="700" font-family="Arial">2</text><text x="122.368" y="147.451" fill="#000" font-size="12" textLength="58.02" font-family="Arial">proc_kill(p,</text><text x="180.388" y="147.451" fill="#000" font-size="12" font-family="Arial"> </text><text x="183.722" y="147.451" fill="#000" font-size="12" textLength="30.018" font-family="Arial">code)</text><line x1="362.845" y1="179.793" x2="404.845" y2="179.793" style="stroke:#181818;stroke-width:1;"/><line x1="404.845" y1="179.793" x2="404.845" y2="192.793" style="stroke:#181818;stroke-width:1;"/><line x1="363.845" y1="192.793" x2="404.845" y2="192.793" style="stroke:#181818;stroke-width:1;"/><polygon points="373.845,188.793,363.845,192.793,373.845,196.793,369.845,192.793" fill="#181818" style="stroke:#181818;stroke-width:1;stroke-linejoin:miter;stroke-miterlimit:10;"/><text x="369.845" y="175.25" fill="#000" font-size="12" font-weight="700" font-family="Arial">3</text><text x="380.519" y="175.25" fill="#000" font-size="12" textLength="34.02" font-family="Arial">ALIVE</text><text x="414.538" y="175.25" fill="#000" font-size="12" font-family="Arial"> </text><text x="417.872" y="175.25" fill="#000" font-size="12" textLength="11.004" font-family="Arial">-></text><text x="428.876" y="175.25" fill="#000" font-size="12" font-family="Arial"> </text><text x="432.21" y="175.25" fill="#000" font-size="12" textLength="51.34" font-family="Arial">EXITING,</text><text x="483.55" y="175.25" fill="#000" font-size="12" font-family="Arial"> </text><text x="486.884" y="175.25" fill="#000" font-size="12" textLength="51.369" font-family="Arial">exit_code</text><text x="538.253" y="175.25" fill="#000" font-size="12" font-family="Arial"> </text><text x="541.587" y="175.25" fill="#000" font-size="12" font-family="Arial">=</text><text x="548.595" y="175.25" fill="#000" font-size="12" font-family="Arial"> </text><text x="551.929" y="175.25" fill="#000" font-size="12" textLength="26.021" font-family="Arial">code</text><polygon points="693.584,216.592,703.584,220.592,693.584,224.592,697.584,220.592" fill="#181818" style="stroke:#181818;stroke-width:1;stroke-linejoin:miter;stroke-miterlimit:10;"/><line x1="362.845" y1="220.592" x2="699.584" y2="220.592" style="stroke:#181818;stroke-width:1;"/><text x="369.845" y="216.049" fill="#000" font-size="12" font-weight="700" font-family="Arial">4</text><text x="380.519" y="216.049" fill="#000" font-size="12" textLength="50.672" font-family="Arial">task_kill()</text><text x="431.19" y="216.049" fill="#000" font-size="12" font-family="Arial"> </text><text x="434.524" y="216.049" fill="#000" font-size="12" textLength="45.369" font-family="Arial">każdego</text><text x="479.894" y="216.049" fill="#000" font-size="12" font-family="Arial"> </text><text x="483.228" y="216.049" fill="#000" font-size="12" textLength="31.348" font-family="Arial">wątku</text><text x="514.575" y="216.049" fill="#000" font-size="12" font-family="Arial"> </text><text x="517.909" y="216.049" fill="#000" font-size="12" textLength="30.018" font-family="Arial">(poza</text><text x="547.927" y="216.049" fill="#000" font-size="12" font-family="Arial"> </text><text x="551.261" y="216.049" fill="#000" font-size="12" textLength="60.012" font-family="Arial">wołającym)</text><path d="M346.845,232.592 L410.501,232.592 L410.501,238.391 L400.501,248.391 L346.845,248.391 L346.845,232.592" style="stroke:#000;stroke-width:1.5;" fill="#EEE"/><rect x="346.845" y="232.592" width="306.057" height="66.598" fill="none" style="stroke:#000;stroke-width:1.5;"/><text x="361.845" y="244.848" fill="#000" font-size="12" textLength="18.656" font-weight="700" font-family="Arial">opt</text><text x="425.501" y="245.848" fill="#000" font-size="12" textLength="211.4" font-weight="700" font-family="Arial">[wołający jest wątkiem tego procesu]</text><line x1="362.845" y1="278.189" x2="404.845" y2="278.189" style="stroke:#181818;stroke-width:1;"/><line x1="404.845" y1="278.189" x2="404.845" y2="291.189" style="stroke:#181818;stroke-width:1;"/><line x1="363.845" y1="291.189" x2="404.845" y2="291.189" style="stroke:#181818;stroke-width:1;"/><polygon points="373.845,287.189,363.845,291.189,373.845,295.189,369.845,291.189" fill="#181818" style="stroke:#181818;stroke-width:1;stroke-linejoin:miter;stroke-miterlimit:10;"/><text x="369.845" y="273.646" fill="#000" font-size="12" font-weight="700" font-family="Arial">5</text><text x="380.519" y="273.646" fill="#000" font-size="12" textLength="81.369" font-family="Arial">task_exit(code)</text><text x="461.888" y="273.646" fill="#000" font-size="12" font-family="Arial"> </text><text x="465.222" y="273.646" fill="#000" font-size="12" textLength="60.041" font-family="Arial">wołającego</text><text x="525.263" y="273.646" fill="#000" font-size="12" font-family="Arial"> </text><text x="528.597" y="273.646" fill="#000" font-size="12" textLength="17.344" font-family="Arial">(na</text><text x="545.94" y="273.646" fill="#000" font-size="12" font-family="Arial"> </text><text x="549.274" y="273.646" fill="#000" font-size="12" textLength="36.018" font-family="Arial">końcu)</text><line x1="705.584" y1="332.988" x2="747.584" y2="332.988" style="stroke:#181818;stroke-width:1;"/><line x1="747.584" y1="332.988" x2="747.584" y2="345.988" style="stroke:#181818;stroke-width:1;"/><line x1="706.584" y1="345.988" x2="747.584" y2="345.988" style="stroke:#181818;stroke-width:1;"/><polygon points="716.584,341.988,706.584,345.988,716.584,349.988,712.584,345.988" fill="#181818" style="stroke:#181818;stroke-width:1;stroke-linejoin:miter;stroke-miterlimit:10;"/><text x="712.584" y="328.445" fill="#000" font-size="12" font-weight="700" font-family="Arial">6</text><text x="723.258" y="328.445" fill="#000" font-size="12" textLength="39.996" font-family="Arial">-EINTR</text><text x="763.254" y="328.445" fill="#000" font-size="12" font-family="Arial"> </text><text x="766.588" y="328.445" fill="#000" font-size="12" font-family="Arial">/</text><text x="769.922" y="328.445" fill="#000" font-size="12" font-family="Arial"> </text><text x="773.256" y="328.445" fill="#000" font-size="12" textLength="34.688" font-family="Arial">koniec</text><text x="807.943" y="328.445" fill="#000" font-size="12" font-family="Arial"> </text><text x="811.277" y="328.445" fill="#000" font-size="12" textLength="55.359" font-family="Arial">wywołania</text><text x="866.637" y="328.445" fill="#000" font-size="12" font-family="Arial"> </text><text x="869.971" y="328.445" fill="#000" font-size="12" font-family="Arial">/</text><text x="873.305" y="328.445" fill="#000" font-size="12" font-family="Arial"> </text><text x="876.639" y="328.445" fill="#000" font-size="12" textLength="80.707" font-family="Arial">przekierowanie</text><text x="957.346" y="328.445" fill="#000" font-size="12" font-family="Arial"> </text><text x="960.68" y="328.445" fill="#000" font-size="12" textLength="13.348" font-family="Arial">do</text><text x="974.027" y="328.445" fill="#000" font-size="12" font-family="Arial"> </text><text x="977.361" y="328.445" fill="#000" font-size="12" textLength="47.355" font-family="Arial">task_exit</text><polygon points="373.845,369.787,363.845,373.787,373.845,377.787,369.845,373.787" fill="#181818" style="stroke:#181818;stroke-width:1;stroke-linejoin:miter;stroke-miterlimit:10;"/><line x1="367.845" y1="373.787" x2="704.584" y2="373.787" style="stroke:#181818;stroke-width:1;"/><text x="379.845" y="369.244" fill="#000" font-size="12" font-weight="700" font-family="Arial">7</text><text x="390.519" y="369.244" fill="#000" font-size="12" textLength="110.73" font-family="Arial">proc_thread_exited()</text><text x="501.249" y="369.244" fill="#000" font-size="12" font-family="Arial"> </text><text x="504.583" y="369.244" fill="#000" font-size="12" textLength="39.34" font-family="Arial">(każdy)</text><line x1="362.845" y1="401.586" x2="404.845" y2="401.586" style="stroke:#181818;stroke-width:1;"/><line x1="404.845" y1="401.586" x2="404.845" y2="414.586" style="stroke:#181818;stroke-width:1;"/><line x1="363.845" y1="414.586" x2="404.845" y2="414.586" style="stroke:#181818;stroke-width:1;"/><polygon points="373.845,410.586,363.845,414.586,373.845,418.586,369.845,414.586" fill="#181818" style="stroke:#181818;stroke-width:1;stroke-linejoin:miter;stroke-miterlimit:10;"/><text x="369.845" y="397.043" fill="#000" font-size="12" font-weight="700" font-family="Arial">8</text><text x="380.519" y="397.043" fill="#000" font-size="12" textLength="38.689" font-family="Arial">ostatni:</text><text x="419.208" y="397.043" fill="#000" font-size="12" font-family="Arial"> </text><text x="422.542" y="397.043" fill="#000" font-size="12" textLength="36.674" font-family="Arial">DEAD,</text><text x="459.216" y="397.043" fill="#000" font-size="12" font-family="Arial"> </text><text x="462.55" y="397.043" fill="#000" font-size="12" textLength="28.014" font-family="Arial">wake</text><text x="490.563" y="397.043" fill="#000" font-size="12" font-family="Arial"> </text><text x="493.897" y="397.043" fill="#000" font-size="12" textLength="44.021" font-family="Arial">exit_wq,</text><text x="537.919" y="397.043" fill="#000" font-size="12" font-family="Arial"> </text><text x="541.253" y="397.043" fill="#000" font-size="12" textLength="28.014" font-family="Arial">wake</text><text x="569.267" y="397.043" fill="#000" font-size="12" font-family="Arial"> </text><text x="572.601" y="397.043" fill="#000" font-size="12" textLength="84.053" font-family="Arial">parent.child_wq</text><polygon points="1019.717,438.385,1029.717,442.385,1019.717,446.385,1023.717,442.385" fill="#181818" style="stroke:#181818;stroke-width:1;stroke-linejoin:miter;stroke-miterlimit:10;"/><line x1="362.845" y1="442.385" x2="1025.717" y2="442.385" style="stroke:#181818;stroke-width:1;"/><text x="369.845" y="437.842" fill="#000" font-size="12" font-weight="700" font-family="Arial">9</text><text x="380.519" y="437.842" fill="#000" font-size="12" textLength="182.098" font-family="Arial">kworker_queue(proc_death_work)</text><polygon points="373.845,466.184,363.845,470.184,373.845,474.184,369.845,470.184" fill="#181818" style="stroke:#181818;stroke-width:1;stroke-linejoin:miter;stroke-miterlimit:10;"/><line x1="367.845" y1="470.184" x2="1030.717" y2="470.184" style="stroke:#181818;stroke-width:1;"/><text x="379.845" y="465.641" fill="#000" font-size="12" textLength="13.348" font-weight="700" font-family="Arial">10</text><text x="397.192" y="465.641" fill="#000" font-size="12" textLength="80.701" font-family="Arial">proc_release():</text><text x="477.894" y="465.641" fill="#000" font-size="12" font-family="Arial"> </text><text x="481.228" y="465.641" fill="#000" font-size="12" textLength="92.736" font-family="Arial">handle_close_all,</text><text x="573.964" y="465.641" fill="#000" font-size="12" font-family="Arial"> </text><text x="577.298" y="465.641" fill="#000" font-size="12" textLength="88.049" font-family="Arial">shm_unmap_all,</text><text x="665.347" y="465.641" fill="#000" font-size="12" font-family="Arial"> </text><text x="668.681" y="465.641" fill="#000" font-size="12" textLength="90.721" font-family="Arial">mpu_forget_proc</text><line x1="1031.717" y1="497.982" x2="1073.717" y2="497.982" style="stroke:#181818;stroke-width:1;"/><line x1="1073.717" y1="497.982" x2="1073.717" y2="510.982" style="stroke:#181818;stroke-width:1;"/><line x1="1032.717" y1="510.982" x2="1073.717" y2="510.982" style="stroke:#181818;stroke-width:1;"/><polygon points="1042.717,506.982,1032.717,510.982,1042.717,514.982,1038.717,510.982" fill="#181818" style="stroke:#181818;stroke-width:1;stroke-linejoin:miter;stroke-miterlimit:10;"/><text x="1038.717" y="493.439" fill="#000" font-size="12" textLength="13.348" font-weight="700" font-family="Arial">11</text><text x="1056.064" y="493.439" fill="#000" font-size="12" textLength="35.344" font-family="Arial">sieroty</text><text x="1091.408" y="493.439" fill="#000" font-size="12" font-family="Arial"> </text><text x="1094.742" y="493.439" fill="#000" font-size="12" textLength="38.672" font-family="Arial">(dzieci)</text><text x="1133.414" y="493.439" fill="#000" font-size="12" font-family="Arial"> </text><text x="1136.748" y="493.439" fill="#000" font-size="12" textLength="19.348" font-family="Arial">bez</text><text x="1156.096" y="493.439" fill="#000" font-size="12" font-family="Arial"> </text><text x="1159.43" y="493.439" fill="#000" font-size="12" textLength="42.018" font-family="Arial">rodzica,</text><text x="1201.447" y="493.439" fill="#000" font-size="12" font-family="Arial"> </text><text x="1204.781" y="493.439" fill="#000" font-size="12" textLength="68.695" font-family="Arial">kfree(arena),</text><text x="1273.477" y="493.439" fill="#000" font-size="12" font-family="Arial"> </text><text x="1276.811" y="493.439" fill="#000" font-size="12" textLength="92.045" font-family="Arial">proc_put(własne)</text><polygon points="373.845,534.781,363.845,538.781,373.845,542.781,369.845,538.781" fill="#181818" style="stroke:#181818;stroke-width:1;stroke-linejoin:miter;stroke-miterlimit:10;"/><line x1="367.845" y1="538.781" x2="1374.855" y2="538.781" style="stroke:#181818;stroke-width:1;"/><text x="379.845" y="534.238" fill="#000" font-size="12" textLength="13.348" font-weight="700" font-family="Arial">12</text><text x="397.192" y="534.238" fill="#000" font-size="12" textLength="94.037" font-family="Arial">proc_wait_child():</text><text x="491.229" y="534.238" fill="#000" font-size="12" font-family="Arial"> </text><text x="494.563" y="534.238" fill="#000" font-size="12" textLength="56.701" font-family="Arial">znaleziony</text><text x="551.265" y="534.238" fill="#000" font-size="12" font-family="Arial"> </text><text x="554.599" y="534.238" fill="#000" font-size="12" textLength="36.674" font-family="Arial">DEAD,</text><text x="591.272" y="534.238" fill="#000" font-size="12" font-family="Arial"> </text><text x="594.606" y="534.238" fill="#000" font-size="12" textLength="22.682" font-family="Arial">kod,</text><text x="617.288" y="534.238" fill="#000" font-size="12" font-family="Arial"> </text><text x="620.622" y="534.238" fill="#000" font-size="12" textLength="93.375" font-family="Arial">proc_put(rodzica)</text><line x1="362.845" y1="566.58" x2="404.845" y2="566.58" style="stroke:#181818;stroke-width:1;"/><line x1="404.845" y1="566.58" x2="404.845" y2="579.58" style="stroke:#181818;stroke-width:1;"/><line x1="363.845" y1="579.58" x2="404.845" y2="579.58" style="stroke:#181818;stroke-width:1;"/><polygon points="373.845,575.58,363.845,579.58,373.845,583.58,369.845,579.58" fill="#181818" style="stroke:#181818;stroke-width:1;stroke-linejoin:miter;stroke-miterlimit:10;"/><text x="369.845" y="562.037" fill="#000" font-size="12" textLength="13.348" font-weight="700" font-family="Arial">13</text><text x="387.192" y="562.037" fill="#000" font-size="12" textLength="20.004" font-family="Arial">refs</text><text x="407.196" y="562.037" fill="#000" font-size="12" font-family="Arial"> </text><text x="410.53" y="562.037" fill="#000" font-size="12" textLength="14.016" font-family="Arial">==</text><text x="424.546" y="562.037" fill="#000" font-size="12" font-family="Arial"> </text><text x="427.88" y="562.037" fill="#000" font-size="12" textLength="10.008" font-family="Arial">0:</text><text x="437.888" y="562.037" fill="#000" font-size="12" font-family="Arial"> </text><text x="441.222" y="562.037" fill="#000" font-size="12" textLength="58.688" font-family="Arial">proc_free()</text><text x="499.909" y="562.037" fill="#000" font-size="12" font-family="Arial"> </text><text x="503.243" y="562.037" fill="#000" font-size="12" textLength="54.012" font-family="Arial">(struktura,</text><text x="557.255" y="562.037" fill="#000" font-size="12" font-family="Arial"> </text><text x="560.589" y="562.037" fill="#000" font-size="12" textLength="34.688" font-family="Arial">tablica</text><text x="595.276" y="562.037" fill="#000" font-size="12" font-family="Arial"> </text><text x="598.61" y="562.037" fill="#000" font-size="12" textLength="56.684" font-family="Arial">uchwytów)</text><?plantuml-src PLDDJzmm4BtlhvXoIgImz8n49IHMrOeA8RGgFLIolFR0cYIsyOVIv8ZAB-BA3VP_rH_P3KjzyyoRcJVFpr-4P8td2FFvYNLzCnU-RMRKEoLzkqOpqzGumOIcqi5HfxPFzE7zcVLGsDwIMZHD1Uljq_ipho16y8zmvH5G2vU7fTeeDcTQfzprfxRlpwuM425eVKAi3X5rfqoD9gLk3rD6yK4mA68rwQXmX6r4mpE9cnc4exI37LtemWfMuhtQpOE2hfLnPOB6Smd7t-0QJXE0QEyANPw2ucbxAH26dBb7HzOzqOB_bdby6l3WjwyGOPrvUs4YzqN9P__tZlX2Ly0KnuoxtkNFVon_Bk9byMkvMbvzho1AIo8IpbB1X5y5lAEsplrAgEdsbSSDax1XGQq62jFZjULUbWyl-e3MvGg1BRWF2ksLsRDBqoAX8b6VsiIgGbAerVOlyuUxhtPSZnVBgzKDd0HKq8b1ru_IqX3JPi30mAWkQStLD6pgibVGRGnIdhB8m-f5sht_9AQoZZefJk5YSNvHGKThp79sZ-CjM0gbcoVhXEXKVXlAH_UHHuyUyqjpf6v3OZoFkZrWPR11Qh48jjbGoHiah54M2OtVnMvQucLBTRwssfCxPQAPOktKBKwsKGWNVblmE0OlmHe7o8wd5THt1h68p6bPJMuT7Pw9tHmGc_v7v3P8sk0WbEn7OMh5F_GPvtpIqk2TXRCp-3gsJ1o2yDOPNpjl0Yz7rqqe1CysNU_UNhho7m00?></g></svg>